<svg viewBox="0 0 836 703" fill="none" xmlns="http://www.w3.org/2000/svg">
<path d="M834.982 680.707C835.025 680.756 835.052 680.794 835.07 680.821C835.052 680.849 835.025 680.887 834.982 680.936C834.817 681.126 834.501 681.389 833.956 681.702C832.867 682.329 831.148 682.996 828.755 683.679C823.991 685.038 816.895 686.366 807.669 687.64C789.236 690.184 762.525 692.48 729.474 694.41C663.383 698.268 572.058 700.656 471.17 700.656C370.281 700.656 278.957 698.268 212.866 694.41C179.815 692.48 153.104 690.184 134.671 687.64C125.445 686.366 118.349 685.038 113.585 683.679C111.191 682.996 109.473 682.329 108.384 681.702C107.839 681.389 107.523 681.126 107.358 680.936C107.315 680.887 107.288 680.849 107.27 680.821C107.288 680.794 107.315 680.756 107.358 680.707C107.523 680.517 107.839 680.254 108.384 679.941C109.473 679.314 111.191 678.647 113.585 677.964C118.349 676.605 125.445 675.277 134.671 674.003C153.104 671.459 179.815 669.163 212.866 667.233C278.957 663.375 370.281 660.987 471.17 660.987C572.058 660.987 663.383 663.375 729.474 667.233C762.525 669.163 789.236 671.459 807.669 674.003C816.895 675.277 823.991 676.605 828.755 677.964C831.148 678.647 832.867 679.314 833.956 679.941C834.501 680.254 834.817 680.517 834.982 680.707ZM107.242 680.768C107.243 680.768 107.244 680.77 107.245 680.775C107.243 680.77 107.242 680.768 107.242 680.768ZM107.242 680.875C107.242 680.875 107.243 680.873 107.245 680.868C107.244 680.873 107.243 680.875 107.242 680.875Z" stroke="#848484" stroke-width="3"/>
<path d="M558.204 245.951L558.788 231.382C558.788 231.382 562.69 227.518 562.69 225.012C562.69 222.505 558.204 208.163 556.244 207.484C554.284 206.806 543.749 211.8 543.56 215.023C543.372 218.246 549.026 230.1 550.006 230.967L548.442 246.441L558.204 245.951Z" fill="#E4897B"/>
<path d="M716.951 225.841L711.937 211.423C709.802 209.897 707.82 208.168 706.02 206.259C704.644 204.374 712.314 190.786 713.445 190.786C717.161 192.172 720.644 194.117 723.773 196.553C724.904 197.91 718.911 208.992 718.911 208.992L726.355 221.431L716.951 225.841Z" fill="#E4897B"/>
<path d="M687.795 223.41C694.712 224.088 727.938 259.614 727.938 259.614L713.596 219.772L724.904 215.909C724.904 215.909 752.91 260.519 746.766 276.897C740.622 293.275 685.759 255.732 685.759 255.732L687.795 223.41Z" fill="#DB3535"/>
<path d="M581.461 647.368L573.715 637.248L586.832 624.582L598.762 613.086L609.976 623.565L594.899 636.173L581.461 647.368Z" fill="#E4897B"/>
<path d="M573.263 634.138C574.412 633.327 584.005 647.708 584.005 647.708C584.005 647.708 581.876 662.785 586.211 672.378C590.545 681.971 582.121 681.236 575.11 672.076L557.808 649.46C552.833 642.883 561.484 642.675 573.263 634.138Z" fill="#2E353A"/>
<path d="M583.855 650.497C583.855 650.497 590.281 648.424 591.035 651.892C591.883 655.887 583.855 650.497 583.855 650.497ZM583.855 650.497C583.855 650.497 590.338 655.322 588.623 657.508C586.022 660.787 583.855 650.497 583.855 650.497Z" stroke="#DB3535" stroke-width="0.48312" stroke-linecap="round" stroke-linejoin="round"/>
<path opacity="0.2" d="M594.899 636.173L586.833 624.582L598.763 613.086L609.976 623.565L594.899 636.173Z" fill="black"/>
<path d="M658.978 663.407H646.219L644.127 645.653L642.242 629.37L657.376 626.901L658.224 646.237L658.978 663.407Z" fill="#E4897B"/>
<path d="M643.486 662.596C643.486 661.183 660.787 662.295 660.787 662.295C660.787 662.295 671.417 673.094 681.726 675.488C692.035 677.881 686.287 684.138 674.715 684.138H646.219C638.02 684.138 643.146 677.165 643.486 662.596Z" fill="#2E353A"/>
<path d="M662.917 664.104C662.917 664.104 665.179 657.734 668.383 659.242C672.152 660.995 662.917 664.104 662.917 664.104ZM662.917 664.104C662.917 664.104 670.701 661.88 671.379 664.557C672.416 668.627 662.917 664.104 662.917 664.104Z" stroke="#DB3535" stroke-width="0.48312" stroke-linecap="round" stroke-linejoin="round"/>
<path opacity="0.2" d="M658.224 646.633L644.127 646.011L642.242 629.539L657.376 626.995L658.224 646.633Z" fill="black"/>
<path d="M690.791 356.694C690.791 356.694 728.485 445.745 734.384 484.852C740.283 523.96 606.49 628.672 606.49 628.672L592.807 614.123C592.807 614.123 692.356 511.784 692.356 494.182C692.356 476.579 653.531 396.178 653.531 396.178C653.531 396.178 649.781 363.743 690.791 356.694Z" fill="#DB3535"/>
<path opacity="0.6" d="M663.52 579.916C649.856 592.505 636.626 603.87 626.354 612.464C614.424 622.415 606.49 628.635 606.49 628.635L592.807 614.085C592.807 614.085 606.49 600.044 623.678 581.442C637.21 566.817 652.947 549.403 665.932 533.798C681.01 515.705 692.318 500.081 692.318 494.219C692.318 484.928 681.519 458.203 671.323 434.984C662.163 414.252 653.494 396.216 653.494 396.216C653.234 392.513 653.597 388.793 654.568 385.209C657.188 375.126 665.461 361.123 690.772 356.77C690.772 356.77 728.466 445.821 734.346 484.928C737.626 506.168 699.103 547.16 663.52 579.916Z" fill="white"/>
<path opacity="0.2" d="M665.932 533.798L663.52 579.916C649.856 592.505 636.626 603.87 626.354 612.464C623.993 602.303 623.092 591.858 623.678 581.442C637.21 566.817 652.947 549.403 665.932 533.798Z" fill="black"/>
<path opacity="0.2" d="M671.36 434.908C662.201 414.177 653.531 396.141 653.531 396.141C653.272 392.437 653.635 388.717 654.606 385.134C655.906 384.253 657.356 383.614 658.884 383.249C658.884 383.249 670.022 400.833 671.36 434.908Z" fill="black"/>
<path d="M622.905 152.32C622.905 152.32 634.345 138.053 653.06 141.238C671.775 144.423 668.533 179.044 668.533 179.044C672.029 182.036 674.632 185.935 676.056 190.311C677.479 194.687 677.667 199.371 676.6 203.847C672.943 219.546 630.255 228.63 613.934 217.718C597.613 206.806 610.165 172.184 618.099 167.284C626.034 162.384 622.905 152.32 622.905 152.32Z" fill="#2E353A"/>
<path d="M659.242 383.344L661.522 508.713V637.021H640.169C589.17 393.898 624.13 332.947 624.13 332.947H624.262C624.262 332.853 624.262 332.74 624.375 332.665C632.574 314.459 686.287 327.878 686.287 327.878C690.151 342.955 692.525 373.619 692.525 373.619L659.242 383.344Z" fill="#DB3535"/>
<path opacity="0.6" d="M659.242 383.344L661.522 508.713V637.021H640.169C589.17 393.898 624.13 332.947 624.13 332.947H624.262C624.262 332.853 624.262 332.74 624.375 332.665C632.574 314.459 686.287 327.878 686.287 327.878C690.151 342.955 692.525 373.619 692.525 373.619L659.242 383.344Z" fill="white"/>
<path d="M623.829 323.562V332.683L686.023 327.915V317.135L623.829 323.562Z" fill="#2E353A"/>
<path d="M644.676 319.795L641.589 319.953L642.391 335.669L645.478 335.512L644.676 319.795Z" fill="#DB3535"/>
<path d="M671.653 319.315L658.062 320.533L658.985 330.838L672.576 329.621L671.653 319.315Z" fill="white"/>
<path d="M682.693 315.584L679.606 315.742L680.407 331.459L683.494 331.301L682.693 315.584Z" fill="#DB3535"/>
<path opacity="0.6" d="M644.676 319.795L641.589 319.953L642.391 335.669L645.478 335.512L644.676 319.795Z" fill="white"/>
<path opacity="0.6" d="M682.693 315.584L679.606 315.742L680.407 331.459L683.494 331.301L682.693 315.584Z" fill="white"/>
<path d="M686.287 318.228L624.093 323.599C622.622 300.474 621.152 285.566 607.451 244.443C606.263 240.843 604.982 237.017 603.568 232.984C612.014 230.287 620.643 228.203 629.388 226.746C638.618 225.107 647.951 224.124 657.319 223.806C669.419 223.806 683.328 225.068 683.328 225.068C683.328 225.068 685.307 225.539 686.551 238.374C687.663 250.323 688.775 274.409 686.287 318.228Z" fill="#DB3535"/>
<path opacity="0.3" d="M686.287 318.228L624.093 323.599C622.622 300.474 621.152 285.566 607.451 244.443C606.263 240.843 604.982 237.017 603.568 232.984C612.014 230.287 620.643 228.203 629.388 226.746C638.618 225.107 647.951 224.124 657.319 223.806C669.419 223.806 683.328 225.068 683.328 225.068C683.328 225.068 685.307 225.539 686.551 238.374C687.663 250.323 688.775 274.409 686.287 318.228Z" fill="black"/>
<path d="M652.099 237.469C636.758 235.585 632.159 228.951 632.159 228.951C641.884 219.772 633.799 203.866 633.799 203.866L652.25 207.315C651.817 209.888 651.577 212.489 651.534 215.098C651.383 226.293 656.453 226.406 656.453 226.406C659.77 232.456 652.099 237.469 652.099 237.469Z" fill="#E4897B"/>
<path opacity="0.2" d="M652.325 207.315C651.892 209.888 651.653 212.49 651.609 215.098C642.713 213.025 633.874 203.79 633.874 203.79L652.325 207.315Z" fill="black"/>
<path d="M635.872 156.221C651.515 152.452 658.488 159.708 663.483 175.539C669.683 195.328 668.609 210.688 648.047 211.027C620.06 211.48 609.92 162.384 635.872 156.221Z" fill="#E4897B"/>
<path d="M653.173 177.16C654.98 179.199 657.023 181.015 659.261 182.569C658.952 183.332 658.435 183.993 657.768 184.476C657.102 184.959 656.313 185.245 655.491 185.301L653.173 177.16Z" fill="#DE5753"/>
<path d="M643.298 178.045C643.637 179.327 643.298 180.533 642.374 180.759C641.451 180.986 640.489 180.137 640.226 178.875C639.962 177.612 640.226 176.387 641.149 176.161C642.073 175.935 642.977 176.764 643.298 178.045Z" fill="#2E353A"/>
<path d="M640.791 176.293L643.297 174.408C643.297 174.408 642.544 177.16 640.791 176.293Z" fill="#2E353A"/>
<path d="M659.11 173.635C659.449 174.898 659.016 176.123 658.168 176.349C657.32 176.575 656.283 175.708 656.019 174.465C655.755 173.221 656.113 171.977 656.961 171.751C657.81 171.524 658.771 172.354 659.11 173.635Z" fill="#2E353A"/>
<path d="M656.622 171.864L659.11 169.979C659.11 169.979 658.337 172.75 656.622 171.864Z" fill="#2E353A"/>
<path d="M640.584 167.284C639.312 167.427 638.09 167.86 637.012 168.549C635.934 169.239 635.028 170.166 634.364 171.261" stroke="#2E353A" stroke-width="0.72468" stroke-linecap="round" stroke-linejoin="round"/>
<path d="M651.797 163.967C652.803 163.446 653.913 163.159 655.046 163.126C656.178 163.094 657.303 163.317 658.337 163.778" stroke="#2E353A" stroke-width="0.72468" stroke-linecap="round" stroke-linejoin="round"/>
<path d="M654.738 191.898C654.419 193.837 654.236 195.795 654.191 197.759L653.173 197.91C648.518 198.532 646.143 197.269 644.937 195.705C644.364 194.918 643.984 194.008 643.825 193.048C643.748 192.504 643.748 191.952 643.825 191.408C646.881 192.31 650.095 192.541 653.249 192.086C654.116 192.011 654.738 191.898 654.738 191.898Z" fill="#2E353A"/>
<path d="M653.136 192.086L652.947 193.82C648.556 194.386 645.408 194.197 643.825 193.048C643.748 192.504 643.748 191.952 643.825 191.408C646.845 192.294 650.019 192.525 653.136 192.086V192.086Z" fill="white"/>
<path d="M653.173 197.891C648.518 198.513 646.143 197.25 644.937 195.686C646.701 195.481 648.488 195.59 650.214 196.006C651.376 196.305 652.412 196.965 653.173 197.891V197.891Z" fill="#DE5753"/>
<path d="M625.035 186.583C625.035 186.583 629.294 172.015 625.845 162.365C625.845 162.365 653.814 142.369 662.804 173.447C662.804 173.447 659.223 144.8 632.197 150.548C605.171 156.296 614.613 195.592 631.254 204.016C631.254 204.054 622.415 195.724 625.035 186.583Z" fill="#2E353A"/>
<path d="M628.371 189.316C627.788 187.547 626.53 186.081 624.871 185.237C623.211 184.393 621.285 184.24 619.513 184.812C614.782 186.47 614.839 196.968 627.447 196.515C629.257 196.44 629.841 194.518 628.371 189.316Z" fill="#E4897B"/>
<path d="M686.532 238.28C663.162 249.833 627.353 247.138 607.376 244.349C606.188 240.749 604.907 236.923 603.493 232.89C611.939 230.193 620.568 228.108 629.313 226.651C638.542 225.012 647.876 224.03 657.244 223.711C669.344 223.711 683.253 224.974 683.253 224.974C683.253 224.974 685.288 225.445 686.532 238.28Z" fill="#E4897B"/>
<path d="M616.611 226.595C616.611 226.595 633.365 248.005 633.874 271.205C634.383 294.406 618.91 401.437 618.91 401.437L600.251 396.159C600.251 396.159 614.349 313.799 600.251 234.247L616.611 226.595Z" fill="#DB3535"/>
<path d="M668.533 224.277C668.533 224.277 675.356 246.459 674.451 262.404C673.547 278.348 690.792 356.845 690.792 356.845L695.805 368.907L690.848 320.226C690.848 320.226 693.845 248.778 687.795 224.277H668.533Z" fill="#DB3535"/>
<path d="M635.872 156.221C635.872 156.221 641.658 175.916 624.036 184.83C602.739 195.611 604.775 218.905 625.544 221.864C625.544 221.864 604.567 219.753 600.496 206.052C596.426 192.35 608.035 171.261 608.035 171.261C608.035 171.261 601.665 159.67 618.872 150.529C628.522 145.441 635.872 156.221 635.872 156.221Z" fill="#2E353A"/>
<path d="M637.417 633.949L664.104 630.029L661.88 640.697L639.848 643.655L637.417 633.949Z" fill="#DB3535"/>
<path d="M592.807 609.166L610.712 628.635L601.759 633.761L587.945 619.098L592.807 609.166Z" fill="#DB3535"/>
<path d="M698.877 181.608C695.654 175.84 689.453 173.202 684.892 175.727C680.332 178.253 679.37 184.943 682.574 190.711C685.778 196.478 691.998 199.097 696.559 196.591C701.12 194.084 702.1 187.356 698.877 181.608Z" fill="#DB3535"/>
<path d="M735.458 161.404L724.377 141.03C724.377 141.03 716.649 157.634 705.53 163.854L711.184 173.956L712.07 175.539L717.724 185.641C728.843 179.421 747.03 181.513 747.03 181.513L735.458 161.404Z" fill="#DB3535"/>
<path opacity="0.8" d="M698.877 181.608C695.654 175.84 689.453 173.202 684.892 175.727C680.332 178.253 679.37 184.943 682.574 190.711C685.778 196.478 691.998 199.097 696.559 196.591C701.12 194.084 702.1 187.356 698.877 181.608Z" fill="white"/>
<path opacity="0.8" d="M735.458 161.404L724.377 141.03C724.377 141.03 716.649 157.634 705.53 163.854L711.184 173.956L712.07 175.539L717.724 185.641C728.843 179.421 747.03 181.513 747.03 181.513L735.458 161.404Z" fill="white"/>
<path d="M698.123 193.538C698.123 193.538 706.133 205.128 713.615 209.369C713.873 209.509 714.173 209.552 714.46 209.49C714.747 209.428 715.002 209.264 715.179 209.03L721.568 201.133C721.678 200.983 721.753 200.811 721.789 200.629C721.825 200.447 721.82 200.26 721.775 200.08C721.73 199.9 721.646 199.732 721.529 199.588C721.412 199.445 721.264 199.329 721.097 199.248C717.95 197.854 710.599 194.273 706.359 189.259C700.856 182.701 698.123 193.538 698.123 193.538Z" fill="#DB3535"/>
<path opacity="0.3" d="M698.123 193.538C698.123 193.538 706.133 205.128 713.615 209.369C713.873 209.509 714.173 209.552 714.46 209.49C714.747 209.428 715.002 209.264 715.179 209.03L721.568 201.133C721.678 200.983 721.753 200.811 721.789 200.629C721.825 200.447 721.82 200.26 721.775 200.08C721.73 199.9 721.646 199.732 721.529 199.588C721.412 199.445 721.264 199.329 721.097 199.248C717.95 197.854 710.599 194.273 706.359 189.259C700.856 182.701 698.123 193.538 698.123 193.538Z" fill="black"/>
<path d="M746.898 182.116C744.354 183.53 737.117 175.445 730.747 164.042C724.376 152.64 721.323 142.256 723.83 140.823C726.336 139.391 733.611 147.495 739.982 158.878C746.352 170.262 749.461 180.684 746.898 182.116Z" fill="white"/>
<path opacity="0.4" d="M745.862 178.743C743.977 179.817 738.323 173.447 732.99 164.306C732.688 163.797 732.386 163.251 732.085 162.704C731.783 162.158 731.369 161.423 731.029 160.82C726.148 151.585 723.736 143.631 725.62 142.576C727.505 141.52 733.856 148.626 739.435 158.615C745.014 168.603 747.897 177.612 745.862 178.743Z" fill="black"/>
<path d="M695.446 198.702C695.446 198.702 692.714 196.817 687.757 187.884C682.386 178.272 682.536 175.595 682.536 175.595L707.358 161.705C707.358 161.705 707.659 165.192 712.691 174.201C717.723 183.209 720.23 184.811 720.23 184.811L695.446 198.702Z" fill="#DB3535"/>
<path d="M732.989 164.306C732.688 163.797 732.386 163.251 732.085 162.704C731.783 162.158 731.369 161.423 731.029 160.82L733.592 160.009C733.866 159.924 734.16 159.943 734.421 160.061C734.681 160.179 734.89 160.389 735.006 160.65L735.213 161.027C735.376 161.26 735.447 161.545 735.412 161.826C735.377 162.108 735.239 162.367 735.025 162.554L732.989 164.306Z" fill="white"/>
<path opacity="0.2" d="M732.989 164.306C732.688 163.797 732.386 163.251 732.085 162.704C731.783 162.158 731.369 161.423 731.029 160.82L733.592 160.009C733.866 159.924 734.16 159.943 734.421 160.061C734.681 160.179 734.89 160.389 735.006 160.65L735.213 161.027C735.376 161.26 735.447 161.545 735.412 161.826C735.377 162.108 735.239 162.367 735.025 162.554L732.989 164.306Z" fill="black"/>
<path d="M600.251 234.228C591.601 237.997 560.673 293.218 560.673 293.218L560.07 241.013L546.104 239.128C546.104 239.128 537.605 313.177 555.811 317.418C574.017 321.658 607.413 268.868 607.413 268.868L600.251 234.228Z" fill="#DB3535"/>
<path d="M633.874 153.884C633.874 153.884 641.884 159.67 635.928 174.766" stroke="#2E353A" stroke-width="0.5" stroke-linecap="round" stroke-linejoin="round"/>
<path d="M666.818 177.819C666.818 177.819 688.85 192.086 674.564 210.462" stroke="#2E353A" stroke-width="0.5" stroke-linecap="round" stroke-linejoin="round"/>
<path d="M535.079 43.1215H218.566C207.741 43.1215 198.965 51.897 198.965 62.7221V663.313C198.965 674.138 207.741 682.913 218.566 682.913H535.079C545.904 682.913 554.68 674.138 554.68 663.313V62.7221C554.68 51.897 545.904 43.1215 535.079 43.1215Z" fill="#2E353A"/>
<path d="M542.788 64.5691V660.354C542.788 661.508 542.558 662.652 542.112 663.717C541.667 664.782 541.013 665.748 540.191 666.558C539.368 667.368 538.393 668.007 537.321 668.436C536.249 668.866 535.103 669.079 533.948 669.061H218.981C217.932 669.074 216.892 668.875 215.922 668.477C214.951 668.079 214.072 667.489 213.334 666.743C212.597 665.998 212.018 665.111 211.631 664.136C211.245 663.161 211.059 662.118 211.084 661.07V63.853C211.046 62.9281 211.191 62.0048 211.511 61.1362C211.831 60.2676 212.319 59.4707 212.948 58.7912C213.577 58.1118 214.333 57.5632 215.175 57.177C216.016 56.7907 216.925 56.5744 217.85 56.5404H296.592C297.693 56.5601 298.764 56.9077 299.667 57.5388C300.57 58.1699 301.265 59.0559 301.662 60.0836L304.922 68.1123C305.325 69.133 306.022 70.011 306.925 70.6351C307.827 71.2592 308.895 71.6012 309.992 71.6178H444.049C445.142 71.6133 446.208 71.2825 447.111 70.668C448.014 70.0536 448.714 69.1833 449.119 68.1689L452.323 60.1024C452.733 59.071 453.438 58.1833 454.35 57.5499C455.262 56.9164 456.339 56.5653 457.449 56.5404H535.06C537.143 56.5996 539.12 57.4739 540.565 58.9753C542.01 60.4768 542.808 62.4854 542.788 64.5691Z" fill="#DB3535"/>
<path opacity="0.2" d="M542.788 95.1764H211.084V169.621H542.788V95.1764Z" fill="white"/>
<path opacity="0.6" d="M248.495 80.5325H252.584V75.0669H248.495V80.5325Z" fill="white"/>
<path opacity="0.6" d="M241.823 80.5513H245.913V73.2576H241.823V80.5513Z" fill="white"/>
<path opacity="0.6" d="M235.151 80.5513H239.241V71.4483H235.151V80.5513Z" fill="white"/>
<path opacity="0.6" d="M228.461 80.5325H232.551V69.6013H228.461V80.5325Z" fill="white"/>
<path opacity="0.6" d="M506.111 73.0879H503.68V78.5535H506.111V73.0879Z" fill="white"/>
<path opacity="0.6" d="M507.751 80.5513H527.107V71.109H507.751V80.5513Z" fill="white"/>
<path opacity="0.6" d="M369.416 61.8742C371.935 61.8742 373.977 59.8322 373.977 57.3133C373.977 54.7943 371.935 52.7523 369.416 52.7523C366.897 52.7523 364.855 54.7943 364.855 57.3133C364.855 59.8322 366.897 61.8742 369.416 61.8742Z" fill="white"/>
<path opacity="0.6" d="M383.193 57.3132C383.193 57.891 383.022 58.4558 382.701 58.9362C382.38 59.4166 381.923 59.791 381.39 60.0121C380.856 60.2332 380.268 60.2911 379.702 60.1783C379.135 60.0656 378.614 59.7874 378.206 59.3788C377.797 58.9703 377.519 58.4498 377.406 57.8831C377.294 57.3165 377.352 56.7291 377.573 56.1953C377.794 55.6615 378.168 55.2053 378.649 54.8843C379.129 54.5633 379.694 54.392 380.272 54.392C381.046 54.392 381.789 54.6997 382.337 55.2476C382.885 55.7954 383.193 56.5385 383.193 57.3132V57.3132Z" fill="white"/>
<path opacity="0.2" d="M542.787 555.98V660.354C542.787 661.509 542.558 662.652 542.112 663.717C541.666 664.782 541.013 665.748 540.191 666.558C539.368 667.368 538.393 668.007 537.321 668.437C536.249 668.866 535.103 669.079 533.948 669.061H218.981C217.932 669.074 216.892 668.876 215.921 668.477C214.951 668.079 214.071 667.489 213.334 666.744C212.597 665.998 212.018 665.111 211.631 664.136C211.245 663.161 211.058 662.118 211.084 661.07V555.98H542.787Z" fill="white"/>
<path d="M247.515 356.6L376.823 247.948L506.112 356.6L404.735 492.58L313.686 490.752L247.515 356.6Z" fill="#DB3535"/>
<path opacity="0.3" d="M247.515 356.6L376.823 247.948L506.112 356.6L404.735 492.58L313.686 490.752L247.515 356.6Z" fill="black"/>
<path d="M464.536 212.14H289.091C286.749 212.14 284.85 214.038 284.85 216.38V476.805C284.85 479.147 286.749 481.046 289.091 481.046H464.536C466.878 481.046 468.776 479.147 468.776 476.805V216.38C468.776 214.038 466.878 212.14 464.536 212.14Z" fill="white"/>
<path opacity="0.2" d="M447.856 236.414H305.789C305.04 236.414 304.432 237.022 304.432 237.771V240.523C304.432 241.272 305.04 241.88 305.789 241.88H447.856C448.606 241.88 449.213 241.272 449.213 240.523V237.771C449.213 237.022 448.606 236.414 447.856 236.414Z" fill="black"/>
<path opacity="0.2" d="M447.856 254.639H305.789C305.04 254.639 304.432 255.247 304.432 255.996V258.748C304.432 259.497 305.04 260.105 305.789 260.105H447.856C448.606 260.105 449.213 259.497 449.213 258.748V255.996C449.213 255.247 448.606 254.639 447.856 254.639Z" fill="black"/>
<path opacity="0.2" d="M447.856 272.864H305.789C305.04 272.864 304.432 273.471 304.432 274.221V276.973C304.432 277.722 305.04 278.329 305.789 278.329H447.856C448.606 278.329 449.213 277.722 449.213 276.973V274.221C449.213 273.471 448.606 272.864 447.856 272.864Z" fill="black"/>
<path opacity="0.2" d="M447.856 291.089H305.789C305.04 291.089 304.432 291.696 304.432 292.446V295.197C304.432 295.947 305.04 296.554 305.789 296.554H447.856C448.606 296.554 449.213 295.947 449.213 295.197V292.446C449.213 291.696 448.606 291.089 447.856 291.089Z" fill="black"/>
<path opacity="0.2" d="M447.856 309.314H305.789C305.04 309.314 304.432 309.921 304.432 310.671V313.422C304.432 314.172 305.04 314.779 305.789 314.779H447.856C448.606 314.779 449.213 314.172 449.213 313.422V310.671C449.213 309.921 448.606 309.314 447.856 309.314Z" fill="black"/>
<path opacity="0.2" d="M447.856 327.538H305.789C305.04 327.538 304.432 328.146 304.432 328.895V331.647C304.432 332.397 305.04 333.004 305.789 333.004H447.856C448.606 333.004 449.213 332.397 449.213 331.647V328.895C449.213 328.146 448.606 327.538 447.856 327.538Z" fill="black"/>
<path opacity="0.2" d="M447.856 345.763H305.789C305.04 345.763 304.432 346.371 304.432 347.12V349.872C304.432 350.621 305.04 351.229 305.789 351.229H447.856C448.606 351.229 449.213 350.621 449.213 349.872V347.12C449.213 346.371 448.606 345.763 447.856 345.763Z" fill="black"/>
<path opacity="0.2" d="M447.856 363.969H305.789C305.04 363.969 304.432 364.577 304.432 365.326V368.078C304.432 368.827 305.04 369.435 305.789 369.435H447.856C448.606 369.435 449.213 368.827 449.213 368.078V365.326C449.213 364.577 448.606 363.969 447.856 363.969Z" fill="black"/>
<path opacity="0.2" d="M447.856 382.194H305.789C305.04 382.194 304.432 382.802 304.432 383.551V386.303C304.432 387.052 305.04 387.66 305.789 387.66H447.856C448.606 387.66 449.213 387.052 449.213 386.303V383.551C449.213 382.802 448.606 382.194 447.856 382.194Z" fill="black"/>
<path d="M383.739 451.362L383.023 450.966C381.742 450.248 380.298 449.871 378.83 449.871C377.361 449.871 375.917 450.248 374.636 450.966L371.15 452.945L246.893 356.6V515.629C246.898 516.737 247.123 517.833 247.555 518.853C247.987 519.872 248.618 520.796 249.411 521.569C250.204 522.343 251.143 522.951 252.173 523.358C253.203 523.765 254.304 523.963 255.412 523.941H498.234C502.908 523.941 505.094 520.341 505.094 515.629V356.6L383.739 451.362Z" fill="#DB3535"/>
<path opacity="0.6" d="M383.739 451.362L383.023 450.966C381.742 450.248 380.298 449.871 378.83 449.871C377.361 449.871 375.917 450.248 374.636 450.966L371.15 452.945L246.893 356.6V515.629C246.898 516.737 247.123 517.833 247.555 518.853C247.987 519.872 248.618 520.796 249.411 521.569C250.204 522.343 251.143 522.951 252.173 523.358C253.203 523.765 254.304 523.963 255.412 523.941H498.234C502.908 523.941 505.094 520.341 505.094 515.629V356.6L383.739 451.362Z" fill="white"/>
<path opacity="0.2" d="M365.533 448.629L371.15 452.983L283.343 502.832L365.533 448.629Z" fill="black"/>
<path opacity="0.2" d="M479.651 504.717L383.607 451.456L388.036 447.988L479.651 504.717Z" fill="black"/>
<path d="M432.534 106.805H327.614C326.75 106.805 326.049 107.505 326.049 108.369V115.286C326.049 116.15 326.75 116.85 327.614 116.85H432.534C433.398 116.85 434.098 116.15 434.098 115.286V108.369C434.098 107.505 433.398 106.805 432.534 106.805Z" fill="#DB3535"/>
<path d="M519.549 159.576H471.17C469.503 159.571 467.907 158.905 466.731 157.725C465.554 156.545 464.894 154.947 464.894 153.281V153.281C464.894 151.616 465.555 150.02 466.732 148.843C467.909 147.666 469.505 147.005 471.17 147.005H519.549C521.214 147.005 522.81 147.666 523.987 148.843C525.164 150.02 525.825 151.616 525.825 153.281C525.825 154.947 525.165 156.545 523.988 157.725C522.812 158.905 521.215 159.571 519.549 159.576V159.576Z" fill="#DB3535"/>
<path d="M283.343 571.68H234.963V617.534H283.343V571.68Z" fill="#DB3535"/>
<path d="M342.182 571.68H293.802V617.534H342.182V571.68Z" fill="#DB3535"/>
<path d="M401.041 571.68H352.661V617.534H401.041V571.68Z" fill="#DB3535"/>
<path d="M459.899 571.68H411.52V617.534H459.899V571.68Z" fill="#DB3535"/>
<path d="M518.739 571.68H470.359V617.534H518.739V571.68Z" fill="#DB3535"/>
<path d="M519.549 649.894H471.17C469.505 649.894 467.909 649.233 466.732 648.056C465.555 646.879 464.894 645.282 464.894 643.618C464.894 641.952 465.554 640.353 466.731 639.173C467.907 637.993 469.503 637.328 471.17 637.323H519.549C521.215 637.328 522.812 637.993 523.988 639.173C525.165 640.353 525.825 641.952 525.825 643.618V643.618C525.825 645.282 525.164 646.879 523.987 648.056C522.81 649.233 521.214 649.894 519.549 649.894Z" fill="#DB3535"/>
<path opacity="0.1" d="M508.788 43.3478L198.965 484.212V288.903L371.376 43.3478H508.788Z" fill="white"/>
<path opacity="0.1" d="M329.555 43.3477L199.776 228.687V62.8353C199.674 60.3029 200.087 57.7762 200.989 55.408C201.892 53.0397 203.266 50.8793 205.028 49.0575C206.79 47.2357 208.903 45.7903 211.24 44.8089C213.577 43.8275 216.088 43.3304 218.622 43.3477H329.555Z" fill="white"/>
<path d="M632.442 75.2176C549.346 86.9215 438.659 119.903 343.596 161.272C281.74 188.185 173.843 241.767 146.27 298.194C138.015 315.156 137.939 330.874 146.081 344.991C154.223 359.107 173.126 368.926 199.776 375.617V372.526C174.333 366.099 156.202 356.808 148.607 343.596C141.012 330.384 141.068 315.458 148.889 299.438C168.735 258.804 240.146 209.388 344.896 163.854C439.582 122.504 549.987 89.692 632.837 78.0258C633.21 77.9733 633.546 77.775 633.772 77.4746C633.998 77.1742 634.096 76.7962 634.044 76.4238C633.991 76.0514 633.793 75.7151 633.492 75.4889C633.192 75.2627 632.814 75.1651 632.442 75.2176Z" fill="white"/>
<path d="M632.442 75.2176C549.346 86.9215 438.659 119.903 343.596 161.272C281.74 188.185 173.843 241.767 146.27 298.194C138.015 315.156 137.939 330.874 146.081 344.991C154.223 359.107 173.126 368.926 199.776 375.617V372.526C174.333 366.099 156.202 356.808 148.607 343.596C141.012 330.384 141.068 315.458 148.889 299.438C168.735 258.804 240.146 209.388 344.896 163.854C439.582 122.504 549.987 89.692 632.837 78.0258C633.21 77.9733 633.546 77.775 633.772 77.4746C633.998 77.1742 634.096 76.7962 634.044 76.4238C633.991 76.0514 633.793 75.7151 633.492 75.4889C633.192 75.2627 632.814 75.1651 632.442 75.2176Z" fill="#DB3535"/>
<path d="M147.306 345.707C147.057 345.708 146.811 345.642 146.596 345.516C146.38 345.39 146.203 345.209 146.081 344.991C137.939 330.874 138.015 315.118 146.27 298.194C173.843 241.767 281.74 188.185 343.596 161.272C438.659 119.903 549.346 86.9215 632.442 75.2176C632.814 75.1651 633.192 75.2627 633.492 75.4889C633.793 75.7151 633.991 76.0514 634.044 76.4238C634.096 76.7962 633.998 77.1742 633.772 77.4746C633.546 77.775 633.21 77.9733 632.837 78.0258C549.911 89.6919 439.582 122.58 344.726 163.854C240.07 209.388 168.66 258.804 148.889 299.438C141.068 315.458 140.974 330.328 148.607 343.596C148.779 343.917 148.82 344.293 148.722 344.644C148.624 344.996 148.393 345.295 148.079 345.481C147.849 345.63 147.581 345.709 147.306 345.707V345.707Z" fill="#DB3535"/>
<g opacity="0.8">
<path opacity="0.8" d="M147.306 345.707C147.057 345.708 146.811 345.642 146.596 345.516C146.38 345.39 146.203 345.209 146.081 344.991C137.939 330.874 138.015 315.118 146.27 298.194C173.843 241.767 281.74 188.185 343.596 161.272C438.659 119.903 549.346 86.9215 632.442 75.2176C632.814 75.1651 633.192 75.2627 633.492 75.4889C633.793 75.7151 633.991 76.0514 634.044 76.4238C634.096 76.7962 633.998 77.1742 633.772 77.4746C633.546 77.775 633.21 77.9733 632.837 78.0258C549.911 89.6919 439.582 122.58 344.726 163.854C240.07 209.388 168.66 258.804 148.889 299.438C141.068 315.458 140.974 330.328 148.607 343.596C148.779 343.917 148.82 344.293 148.722 344.644C148.624 344.996 148.393 345.295 148.079 345.481C147.849 345.63 147.581 345.709 147.306 345.707V345.707Z" fill="white"/>
</g>
<path d="M671.285 95.1764L751.346 52.7711L681.311 75.8208L671.285 95.1764Z" fill="#DB3535"/>
<path opacity="0.3" d="M671.285 95.1764L751.346 52.7711L681.311 75.8208L671.285 95.1764Z" fill="black"/>
<path d="M652.362 57.6336L667.176 67.8486L671.284 95.1764L681.311 75.8208L706.679 88.58L751.346 52.7711L652.362 57.6336Z" fill="#DB3535"/>
<path opacity="0.6" d="M652.362 57.6336L667.176 67.8486L671.284 95.1764L681.311 75.8208L706.679 88.58L751.346 52.7711L652.362 57.6336Z" fill="white"/>
<path opacity="0.2" d="M667.176 67.8486L751.346 52.7711L681.311 75.8208L671.285 95.1764L667.176 67.8486Z" fill="black"/>
</svg>
