<svg viewBox="0 0 585 619" fill="none" xmlns="http://www.w3.org/2000/svg">
<path d="M584.621 546.783C584.621 546.984 453.762 547.156 292.372 547.156C130.983 547.156 0.0947266 546.984 0.0947266 546.783C0.0947266 546.582 130.925 546.41 292.372 546.41C453.819 546.41 584.621 546.568 584.621 546.783Z" fill="#263238"/>
<path d="M238.3 566.167L238.788 538.463C238.803 537.605 239.108 536.777 239.652 536.113C240.196 535.449 240.948 534.988 241.786 534.804C248.027 533.456 262.805 529.984 272.962 525.12C286.119 518.836 301.886 509.611 313.134 505.034C325.559 499.999 358.844 484.059 365.357 481.85C366.008 481.625 366.708 481.586 367.38 481.735L493.935 508.965C494.143 509.009 494.354 509.038 494.567 509.052C496.618 509.123 508.254 509.812 508.914 515.379C509.545 520.357 508.77 538.879 508.469 545.579C508.434 546.302 508.194 547 507.778 547.592C507.361 548.184 506.785 548.645 506.116 548.922C494.437 553.728 440.536 576.382 427.121 590.098C412.057 605.492 394.424 618.677 387.466 618.993C380.508 619.308 355.472 610.155 348.112 607.845C341.455 605.765 256.75 575.564 240.811 569.883C240.054 569.608 239.403 569.1 238.952 568.433C238.501 567.765 238.273 566.972 238.3 566.167Z" fill="#FFBE9D"/>
<path d="M508.999 515.32C508.999 515.32 467.392 534.23 448.956 542.192C430.52 550.155 417.178 563.555 409.287 571.718C401.396 579.882 397.508 585.348 384.466 585.707C371.425 586.065 332.028 570.298 311.655 562.049C292.014 554.115 250.451 539.768 240.838 536.468C240.608 536.392 240.364 536.37 240.124 536.406C239.884 536.441 239.656 536.532 239.458 536.672C239.26 536.811 239.097 536.995 238.983 537.209C238.869 537.423 238.807 537.66 238.801 537.903L238.701 543.168L238.256 568.878C238.256 568.878 340.794 605.448 348.14 607.758C355.485 610.068 380.521 619.236 387.494 618.906C394.466 618.576 412.084 605.405 427.149 590.011C442.213 574.617 508.382 547.917 508.382 547.917C508.382 547.917 509.716 521.432 508.999 515.32Z" fill="#EB996E"/>
<path d="M311.914 515.406C309.805 515.708 308.313 517.128 308.7 518.448C309.087 519.768 311.311 520.815 313.463 520.686C315.615 520.557 317.38 519.251 317.265 517.917C317.15 516.583 315.142 515.363 312.961 515.335" fill="#EB996E"/>
<path d="M439.473 530.915C437.378 531.217 435.886 532.637 436.273 533.957C436.661 535.277 438.87 536.324 441.036 536.195C443.203 536.066 444.953 534.76 444.824 533.426C444.695 532.092 442.715 530.887 440.52 530.844" fill="#EB996E"/>
<path d="M440.133 525.019C438.927 525.191 438.052 526.009 438.282 526.784C438.511 527.558 439.788 528.147 441.036 528.075C442.285 528.003 443.303 527.243 443.232 526.468C443.16 525.693 442.012 525.033 440.75 525.033" fill="#EB996E"/>
<path d="M413.591 547.902C412.372 548.075 411.511 548.892 411.74 549.667C411.97 550.442 413.247 551.03 414.495 550.944C415.743 550.858 416.747 550.126 416.676 549.351C416.604 548.577 415.456 547.917 414.208 547.917" fill="#EB996E"/>
<path d="M300.665 519.079C299.446 519.251 298.585 520.084 298.814 520.844C299.044 521.604 300.249 522.279 301.555 522.135C302.86 521.992 303.822 521.303 303.75 520.528C303.678 519.754 302.53 519.094 301.268 519.094" fill="#EB996E"/>
<path d="M240.839 536.482L241.585 536.697L243.723 537.4L251.929 540.169C259.103 542.594 269.332 546.138 282.058 550.657C288.385 552.924 295.315 555.435 302.718 558.218C310.121 561.001 317.925 564.258 326.204 567.486C334.482 570.714 343.191 574.057 352.33 577.228C356.892 578.825 361.564 580.336 366.347 581.761C371.165 583.256 376.091 584.379 381.081 585.119C381.703 585.217 382.331 585.265 382.961 585.262C383.592 585.262 384.209 585.348 384.84 585.262L386.734 585.162L388.613 584.946C391.094 584.651 393.513 583.973 395.787 582.938C400.277 580.843 403.649 577.199 406.977 573.67C413.27 566.79 420.107 560.428 427.422 554.646C434.093 549.456 441.385 545.119 449.129 541.733L469.215 532.795L498.325 519.883L506.259 516.411L508.339 515.521L509.042 515.234C509.042 515.234 508.827 515.363 508.368 515.593L506.331 516.54L498.454 520.141L469.33 533.355L449.244 542.379C441.564 545.776 434.335 550.114 427.723 555.291C420.452 561.067 413.654 567.414 407.393 574.272C404.079 577.744 400.65 581.532 395.988 583.713C393.662 584.771 391.191 585.472 388.656 585.793L386.734 585.994L384.811 586.109C384.18 586.109 383.52 586.109 382.874 586.109C382.226 586.111 381.578 586.063 380.938 585.965C375.906 585.208 370.937 584.076 366.074 582.579C361.292 581.144 356.61 579.624 352.028 578.017C342.875 574.832 334.166 571.475 325.888 568.218C317.61 564.961 309.834 561.69 302.445 558.907C295.056 556.123 288.098 553.555 281.828 551.26L251.829 540.542L243.68 537.673L241.556 536.898C241.083 536.597 240.839 536.482 240.839 536.482Z" fill="#263238"/>
<g opacity="0.2">
<path opacity="0.2" d="M278.228 522.465C294.583 531.518 312.072 540.844 330.738 539.811C345.085 539.007 358.356 532.106 371.34 525.865C394.185 514.83 417.789 505.438 441.97 497.76C423.319 493.714 405.371 489.596 386.605 485.852C380.866 484.704 370.823 482.552 367.265 481.648C366.345 481.536 365.413 481.695 364.582 482.107C360.666 483.786 346.232 490.07 341.627 492.15C303.98 509.209 300.293 511.145 278.256 522.436" fill="black"/>
</g>
<path d="M218.328 417.588C217.868 418.765 234.769 481.189 234.769 481.189C234.769 481.189 277.15 491.705 297.236 486.397C317.322 481.088 376.331 460.156 390.291 457.875C404.251 455.594 445.714 456.756 465.972 459.166C486.23 461.576 508.869 461.318 521.624 456.297L521.925 452.868L495.11 400.071C479.613 401.636 463.984 401.347 448.554 399.21C421.955 395.709 386.245 393.629 357.192 405.838C328.14 418.047 313.09 420.816 301.311 422.122C290.249 423.356 226.319 414.762 218.629 414.145L218.328 417.588Z" fill="#DB3535"/>
<path opacity="0.3" d="M218.328 417.588C217.868 418.765 234.769 481.189 234.769 481.189C234.769 481.189 277.15 491.705 297.236 486.397C317.322 481.088 376.331 460.156 390.291 457.875C404.251 455.594 445.714 456.756 465.972 459.166C486.23 461.576 508.869 461.318 521.624 456.297L521.925 452.868L495.11 400.071C479.613 401.636 463.984 401.347 448.554 399.21C421.955 395.709 386.245 393.629 357.192 405.838C328.14 418.047 313.09 420.816 301.311 422.122C290.249 423.356 226.319 414.762 218.629 414.145L218.328 417.588Z" fill="black"/>
<path d="M218.628 414.174C218.169 415.35 235.084 477.774 235.084 477.774C235.084 477.774 277.451 488.291 297.537 482.968C317.623 477.645 376.646 456.727 390.592 454.46C404.537 452.193 446.029 453.327 466.272 455.751C486.516 458.176 509.17 457.889 521.924 452.882L495.411 396.67C479.913 398.236 464.284 397.947 448.855 395.81C422.27 392.295 386.546 390.229 357.493 402.438C328.44 414.647 313.39 417.402 301.612 418.722C289.833 420.042 218.628 414.174 218.628 414.174Z" fill="#DB3535"/>
<path opacity="0.3" d="M521.91 452.896C509.156 457.889 485.942 457.947 465.684 455.522C445.426 453.097 403.992 451.964 390.003 454.231C376.015 456.498 317.049 477.401 296.963 482.753C276.877 488.104 235.773 478.262 235.773 478.262L234.769 481.131L228.686 458.449L229.432 456.67C243.146 455.366 256.947 455.26 270.679 456.354C291.54 458.233 310.062 462.652 321.138 459.726C332.214 456.799 349.617 452.552 358.44 447.416C367.263 442.28 387.808 434.417 408.899 435.709C429.989 437 440.835 439.138 458.195 440.357C475.555 441.577 509.385 433.7 512.484 432.854L521.91 452.896Z" fill="white"/>
<path opacity="0.3" d="M219.662 423.844L220.48 422.524C232.203 427.448 244.881 429.683 257.581 429.066C279.188 428.162 326.863 421.892 329.675 423.485C332.487 425.078 333.606 424.834 327.652 428.707C321.698 432.581 248.342 448.478 226.362 445.12L225.458 446.297L219.662 423.844Z" fill="white"/>
<path opacity="0.3" d="M499.973 406.355C499.973 406.355 477.635 416.713 419.372 411.347C419.372 411.347 381.883 409.913 361.711 421.304C341.539 432.696 315.327 441.089 311.497 443.04C307.666 444.991 298.584 447.344 305.442 448.922C312.3 450.5 342.945 441.476 353.146 435.479C363.347 429.482 369.918 427.56 377.737 425.092C385.556 422.624 407.636 422.222 431.596 424.991C455.555 427.76 487.291 429.912 495.354 425.895C503.417 421.878 506.631 420.486 506.631 420.486L499.973 406.355Z" fill="white"/>
<g opacity="0.8">
<path opacity="0.8" d="M365.657 401.52C365.657 401.52 365.571 401.606 365.356 401.721L364.423 402.237C363.591 402.696 362.372 403.342 360.765 404.145C357.551 405.723 352.86 407.919 346.863 410.2C339.847 412.869 332.656 415.055 325.342 416.742C316.373 418.777 307.259 420.106 298.083 420.716C281.423 421.603 264.719 421.176 248.126 419.439C241.756 418.851 236.649 418.277 233.062 417.89L228.973 417.402L227.911 417.258C227.788 417.249 227.667 417.219 227.553 417.172H227.911L228.987 417.244L233.091 417.603L248.169 418.908C260.895 419.913 278.571 421.261 298.025 419.97C307.159 419.36 316.234 418.056 325.17 416.068C332.475 414.424 339.664 412.301 346.69 409.712C352.673 407.502 357.393 405.408 360.636 403.873C362.257 403.127 363.505 402.524 364.352 402.108L365.327 401.649C365.429 401.588 365.541 401.544 365.657 401.52Z" fill="white"/>
</g>
<g opacity="0.8">
<path opacity="0.8" d="M391.223 397.589C391.223 397.804 387.206 398.048 382.285 398.736C377.364 399.425 373.419 400.243 373.361 400.028C376.202 398.969 379.168 398.284 382.185 397.99C385.166 397.454 388.206 397.319 391.223 397.589Z" fill="white"/>
</g>
<g opacity="0.8">
<path opacity="0.8" d="M477.88 402.28C477.88 402.481 462.098 401.434 442.629 399.942C423.16 398.449 407.422 397.072 407.45 396.843C407.479 396.613 423.232 397.689 442.687 399.195C462.141 400.702 477.894 402.079 477.88 402.28Z" fill="white"/>
</g>
<g opacity="0.8">
<path opacity="0.8" d="M238.715 472.007C238.442 471.499 238.221 470.966 238.055 470.414C237.668 469.381 237.151 467.875 236.534 465.995C235.286 462.251 233.665 457.043 231.972 451.246C230.279 445.45 228.916 440.171 227.983 436.326C227.51 434.417 227.151 432.854 226.922 431.778C226.769 431.22 226.673 430.648 226.635 430.07C226.894 430.589 227.087 431.139 227.209 431.706L228.486 436.196L232.689 451.031L236.993 465.837C237.51 467.616 237.94 469.123 238.285 470.328C238.5 470.867 238.645 471.431 238.715 472.007Z" fill="white"/>
</g>
<g opacity="0.3">
<path opacity="0.3" d="M226.434 416.67C236.936 429.769 235.831 451.103 249.676 460.558C256.347 465.149 264.927 465.694 273.033 465.551C300.408 465.073 327.344 458.593 351.941 446.569C368.44 438.492 383.935 427.918 401.639 423.012C436.388 413.399 473.174 427.129 509.242 425.637L497.234 399.023L226.434 416.67Z" fill="black"/>
</g>
<path d="M224.425 381.52C224.037 382.811 246.835 448.104 246.835 448.104C246.835 448.104 292.846 456.081 313.864 448.879C334.883 441.677 396.245 414.848 410.95 411.405C425.656 407.962 469.988 405.967 491.782 407C513.575 408.033 537.692 406.01 550.92 399.712V396.039L518.281 341.764C501.869 344.621 485.175 345.508 468.554 344.404C439.86 342.697 401.668 343.199 371.597 358.45C341.525 373.701 325.686 377.79 313.233 380.085C301.526 382.252 232.674 377.962 224.425 377.89V381.52Z" fill="#DB3535"/>
<path opacity="0.3" d="M224.425 381.52C224.037 382.811 246.835 448.104 246.835 448.104C246.835 448.104 292.846 456.081 313.864 448.879C334.883 441.677 396.245 414.848 410.95 411.405C425.656 407.962 469.988 405.967 491.782 407C513.575 408.033 537.692 406.01 550.92 399.712V396.039L518.281 341.764C501.869 344.621 485.175 345.508 468.554 344.404C439.86 342.697 401.668 343.199 371.597 358.45C341.525 373.701 325.686 377.79 313.233 380.085C301.526 382.252 232.674 377.962 224.425 377.89V381.52Z" fill="black"/>
<path d="M224.497 377.847C224.096 379.138 246.907 444.432 246.907 444.432C246.907 444.432 292.904 452.409 313.922 445.206C334.941 438.004 396.303 411.175 411.009 407.689C425.714 404.203 470.061 402.251 491.854 403.284C513.647 404.317 537.765 402.294 550.993 395.996L518.411 338.048C501.999 340.906 485.305 341.792 468.684 340.688C439.99 338.981 401.798 339.483 371.727 354.734C341.655 369.985 325.816 374.074 313.363 376.369C300.91 378.665 224.497 377.847 224.497 377.847Z" fill="#DB3535"/>
<path opacity="0.3" d="M550.993 395.996C537.779 402.295 513.016 404.117 491.223 403.084C469.43 402.051 425.098 404.002 410.392 407.488C395.686 410.974 334.353 437.818 313.291 445.02C292.23 452.222 247.682 444.905 247.682 444.905L246.836 448.105L238.601 424.317L239.261 422.366C253.789 419.926 268.503 418.754 283.234 418.865C305.644 419.296 325.744 422.581 337.322 418.621C348.901 414.662 367.164 408.794 376.203 402.624C385.242 396.455 406.533 386.527 429.143 386.283C451.754 386.039 463.462 387.503 482.07 387.474C500.678 387.445 536.158 376.47 539.458 375.336L550.993 395.996Z" fill="white"/>
<path opacity="0.3" d="M226.362 388.077L227.137 386.642C240.015 391.005 253.709 392.422 267.208 390.788C290.164 388.163 340.579 377.876 343.692 379.311C346.806 380.745 347.996 380.458 341.942 385.049C335.887 389.64 258.844 412.194 235.114 410.286L234.253 411.606L226.362 388.077Z" fill="white"/>
<path opacity="0.3" d="M524.02 348.02C524.02 348.02 500.993 360.774 438.425 359.497C438.425 359.497 398.325 360.803 377.68 374.504C357.035 388.206 329.66 399.181 325.758 401.548C321.856 403.916 312.272 407.072 319.761 408.292C327.25 409.511 359.201 397.474 369.631 390.3C380.062 383.127 386.848 380.573 395.054 377.388C403.261 374.203 426.732 372.065 452.442 373.156C478.152 374.246 512.226 374.16 520.533 369.253C528.84 364.347 532.154 362.625 532.154 362.625L524.02 348.02Z" fill="white"/>
<g opacity="0.8">
<path opacity="0.8" d="M380.377 353.127L380.062 353.357L379.1 353.974C378.254 354.519 376.991 355.308 375.341 356.284C372.042 358.22 367.192 360.918 360.994 363.801C353.716 367.182 346.214 370.059 338.541 372.41C329.155 375.259 319.561 377.374 309.847 378.737C289.116 381.606 270.12 381.42 256.462 381.19C249.618 381.061 244.095 380.846 240.279 380.688L235.874 380.487L234.726 380.415H234.339C234.467 380.393 234.598 380.393 234.726 380.415H235.874H240.279L256.476 380.673C270.12 380.774 289.087 380.874 309.747 378.005C319.457 376.662 329.05 374.575 338.441 371.764C346.096 369.449 353.592 366.636 360.88 363.342C367.106 360.473 371.97 357.905 375.313 356.04C376.977 355.121 378.268 354.375 379.143 353.859L380.133 353.299C380.248 353.17 380.363 353.113 380.377 353.127Z" fill="white"/>
</g>
<g opacity="0.8">
<path opacity="0.8" d="M407.335 346.972C407.335 347.188 403.031 347.747 397.895 348.852C392.759 349.957 388.555 351.147 388.483 350.946C394.482 348.513 400.865 347.167 407.335 346.972Z" fill="white"/>
</g>
<g opacity="0.8">
<path opacity="0.8" d="M500.132 345.409C500.132 345.609 483.217 345.681 462.356 345.566C441.495 345.452 424.595 345.193 424.595 344.978C424.595 344.763 441.496 344.706 462.37 344.82C483.245 344.935 500.132 345.15 500.132 345.409Z" fill="white"/>
</g>
<g opacity="0.8">
<path opacity="0.8" d="M250.35 438.004C250.008 437.489 249.729 436.935 249.518 436.354C249.045 435.278 248.37 433.714 247.567 431.749C245.946 427.847 243.808 422.423 241.584 416.369C239.36 410.314 237.481 404.791 236.175 400.759C235.53 398.751 235.028 397.115 234.741 395.982C234.536 395.404 234.387 394.809 234.296 394.203C234.59 394.742 234.83 395.309 235.013 395.896L236.721 400.587L242.33 416.111L248.069 431.562L249.805 436.254C250.043 436.818 250.225 437.405 250.35 438.004Z" fill="white"/>
</g>
<path d="M532.828 268.924C529.657 262.956 523.158 259.47 516.63 257.719C510.102 255.969 503.288 255.61 496.717 254.032C484.134 250.991 473.015 243.559 460.591 239.872C432.055 231.393 402.17 242.885 374.953 254.936C356.848 257.476 343.763 250.79 326.26 245.539C308.756 240.288 289.703 235.984 272.487 242.139C259.575 246.758 248.398 257.088 234.668 257.734C225.242 258.179 214.339 254.291 207.265 260.603C201.254 265.912 202.144 275.969 206.706 282.569C213.65 292.611 226.519 296.715 238.671 297.92C250.823 299.125 263.233 298.063 275.141 300.933C303.247 307.762 323.06 334.806 351.18 341.492C372.701 346.599 395.111 338.794 415.096 329.297C435.082 319.799 454.766 308.307 476.703 305.423C485.54 304.261 494.522 304.534 503.359 303.386C512.197 302.238 521.221 299.484 527.606 293.343C533.99 287.203 537.003 276.801 532.828 268.924Z" fill="#DB3535"/>
<g opacity="0.8">
<path opacity="0.8" d="M532.828 268.924C529.657 262.956 523.158 259.47 516.63 257.719C510.102 255.969 503.288 255.61 496.717 254.032C484.134 250.991 473.015 243.559 460.591 239.872C432.055 231.393 402.17 242.885 374.953 254.936C356.848 257.476 343.763 250.79 326.26 245.539C308.756 240.288 289.703 235.984 272.487 242.139C259.575 246.758 248.398 257.088 234.668 257.734C225.242 258.179 214.339 254.291 207.265 260.603C201.254 265.912 202.144 275.969 206.706 282.569C213.65 292.611 226.519 296.715 238.671 297.92C250.823 299.125 263.233 298.063 275.141 300.933C303.247 307.762 323.06 334.806 351.18 341.492C372.701 346.599 395.111 338.794 415.096 329.297C435.082 319.799 454.766 308.307 476.703 305.423C485.54 304.261 494.522 304.534 503.359 303.386C512.197 302.238 521.221 299.484 527.606 293.343C533.99 287.203 537.003 276.801 532.828 268.924Z" fill="white"/>
</g>
<path d="M422.156 287.116C416.393 276.515 407.748 267.76 397.219 261.865C386.691 255.97 374.709 253.175 362.659 253.803C341.884 255.237 322.387 267.963 312.214 286.04C310.903 288.384 310.556 291.147 311.247 293.742C311.938 296.337 313.613 298.561 315.916 299.943C345.327 317.432 385.14 320.932 415.685 306.227C419.172 304.548 422.859 302.382 424.179 298.766C425.499 295.151 424.05 290.718 422.156 287.116Z" fill="#DB3535"/>
<g opacity="0.3">
<path opacity="0.3" d="M402.213 294.19C399.727 294.083 397.244 294.453 394.896 295.28C379.392 299.333 362.953 297.778 348.484 290.89C344.983 289.197 341.167 286.428 341.31 282.54C341.591 280.647 342.276 278.836 343.319 277.231C344.378 275.62 344.774 273.661 344.423 271.765C343.878 269.943 341.425 268.68 339.976 269.914C335.571 272.066 329.201 277.733 325.973 281.392C322.745 285.05 321.095 290.588 323.319 294.95C324.825 297.934 327.824 299.871 330.808 301.363C344.926 308.45 361.31 308.924 377.106 309.254C386.245 309.44 396.03 309.455 403.634 304.362C405.542 303.07 407.407 301.148 407.292 298.852C407.177 296.557 404.667 294.519 402.213 294.19Z" fill="white"/>
</g>
<g opacity="0.8">
<path opacity="0.8" d="M383.174 331.965C379.889 341.133 344.165 335.05 328.139 324.605C315.356 316.284 305.571 303.472 291.669 297.217C279.273 291.621 265.17 291.937 251.626 290.617C238.083 289.297 220.178 288.02 212.014 277.102C212.014 277.102 208.542 274.319 215.07 273.759C221.598 273.2 217.94 279.383 237.05 282.568C256.16 285.754 271.138 274.075 307.178 302.927C343.218 331.779 357.063 331.09 364.566 330.674C372.07 330.258 384.752 327.561 383.174 331.965Z" fill="white"/>
</g>
<g opacity="0.8">
<path opacity="0.8" d="M216.965 262.196C215.003 262.607 213.131 263.37 211.441 264.448C209.889 265.711 208.581 267.248 207.582 268.982C207.496 268.982 207.582 268.25 208.098 267.217C208.773 265.881 209.757 264.725 210.968 263.846C212.187 262.961 213.598 262.376 215.085 262.138C215.704 261.972 216.358 261.992 216.965 262.196Z" fill="white"/>
</g>
<g opacity="0.8">
<path opacity="0.8" d="M285.643 245.783C283.086 245.496 280.51 245.405 277.939 245.51C275.161 245.718 272.424 246.302 269.804 247.246C266.61 248.445 263.604 250.098 260.88 252.153C257.91 254.262 255.141 256.457 252.372 258.035C249.927 259.505 247.241 260.53 244.439 261.062C242.538 261.42 240.584 261.381 238.7 260.948C238.208 260.829 237.728 260.665 237.265 260.46C236.935 260.331 236.763 260.244 236.777 260.216C236.792 260.187 237.495 260.431 238.8 260.675C240.649 260.972 242.536 260.924 244.367 260.531C247.08 259.94 249.674 258.897 252.042 257.447C254.74 255.84 257.48 253.674 260.464 251.536C263.244 249.444 266.319 247.776 269.589 246.586C272.271 245.656 275.074 245.12 277.91 244.994C279.829 244.898 281.752 245.004 283.649 245.309C284.162 245.382 284.67 245.488 285.17 245.625C285.333 245.66 285.491 245.713 285.643 245.783Z" fill="white"/>
</g>
<g opacity="0.8">
<path opacity="0.8" d="M471.38 272.138C471.38 272.138 470.261 272.31 468.281 272.683C465.475 273.227 462.744 274.103 460.147 275.295C456.299 277.082 452.653 279.275 449.271 281.837C445.412 284.706 441.467 288.164 437.306 291.88C428.956 299.225 420.52 304.921 413.834 307.905C411.224 309.115 408.505 310.075 405.714 310.775C404.724 311.047 403.935 311.148 403.404 311.248C403.143 311.323 402.872 311.357 402.601 311.349C402.601 311.349 403.691 311.047 405.628 310.488C408.372 309.669 411.044 308.627 413.619 307.375C422.027 303.05 429.824 297.627 436.804 291.248C440.965 287.59 444.953 284.075 448.87 281.206C452.302 278.636 456.013 276.461 459.931 274.721C462.581 273.565 465.368 272.755 468.224 272.31C468.999 272.189 469.779 272.107 470.562 272.066C470.837 272.058 471.111 272.082 471.38 272.138Z" fill="white"/>
</g>
<g opacity="0.8">
<path opacity="0.8" d="M520.476 290.187C521.631 289.462 522.733 288.656 523.775 287.776C526.233 285.585 527.771 282.544 528.08 279.266C528.388 275.987 527.445 272.713 525.44 270.101C524.561 269.034 523.601 268.037 522.57 267.117C522.57 267.117 522.958 267.246 523.56 267.662C524.392 268.262 525.14 268.972 525.784 269.771C526.885 271.09 527.715 272.614 528.225 274.255C528.734 275.896 528.914 277.622 528.754 279.333C528.594 281.044 528.097 282.706 527.292 284.224C526.487 285.742 525.389 287.086 524.062 288.178C523.281 288.843 522.412 289.398 521.48 289.828C521.17 290.009 520.83 290.131 520.476 290.187Z" fill="white"/>
</g>
<g opacity="0.8">
<path opacity="0.8" d="M310.277 252.684C300.016 247.011 288.093 245.107 276.576 247.303C269.259 248.738 261.784 252.282 258.384 258.91C257.308 260.919 261.038 261.937 262.831 261.464C264.625 260.991 266.361 259.039 267.925 258.064C275.967 253.096 285.648 251.513 294.854 253.659C299.56 254.778 304.122 256.873 308.957 256.801C310.392 256.801 312.142 256.17 312.099 254.764C312.042 253.803 311.109 253.157 310.277 252.684Z" fill="white"/>
</g>
<g opacity="0.8">
<path opacity="0.8" d="M361.984 257.662C361.244 257.884 360.485 258.033 359.717 258.107C358.985 258.207 358.081 258.351 357.063 258.595C356.044 258.838 354.853 259.011 353.576 259.398C352.299 259.785 350.893 260.13 349.43 260.66C347.967 261.191 346.417 261.78 344.796 262.44C337.815 265.464 331.456 269.76 326.044 275.108C324.825 276.356 323.634 277.533 322.658 278.738C321.693 279.815 320.783 280.94 319.932 282.109C319.1 283.128 318.498 284.161 317.866 284.979C317.235 285.796 316.79 286.614 316.432 287.26C316.066 287.941 315.649 288.594 315.184 289.211C315.458 288.486 315.794 287.785 316.188 287.116C316.586 286.304 317.036 285.518 317.536 284.763C318.11 283.86 318.713 282.812 319.516 281.751C320.346 280.549 321.241 279.395 322.199 278.293C323.175 277.059 324.351 275.854 325.571 274.577C330.999 269.116 337.442 264.769 344.538 261.78C346.188 261.134 347.737 260.488 349.258 260.044C350.636 259.574 352.04 259.181 353.461 258.867C354.753 258.508 355.958 258.351 356.991 258.15C357.882 257.979 358.783 257.859 359.688 257.791C360.449 257.694 361.216 257.651 361.984 257.662Z" fill="white"/>
</g>
<g opacity="0.8">
<path opacity="0.8" d="M375.972 258.379C374.771 258.461 373.565 258.384 372.385 258.15C371.182 258.161 369.983 258.026 368.812 257.748C369.965 257.289 371.224 257.17 372.442 257.404C373.687 257.391 374.91 257.729 375.972 258.379Z" fill="white"/>
</g>
<path d="M247.796 185.052L248.255 158.51C248.268 157.687 248.559 156.892 249.079 156.254C249.6 155.616 250.321 155.172 251.125 154.995C257.107 153.718 271.211 150.375 280.995 145.727C293.606 139.687 308.728 130.863 319.546 126.473C331.439 121.638 363.347 106.387 369.588 104.249C370.211 104.033 370.881 103.993 371.525 104.135L492.786 130.203C492.988 130.253 493.195 130.282 493.403 130.289C495.354 130.361 506.516 131.021 507.176 136.358C507.779 141.136 507.047 158.883 506.746 165.296C506.714 165.99 506.486 166.661 506.087 167.231C505.688 167.8 505.135 168.243 504.493 168.51C493.303 173.115 441.639 194.822 428.784 207.964C414.351 222.727 397.45 235.353 390.779 235.654C384.107 235.955 360.119 227.189 353.075 224.98C346.69 222.971 265.558 194.033 250.221 188.596C249.495 188.336 248.869 187.853 248.434 187.217C247.999 186.58 247.775 185.823 247.796 185.052Z" fill="#FFBE9D"/>
<path d="M507.176 136.329C507.176 136.329 467.392 154.45 449.63 162.082C431.868 169.715 419.186 182.555 411.668 190.375C404.15 198.194 400.377 203.445 387.88 203.789C375.384 204.133 337.666 189.012 318.096 181.121C299.273 173.517 259.431 159.772 250.235 156.616C250.009 156.525 249.764 156.494 249.522 156.524C249.281 156.554 249.051 156.645 248.855 156.789C248.658 156.932 248.501 157.123 248.399 157.344C248.296 157.565 248.252 157.808 248.269 158.051L248.183 163.101L247.753 187.735C247.753 187.735 346.016 222.799 353.074 225.037C360.133 227.275 384.093 236.012 390.778 235.711C397.464 235.41 414.351 222.799 428.784 208.021C443.217 193.244 506.631 167.692 506.631 167.692C506.631 167.692 507.908 142.183 507.176 136.329Z" fill="#EB996E"/>
<path d="M318.341 136.415C316.333 136.702 314.898 138.065 315.271 139.285C315.644 140.504 317.767 141.552 319.833 141.423C321.899 141.293 323.592 140.06 323.478 138.768C323.363 137.477 321.44 136.329 319.36 136.301" fill="#EB996E"/>
<path d="M440.605 151.279C438.583 151.566 437.162 152.929 437.535 154.148C437.908 155.368 440.032 156.415 442.083 156.286C444.135 156.157 445.842 154.851 445.727 153.632C445.613 152.412 443.704 151.193 441.624 151.164" fill="#EB996E"/>
<path d="M441.295 145.626C440.118 145.798 439.301 146.573 439.516 147.319C439.731 148.065 440.951 148.625 442.156 148.553C443.361 148.481 444.322 147.764 444.25 147.018C444.179 146.272 443.088 145.583 441.883 145.583" fill="#EB996E"/>
<path d="M415.742 167.506C414.566 167.678 413.748 168.467 413.963 169.199C414.178 169.93 415.398 170.504 416.589 170.432C417.779 170.361 418.769 169.643 418.698 168.897C418.626 168.151 417.521 167.463 416.316 167.463" fill="#EB996E"/>
<path d="M307.565 139.93C306.389 140.103 305.571 140.892 305.786 141.623C306.002 142.355 307.221 142.929 308.426 142.857C309.631 142.786 310.593 142.068 310.521 141.322C310.449 140.576 309.359 139.887 308.154 139.887" fill="#EB996E"/>
<path d="M250.235 156.616L250.938 156.817L252.99 157.491L260.852 160.131C267.681 162.455 277.538 165.87 289.675 170.174C295.744 172.34 302.387 174.736 309.489 177.347C316.59 179.959 324.051 183.086 331.985 186.214C339.919 189.342 348.269 192.527 357.02 195.554C361.391 197.084 365.872 198.519 370.463 199.858C375.08 201.29 379.8 202.364 384.581 203.072C385.178 203.169 385.783 203.217 386.389 203.215C386.991 203.215 387.579 203.301 388.182 203.215L390.004 203.115L391.797 202.914C394.152 202.614 396.448 201.966 398.612 200.991C402.916 198.983 406.144 195.439 409.33 192.111C415.358 185.512 421.912 179.414 428.928 173.876C435.338 168.992 442.331 164.924 449.745 161.767L468.999 153.158L496.904 140.806L504.508 137.477L506.502 136.631L507.176 136.358L506.531 136.702L504.579 137.606L497.033 141.064L469.214 153.646L449.989 162.254C442.622 165.494 435.687 169.639 429.344 174.593C422.372 180.125 415.857 186.209 409.86 192.785C406.69 196.113 403.404 199.743 398.928 201.838C396.697 202.847 394.327 203.514 391.898 203.818L390.061 204.033L388.211 204.133C387.594 204.133 386.977 204.133 386.346 204.133C385.726 204.136 385.107 204.088 384.495 203.99C379.669 203.279 374.906 202.195 370.248 200.747C365.657 199.37 361.171 197.935 356.791 196.443C348.025 193.402 339.675 190.174 331.741 187.06C323.807 183.947 316.346 180.805 309.259 178.122C302.172 175.439 295.558 173 289.503 170.805L260.809 160.518L252.99 157.749L250.953 157.003L250.235 156.616Z" fill="#263238"/>
<g opacity="0.3">
<path opacity="0.3" d="M408.167 118.195C394.437 115.325 380.377 112.298 366.475 114.221C352.816 116.1 340.263 122.542 328.111 129.07C314.806 136.215 301.626 143.589 288.57 151.193C288.018 151.516 287.541 151.952 287.169 152.473C286.797 152.993 286.539 153.586 286.411 154.213C286.284 154.84 286.29 155.486 286.43 156.111C286.57 156.735 286.839 157.323 287.222 157.836C294.998 164.65 304.783 163.302 314.323 159.27C324.467 155.052 332.3 146.86 340.88 140.017C349.459 133.173 360.105 127.319 370.937 129.156C376.518 130.117 381.553 133.03 386.948 134.723C392.83 136.573 399.057 136.932 405.212 137.276L437.851 139.127C439.073 139.225 440.292 138.901 441.305 138.21C442.318 137.518 443.063 136.501 443.417 135.327C443.771 134.153 443.712 132.893 443.25 131.757C442.788 130.622 441.951 129.678 440.878 129.084C431.252 123.403 419.358 120.576 408.167 118.195Z" fill="white"/>
</g>
<path d="M376.002 155.569C376.353 156.975 376.455 158.432 376.303 159.873C376.395 161.322 376.245 162.777 375.858 164.177C375.517 162.769 375.415 161.314 375.557 159.873C375.465 158.423 375.615 156.969 376.002 155.569Z" fill="#263238"/>
<path d="M376.647 119.343C376.963 122.354 377.035 125.387 376.862 128.41C376.931 131.432 376.754 134.455 376.331 137.448C375.998 134.443 375.926 131.414 376.116 128.396C376.039 125.368 376.216 122.34 376.647 119.343Z" fill="#263238"/>
<path d="M377.107 92.6283C377.45 94.0355 377.552 95.491 377.408 96.9324C377.5 98.3819 377.35 99.8365 376.963 101.237C376.612 99.8304 376.51 98.3737 376.662 96.9324C376.567 95.4829 376.717 94.0278 377.107 92.6283Z" fill="#263238"/>
<path d="M369.202 353.371C368.852 351.965 368.75 350.508 368.9 349.067C368.807 347.618 368.958 346.163 369.345 344.763C369.697 346.169 369.799 347.626 369.646 349.067C369.739 350.516 369.588 351.971 369.202 353.371Z" fill="#263238"/>
<path d="M368.786 377.115C368.45 375.154 368.359 373.159 368.513 371.176C368.428 369.184 368.587 367.189 368.987 365.236C369.33 367.201 369.422 369.202 369.259 371.19C369.344 373.177 369.185 375.167 368.786 377.115Z" fill="#263238"/>
<path d="M368.398 397.589C368.053 396.182 367.951 394.726 368.097 393.285C368.004 391.835 368.155 390.38 368.541 388.98C368.891 390.387 368.993 391.843 368.843 393.285C368.938 394.734 368.787 396.189 368.398 397.589Z" fill="#263238"/>
<path d="M370.836 472.767C370.401 469.909 370.454 466.999 370.994 464.159C371.335 465.566 371.437 467.021 371.295 468.463C371.398 469.913 371.243 471.371 370.836 472.767Z" fill="#263238"/>
<path d="M370.349 501.49C370.007 499.115 369.92 496.71 370.091 494.316C370.015 491.914 370.183 489.511 370.593 487.143C370.918 489.52 371 491.923 370.837 494.316C370.914 496.718 370.75 499.121 370.349 501.49Z" fill="#263238"/>
<path d="M369.948 524.459C369.598 523.053 369.496 521.597 369.646 520.155C369.554 518.706 369.704 517.251 370.091 515.851C370.435 517.258 370.537 518.714 370.393 520.155C370.485 521.605 370.334 523.059 369.948 524.459Z" fill="#263238"/>
<path d="M375.915 233.157C375.749 236.114 375.821 239.079 376.131 242.024C376.53 239.086 376.707 236.122 376.661 233.157H375.915Z" fill="#263238"/>
<path d="M434.767 15.427C430.969 17.5313 426.709 18.6616 422.368 18.7167C418.026 18.7718 413.739 17.7499 409.889 15.7426C406.36 13.8488 403.261 11.1372 399.488 9.78857C396.292 8.81485 392.889 8.74443 389.655 9.5851C386.421 10.4258 383.484 12.1448 381.167 14.5518L380.679 42.9015C384.065 37.5931 389.976 33.5903 396.231 34.2933C401.109 34.8241 405.513 37.4353 410.32 38.3535C413.529 38.9582 416.835 38.7957 419.969 37.8794C423.104 36.9631 425.977 35.3189 428.355 33.0809C430.733 30.8429 432.548 28.0745 433.652 25.0015C434.757 21.9285 435.119 18.6379 434.71 15.3983L434.767 15.427Z" fill="#DB3535"/>
<path d="M381.411 0.606454C381.626 0.606454 381.411 18.8846 380.909 41.4381C380.406 63.9916 379.847 82.2554 379.646 82.2554C379.445 82.2554 379.646 63.9773 380.163 41.4237C380.679 18.8702 381.21 0.592107 381.411 0.606454Z" fill="#263238"/>
<path d="M394.782 18.1099C394.997 18.1099 395.155 21.6105 395.643 25.9003C396.13 30.1901 396.762 33.6333 396.546 33.6764C395.629 31.201 395.073 28.6062 394.897 25.972C394.49 23.3697 394.451 20.723 394.782 18.1099Z" fill="#263238"/>
<path d="M406.804 20.9363L408.009 23.49L410.792 23.9348L408.741 25.8717L409.171 28.655L406.689 27.3064L404.178 28.5689L404.709 25.7999L402.715 23.7913L405.512 23.447L406.804 20.9363Z" fill="white"/>
<path d="M62.9639 433.384C62.9639 433.384 65.0298 479.381 66.7515 494.818C68.4731 510.256 83.1788 576.396 83.1788 576.396L105.962 578.06L99.3479 439.181L62.9639 433.384Z" fill="#FFBE9D"/>
<path d="M137.195 439.224C137.195 439.224 131.456 475.536 127.009 493.742C122.561 511.949 102.777 566.223 102.777 566.223L88.7021 515.091L99.3476 439.238L137.195 439.224Z" fill="#FFBE9D"/>
<path d="M101.012 447.703C101.03 447.817 101.03 447.933 101.012 448.047C101.012 448.305 101.012 448.635 101.012 449.023C101.012 449.955 101.012 451.203 101.141 452.796C101.255 456.139 101.413 460.859 101.6 466.655C102.016 478.362 102.733 494.531 103.537 512.394C104.34 530.256 104.971 546.425 105.244 558.146C105.402 564 105.459 568.749 105.473 572.02C105.473 573.612 105.473 574.889 105.473 575.793C105.473 576.195 105.473 576.51 105.473 576.783C105.486 576.893 105.486 577.003 105.473 577.113C105.456 577.004 105.456 576.892 105.473 576.783V575.793C105.473 574.875 105.402 573.612 105.344 572.034C105.244 568.691 105.086 563.971 104.885 558.161C104.484 546.453 103.752 530.284 102.963 512.422C102.174 494.56 101.528 478.391 101.241 466.67C101.098 460.816 101.04 456.081 101.026 452.796C101.026 451.203 101.026 449.927 101.026 449.023V448.047C101.003 447.934 100.998 447.818 101.012 447.703Z" fill="#EB996E"/>
<path d="M82.1028 571.919C82.1028 571.919 100.08 579.724 105.618 568.519L108.587 572.823L124.498 604.057C125.018 605.039 125.159 606.177 124.894 607.256C124.63 608.335 123.978 609.28 123.064 609.91C122.367 610.378 121.55 610.636 120.711 610.654C119.872 610.671 119.045 610.448 118.329 610.011C110.61 605.233 82.2893 587.572 81.8732 584.444L80.252 576.281C80.0971 575.462 80.189 574.616 80.5159 573.85C80.8429 573.083 81.3902 572.431 82.0884 571.977L82.1028 571.919Z" fill="#DB3535"/>
<g opacity="0.6">
<path opacity="0.6" d="M122.361 610.298L81.2852 581.604L81.6582 583.383C81.9021 585.348 82.9064 585.936 84.0828 586.969C87.5692 590.068 96.8086 596.668 118.214 610.025C118.83 610.407 119.532 610.63 120.255 610.676C120.979 610.721 121.702 610.586 122.361 610.283V610.298Z" fill="white"/>
</g>
<g opacity="0.6">
<path opacity="0.6" d="M85.0724 575.277C85.6703 575.548 86.1472 576.03 86.4119 576.631C86.6766 577.232 86.7105 577.909 86.5071 578.533C86.2577 579.136 85.7874 579.62 85.1925 579.887C84.5977 580.153 83.9233 580.182 83.3077 579.968C82.6818 579.674 82.1832 579.163 81.9038 578.531C81.6244 577.898 81.5829 577.186 81.7869 576.525C82.1084 575.918 82.6528 575.459 83.3057 575.245C83.9586 575.031 84.669 575.078 85.2876 575.377" fill="white"/>
</g>
<path d="M108.832 594.028C109.09 594.028 109.564 591.69 111.816 589.982C114.069 588.275 116.45 588.289 116.436 588.017C116.422 587.744 115.862 587.687 114.844 587.758C113.526 587.882 112.272 588.38 111.228 589.193C110.176 590.009 109.387 591.117 108.961 592.378C108.717 593.383 108.717 594.014 108.832 594.028Z" fill="#263238"/>
<path d="M113.021 599.007C113.264 599.15 114.326 597.486 116.349 596.41C118.372 595.334 120.323 595.276 120.338 594.975C120.352 594.674 118.2 594.286 115.904 595.563C113.609 596.84 112.791 598.935 113.021 599.007Z" fill="#263238"/>
<path d="M101.715 588.017C101.959 588.175 103.566 585.635 106.593 583.713C109.62 581.79 112.547 581.216 112.504 580.929C112.461 580.642 109.276 580.772 106.062 582.938C102.849 585.104 101.543 587.945 101.715 588.017Z" fill="#263238"/>
<path d="M98.8463 578.074C99.0184 578.304 101.127 576.84 104.126 576.08C107.124 575.32 109.664 575.535 109.693 575.262C109.721 574.99 107.096 574.33 103.882 575.176C100.668 576.023 98.6741 577.916 98.8463 578.074Z" fill="#263238"/>
<path d="M105.847 575.635C105.776 575.093 105.585 574.574 105.288 574.114C104.567 572.789 103.592 571.619 102.418 570.671C101.647 569.889 100.638 569.384 99.5488 569.236C99.1858 569.226 98.8284 569.328 98.5254 569.528C98.2224 569.729 97.9886 570.017 97.8559 570.356C97.6475 571.031 97.6882 571.759 97.9707 572.407C98.6123 573.689 99.6763 574.709 100.983 575.297C102.29 575.886 103.76 576.005 105.144 575.635C106.514 575.227 107.731 574.419 108.638 573.315C109.546 572.211 110.102 570.86 110.237 569.437C110.271 569.079 110.227 568.719 110.108 568.379C109.989 568.04 109.798 567.731 109.549 567.472C109.271 567.235 108.925 567.093 108.561 567.067C108.197 567.041 107.834 567.133 107.526 567.328C106.64 567.948 105.933 568.789 105.474 569.767C104.753 571.068 104.267 572.487 104.039 573.957C103.937 574.497 103.937 575.052 104.039 575.592C104.454 573.671 105.145 571.82 106.091 570.097C106.527 569.266 107.157 568.553 107.927 568.017C108.094 567.907 108.293 567.855 108.492 567.868C108.691 567.881 108.881 567.958 109.032 568.089C109.184 568.27 109.297 568.481 109.363 568.708C109.43 568.935 109.449 569.174 109.42 569.409C109.262 570.634 108.754 571.787 107.958 572.731C107.161 573.675 106.11 574.369 104.929 574.731C103.75 575.052 102.497 574.965 101.374 574.483C100.251 574.001 99.3248 573.153 98.7454 572.077C98.5365 571.629 98.4908 571.121 98.6163 570.642C98.681 570.452 98.8053 570.288 98.9707 570.175C99.1362 570.061 99.3339 570.004 99.5345 570.011C100.453 570.129 101.314 570.524 102.002 571.145C103.542 572.4 104.844 573.921 105.847 575.635Z" fill="#263238"/>
<path d="M88.6313 89.6727C89.5936 86.1458 91.6035 82.9939 94.3954 80.6335C97.1872 78.2732 100.63 76.8156 104.267 76.4534C107.905 76.0912 111.568 76.8413 114.77 78.6048C117.972 80.3682 120.564 83.0619 122.203 86.3299C125.274 92.4417 125.073 100.476 130.266 104.981C133.839 108.008 139.118 108.453 142.605 111.595C149.979 118.223 145.331 132.556 153.164 138.639C148.092 142.596 142.16 145.304 135.847 146.544C135.44 144.379 134.402 142.383 132.863 140.806C134.14 144.478 132.031 148.653 128.875 150.92C125.718 153.187 121.773 153.976 117.928 154.579C108.688 156.013 99.1333 156.774 90.0373 154.579C80.9413 152.384 72.2757 146.86 68.1294 138.467C67.082 136.329 66.293 133.991 64.557 132.355C62.821 130.72 60.0377 129.974 57.7134 128.883C54.5278 127.324 51.8746 124.858 50.0875 121.794C48.3005 118.731 47.4595 115.207 47.6705 111.667C53.7393 111.408 58.0147 105.655 60.5828 100.189C63.151 94.7229 65.2313 88.4676 70.2814 85.096C71.9644 83.9759 73.8806 83.2542 75.8843 82.9857C77.8881 82.7173 79.9267 82.9092 81.8452 83.5468C83.7636 84.1845 85.5115 85.2511 86.9559 86.6656C88.4003 88.0801 89.5032 89.8053 90.1808 91.71" fill="#263238"/>
<path d="M124.857 109.142C124.168 99.6868 113.867 90.3326 104.441 91.423L73.8818 97.5635L74.0397 102.671L76.7369 177.649L100.381 200.604L110.596 177.649V158.352C110.596 158.352 122.676 156.214 124.943 140.404C126.162 132.527 125.632 119.658 124.857 109.142Z" fill="#FFBE9D"/>
<path d="M119.004 121.595C119.012 122.123 118.815 122.634 118.453 123.019C118.092 123.405 117.595 123.635 117.067 123.661C116.81 123.682 116.552 123.652 116.307 123.573C116.062 123.493 115.835 123.365 115.64 123.197C115.445 123.029 115.286 122.823 115.171 122.592C115.056 122.362 114.989 122.11 114.973 121.853C114.957 121.325 115.15 120.812 115.51 120.426C115.87 120.039 116.367 119.81 116.895 119.787C117.153 119.764 117.413 119.792 117.66 119.871C117.906 119.95 118.135 120.077 118.332 120.245C118.528 120.414 118.689 120.62 118.804 120.852C118.92 121.084 118.988 121.336 119.004 121.595Z" fill="#263238"/>
<path d="M121.629 115.856C121.371 116.129 119.836 115.01 117.655 115.038C115.474 115.067 113.882 116.172 113.652 115.913C113.423 115.655 113.781 115.311 114.47 114.794C115.407 114.136 116.524 113.781 117.669 113.776C118.806 113.751 119.92 114.099 120.84 114.766C121.486 115.297 121.715 115.77 121.629 115.856Z" fill="#263238"/>
<path d="M98.9321 121.595C98.9402 122.123 98.7427 122.634 98.3813 123.019C98.02 123.405 97.523 123.635 96.9953 123.661C96.7377 123.682 96.4785 123.653 96.2326 123.573C95.9867 123.494 95.759 123.366 95.5628 123.198C95.3666 123.03 95.2058 122.824 95.0896 122.593C94.9735 122.363 94.9043 122.111 94.8862 121.853C94.8745 121.324 95.0708 120.811 95.4329 120.425C95.795 120.038 96.2941 119.81 96.8231 119.787C97.081 119.764 97.341 119.792 97.5877 119.871C97.8345 119.95 98.0629 120.077 98.2595 120.245C98.4562 120.414 98.617 120.62 98.7325 120.852C98.848 121.084 98.9159 121.336 98.9321 121.595Z" fill="#263238"/>
<path d="M100.181 116.516C99.9367 116.789 98.3872 115.67 96.2064 115.698C94.0257 115.727 92.4475 116.832 92.2036 116.573C91.9597 116.315 92.3327 115.971 93.0357 115.454C93.9676 114.785 95.0878 114.428 96.2351 114.436C97.3645 114.415 98.4708 114.757 99.3915 115.411C100.109 115.928 100.31 116.401 100.181 116.516Z" fill="#263238"/>
<path d="M108.257 132.599C109.399 132.222 110.586 131.996 111.786 131.925C112.346 131.925 112.877 131.738 112.963 131.365C113.003 130.789 112.868 130.214 112.575 129.715C112.03 128.381 111.471 126.975 110.882 125.497C108.53 119.486 106.822 114.551 107.066 114.45C107.31 114.35 109.419 119.156 111.758 125.167C112.332 126.602 112.862 128.037 113.379 129.472C113.735 130.139 113.847 130.911 113.694 131.652C113.613 131.847 113.49 132.021 113.334 132.162C113.178 132.303 112.992 132.408 112.791 132.47C112.483 132.561 112.164 132.609 111.844 132.613C110.652 132.756 109.447 132.751 108.257 132.599Z" fill="#263238"/>
<path d="M110.567 158.395C102.961 158.587 95.4463 156.702 88.8311 152.943C88.8311 152.943 94.2829 163.947 110.595 162.326L110.567 158.395Z" fill="#EB996E"/>
<path d="M107.397 137.864C106.975 137.346 106.429 136.942 105.81 136.691C105.19 136.44 104.517 136.35 103.853 136.43C103.374 136.479 102.909 136.626 102.487 136.86C102.066 137.094 101.696 137.412 101.4 137.793C101.11 138.158 100.941 138.603 100.916 139.068C100.89 139.533 101.009 139.995 101.256 140.389C101.61 140.78 102.072 141.055 102.585 141.178C103.097 141.301 103.634 141.266 104.126 141.078C105.151 140.702 106.092 140.126 106.895 139.385C107.139 139.211 107.348 138.991 107.512 138.74C107.593 138.619 107.637 138.476 107.637 138.331C107.637 138.185 107.593 138.043 107.512 137.922" fill="#EB996E"/>
<path d="M101.859 134.177C102.217 134.177 102.246 136.516 104.283 138.166C106.321 139.816 108.846 139.6 108.86 139.873C108.874 140.146 108.315 140.332 107.239 140.375C105.855 140.406 104.504 139.949 103.423 139.084C102.382 138.259 101.707 137.059 101.543 135.741C101.443 134.751 101.701 134.163 101.859 134.177Z" fill="#263238"/>
<path d="M100.611 110.361C100.395 110.949 98.2147 110.691 95.6609 111.035C93.1071 111.38 91.0555 112.083 90.7112 111.552C90.5534 111.308 90.912 110.748 91.7298 110.117C92.8334 109.395 94.0917 108.943 95.4027 108.797C96.7086 108.622 98.0375 108.765 99.2764 109.213C100.223 109.615 100.697 110.117 100.611 110.361Z" fill="#263238"/>
<path d="M121.457 108.424C121.07 108.912 119.563 108.424 117.756 108.424C115.948 108.424 114.427 108.797 114.068 108.281C113.925 108.037 114.154 107.535 114.814 107.061C115.704 106.49 116.744 106.196 117.802 106.216C118.859 106.236 119.887 106.571 120.754 107.176C121.4 107.664 121.629 108.18 121.457 108.424Z" fill="#263238"/>
<path d="M103.954 92.0831C103.668 95.3957 102.406 98.549 100.327 101.144C98.248 103.739 95.4459 105.658 92.2753 106.66C89.7359 107.406 86.5365 107.937 85.6757 110.433C84.8149 112.929 87.1104 115.469 88.2582 117.979C88.905 119.54 89.0785 121.256 88.7571 122.914C88.4356 124.572 87.6334 126.099 86.4504 127.305C85.0157 128.639 83.2797 129.486 81.9885 130.906C81.1598 131.869 80.5581 133.006 80.2278 134.233C79.8975 135.459 79.8471 136.745 80.0804 137.994C80.5703 140.502 81.8407 142.792 83.7102 144.536C77.7418 144.751 71.2569 141.58 69.3631 135.928C68.2728 132.542 68.9471 128.869 69.4923 125.354C70.7081 117.327 71.1883 109.207 70.927 101.093C70.732 99.7193 70.9888 98.3195 71.6586 97.1045C72.5722 96.0881 73.7994 95.4064 75.145 95.1677C83.618 92.715 92.2454 90.8314 100.97 89.5293" fill="#263238"/>
<path d="M100.468 89.7158C101.922 92.866 103.858 95.7702 106.207 98.324C107.388 99.5852 108.843 100.558 110.46 101.168C112.077 101.777 113.812 102.007 115.532 101.839L113.767 98.7257C118.485 103.768 124.195 107.779 130.539 110.505C127.512 104.508 124.384 98.3814 119.435 93.8477C114.485 89.3141 107.254 86.6742 100.927 88.8837" fill="#263238"/>
<path d="M207.955 205.181C207.955 205.181 213.464 198.739 215.774 198.466C218.084 198.194 220.279 199.829 222.876 200.374C225.473 200.92 237.754 201.192 238.17 201.809C238.477 202.344 238.709 202.918 238.859 203.516C238.859 203.516 252.373 204.377 253.736 205.181C254.547 205.654 255.242 206.301 255.774 207.075C255.774 207.075 260.551 207.347 261.513 208.509C261.513 208.509 264.655 208.782 264.784 210.417C264.784 210.417 239.074 213.975 236.377 213.832C232.207 213.186 228.075 212.324 223.995 211.25L221.126 212.469L220.279 215.338L207.955 205.181Z" fill="#FFBE9D"/>
<path d="M241.14 203.932C238.032 203.972 234.929 203.674 231.886 203.043C228.8 202.645 225.765 201.919 222.833 200.876C225.912 201.192 228.972 201.671 232.001 202.311C235.073 202.691 238.124 203.232 241.14 203.932Z" fill="#EB996E"/>
<path d="M255.731 207.074C252.518 207.81 249.241 208.228 245.946 208.323C242.672 208.677 239.371 208.716 236.09 208.437C239.342 207.97 242.619 207.687 245.903 207.591C249.168 207.244 252.448 207.072 255.731 207.074Z" fill="#EB996E"/>
<path d="M261.34 208.567C261.34 208.567 261.484 208.567 261.613 208.71C261.694 208.848 261.727 209.009 261.706 209.167C261.685 209.326 261.612 209.473 261.498 209.585C261.132 209.872 260.671 210.01 260.207 209.973L258.528 210.073C256.046 210.202 252.617 210.317 248.83 210.403C245.042 210.489 241.656 210.532 239.131 210.518C237.785 210.582 236.436 210.524 235.1 210.346C236.425 210.105 237.77 209.985 239.117 209.987C241.599 209.858 245.028 209.743 248.815 209.657C252.603 209.571 255.989 209.528 258.514 209.542H260.193C260.576 209.612 260.972 209.546 261.312 209.356C261.392 209.283 261.45 209.189 261.48 209.086C261.511 208.982 261.512 208.872 261.484 208.767C261.426 208.638 261.326 208.595 261.34 208.567Z" fill="#EB996E"/>
<path d="M52.2179 330.975C52.2179 330.975 46.0917 355.265 48.1864 368.995C50.2811 382.725 58.5019 458.908 58.5019 458.908L66.4358 459.281L140.05 462.681C140.05 462.681 151.628 394.389 156.205 374.476C160.782 354.562 152.532 330.975 152.532 330.975L110.668 311.349L52.2179 330.975Z" fill="#455A64"/>
<path d="M73.3514 159.801L67.4117 170.145L40.1523 182.039L50.6974 232.254L66.2496 277.619L43.6961 354.318L159.907 364.633C159.907 364.633 148.157 290.947 143.867 276.112L139.965 237.49L138.243 175.066L113.207 167.606L110.151 163.029L98.7599 196.788L73.3514 159.801Z" fill="#455A64"/>
<path d="M6.73814 275.208C6.73814 275.208 -0.679271 264.29 0.884555 256.557C2.44838 248.824 33.6532 188.28 33.6532 188.28L40.095 182.111L42.8496 187.433L50.64 232.383L29.2917 261.077L57.9857 285.782C57.9857 287.346 47.6128 307.145 47.6128 307.145C47.6128 307.145 7.12551 280.287 6.73814 275.208Z" fill="#455A64"/>
<path d="M9.92285 264.922C10.6686 264.248 11.5222 263.705 12.4479 263.315C16.7962 261.131 21.6332 260.103 26.4937 260.33C27.4968 260.312 28.4959 260.462 29.4492 260.775C26.0832 260.792 22.7243 261.084 19.4062 261.65C16.1591 262.473 12.9868 263.567 9.92285 264.922Z" fill="#263238"/>
<path d="M29.4496 260.761C29.3061 260.991 24.9303 257.447 18.5602 255.022C14.6823 253.679 10.6451 252.849 6.55176 252.554C7.75163 252.316 8.98215 252.272 10.1959 252.425C13.1425 252.632 16.0427 253.27 18.8041 254.319C21.5632 255.364 24.1842 256.742 26.6089 258.422C27.6593 259.067 28.6152 259.854 29.4496 260.761Z" fill="#263238"/>
<path d="M138.215 175.066C142.359 180.621 146.191 186.402 149.693 192.383C155.116 201.709 170.754 235.424 170.754 235.424L204.843 202.914L223.494 216.744C223.494 216.744 181.07 268.035 173.279 270.531C165.489 273.028 161.802 268.351 161.802 268.351L140.181 239.513L136.737 199.858L138.215 175.066Z" fill="#455A64"/>
<path d="M144.757 279.254C144.697 279.153 144.644 279.048 144.599 278.939L144.198 277.963C143.853 277.102 143.38 275.811 142.763 274.19C141.328 270.947 139.262 266.299 136.35 260.718C130.611 249.484 121.831 234.42 111.644 218.093C101.458 201.766 91.831 187.233 84.7866 176.759C81.2715 171.58 78.4308 167.362 76.4079 164.392L74.1554 161.006L73.5815 160.117C73.4524 159.916 73.395 159.815 73.4094 159.801C73.4911 159.887 73.5677 159.978 73.6389 160.074L74.2702 160.92L76.6518 164.22C78.7178 167.089 81.6302 171.279 85.26 176.458C92.4335 186.86 102.103 201.364 112.319 217.691C122.534 234.018 131.228 249.169 136.866 260.474C139.736 266.098 141.744 270.804 143.079 274.075C143.71 275.725 144.14 277.031 144.513 277.906L144.843 278.91C144.833 279.029 144.804 279.145 144.757 279.254Z" fill="#263238"/>
<path d="M38.6751 204.248C38.8616 204.176 43.3379 214.721 48.718 227.806C54.0982 240.89 58.2014 251.565 58.0005 251.651C57.7997 251.737 53.3521 241.177 47.9576 228.093C42.5631 215.008 38.4886 204.32 38.6751 204.248Z" fill="#263238"/>
<path d="M135.546 187.692C135.761 187.692 137.066 199.886 138.415 214.951C139.764 230.015 140.797 242.21 140.596 242.296C140.395 242.382 139.075 230.101 137.726 215.037C136.378 199.973 135.345 187.706 135.546 187.692Z" fill="#263238"/>
<path d="M159.879 364.633C159.49 364.698 159.096 364.722 158.702 364.705C157.928 364.705 156.78 364.705 155.316 364.705C152.447 364.705 148.143 364.533 142.878 364.131L124.499 362.625L113.653 361.692L101.974 360.946C85.9773 359.956 71.5012 358.665 61.1139 357.058C55.906 356.298 51.731 355.48 48.8472 354.906L45.5904 354.16C45.2042 354.088 44.8249 353.983 44.457 353.844C44.8386 353.874 45.2174 353.931 45.5904 354.017L48.919 354.619C51.7884 355.107 55.992 355.839 61.2 356.542C71.5873 357.976 86.0491 359.21 102.046 360.2L113.71 360.961L124.571 361.951L142.935 363.643C148.157 364.103 152.404 364.332 155.331 364.447L158.717 364.562C159.105 364.555 159.494 364.579 159.879 364.633Z" fill="#263238"/>
<path d="M121.629 208.567C120.648 209.411 119.586 210.156 118.458 210.79C116.45 212.067 113.623 213.775 110.467 215.568C107.311 217.361 104.384 218.911 102.246 219.972C101.133 220.63 99.9491 221.16 98.7168 221.551C99.7523 220.78 100.851 220.098 102.002 219.513L110.094 214.922L118.186 210.331C119.277 209.638 120.429 209.047 121.629 208.567Z" fill="#263238"/>
<path d="M126.479 219.729C125.539 220.471 124.513 221.097 123.423 221.594C121.486 222.641 118.76 224.018 115.704 225.41C112.648 226.802 109.808 227.949 107.742 228.71C106.65 229.202 105.504 229.563 104.327 229.786C105.344 229.159 106.42 228.635 107.541 228.222L115.389 224.721L123.193 221.12C124.242 220.554 125.342 220.088 126.479 219.729Z" fill="#263238"/>
<path d="M108.172 433.198C108.064 432.447 108.016 431.689 108.029 430.931C108.029 429.496 107.914 427.359 107.799 424.747C107.555 419.525 107.01 412.323 105.905 404.432C104.8 396.541 103.294 389.483 102.075 384.346C101.458 381.807 100.955 379.755 100.64 378.335C100.412 377.609 100.244 376.865 100.138 376.111C100.465 376.797 100.725 377.513 100.912 378.249C101.372 379.684 101.96 381.678 102.634 384.217C104.388 390.825 105.743 397.533 106.694 404.303C107.65 411.06 108.215 417.868 108.387 424.69C108.387 427.316 108.387 429.439 108.387 430.902C108.387 431.673 108.315 432.441 108.172 433.198Z" fill="#263238"/>
<g opacity="0.3">
<path opacity="0.3" d="M58.3301 307.001C59.5697 307.14 60.8243 306.973 61.9847 306.515C63.145 306.058 64.1757 305.323 64.9871 304.376C66.7374 302.611 68.0287 300.43 69.8077 298.637C72.3404 296.483 75.1603 294.692 78.1864 293.314C81.2312 291.94 83.8484 289.769 85.7616 287.03C87.4689 284.161 87.555 280.115 85.1303 277.848C82.2609 275.122 77.4403 276.198 73.954 278.149C69.0899 280.951 65.0813 285.026 62.3588 289.935C59.6364 294.844 58.3031 300.402 58.5022 306.011" fill="black"/>
</g>
<path d="M57.5983 286.873L70.9697 271.091L82.2895 269.441C82.5567 270.107 82.5567 270.85 82.2894 271.515C82.0221 272.181 81.5082 272.717 80.8548 273.013C79.0184 274.032 73.2222 274.548 73.2222 274.548L69.7072 278.766L75.116 276.012L85.6467 274.993C85.6467 274.993 86.5362 277.863 84.212 278.766C84.212 278.766 83.1934 282.023 81.5865 283.071C80.2165 283.776 78.7283 284.224 77.1963 284.391C77.1963 284.391 78.631 285.997 77.6411 287.26C76.6511 288.522 71.7158 289.297 71.7158 289.297L64.0688 293.171C64.0688 293.171 60.2095 304.978 58.1578 305.265C56.1062 305.552 50.0518 302.267 50.0518 302.267L57.5983 286.873Z" fill="#FFBE9D"/>
<path d="M75.1163 275.983C75.3315 276.284 72.8351 277.805 69.7362 279.469C67.8933 280.56 65.9756 281.519 63.9974 282.339C63.8539 282.138 66.2355 280.474 69.3632 278.81C70.9126 277.977 72.3473 277.26 73.3803 276.758C74.4133 276.256 75.0733 275.969 75.1163 275.983Z" fill="#EB996E"/>
<path d="M84.642 278.824C83.6345 279.056 82.6054 279.181 81.5717 279.197C79.1342 279.367 76.7522 280.005 74.556 281.076C72.0023 282.353 69.8215 283.946 68.0999 284.735C67.2249 285.29 66.2504 285.67 65.2305 285.854C66.0788 285.277 66.9603 284.75 67.8703 284.276C69.4915 283.315 71.6149 281.736 74.2547 280.402C76.5298 279.276 79.0331 278.687 81.5717 278.68C82.597 278.592 83.6294 278.641 84.642 278.824Z" fill="#EB996E"/>
<g opacity="0.3">
<path opacity="0.3" d="M156.592 364.576C122.707 373.133 86.9386 370.18 54.915 356.183L156.592 364.576Z" fill="black"/>
</g>
</svg>
