<svg width="614" height="638" viewBox="0 0 614 638" fill="none" xmlns="http://www.w3.org/2000/svg">
<g opacity="0.3">
<path opacity="0.3" d="M67.9771 91.4347C54.5241 107.551 51.9061 135.955 53.828 148.122C53.828 148.122 57.5506 181.414 84.3053 194.791C111.06 208.169 145.321 197.53 166.809 162.407C188.298 127.284 160.938 87.5002 134.516 77.4823C108.094 67.4645 81.4452 75.3032 67.9771 91.4347ZM125.194 137.272C122.5 147.093 114.071 151.633 106.641 146.745C104.607 145.351 102.988 143.431 101.96 141.19C100.931 138.948 100.53 136.47 100.8 134.018C100.935 131.307 102.083 128.745 104.016 126.839C105.95 124.934 108.528 123.823 111.242 123.728C117.068 123.365 127.888 127.466 125.194 137.272Z" stroke="white" stroke-miterlimit="10"/>
<path opacity="0.3" d="M171.667 138.679C171.183 130.961 174.073 122.275 168.761 116.479C164.221 111.561 163.919 104.918 161.558 98.8952C159.15 95.6488 156.472 92.6115 153.553 89.8155C151.692 89.2556 149.603 89.0892 147.046 88.4385C141.25 86.9252 141.734 81.205 132.095 79.7523C122.455 78.2995 118.581 79.7523 114.722 79.7523C112.025 79.6581 109.374 79.0199 106.929 77.8758C106.929 77.8758 99.6955 73.0485 89.0723 79.3891C78.4491 85.7297 77.98 92.4184 70.7465 98.2142C67.1146 101.12 63.1801 102.451 60.2293 104.388C58.6988 107.945 57.4392 111.613 56.4612 115.36C58.2166 125.423 64.3908 133.685 62.5143 139.723C60.5924 145.988 53.3439 147.925 56.2493 156.127C59.1548 164.329 63.4828 164.329 64.4513 172.531C65.4198 180.733 76.5575 190.872 82.3079 190.872C88.0584 190.872 89.5414 187.497 100.165 192.809C110.788 198.121 114.647 197.621 120.427 193.278C126.208 188.935 123.333 189.904 132.972 188.466C142.612 187.028 148.907 183.639 151.313 177.358C153.719 171.078 153.25 172.531 161.906 164.813C170.562 157.096 172.136 146.351 171.667 138.679ZM125.194 137.272C122.501 147.093 114.072 151.633 106.641 146.745C104.607 145.351 102.989 143.431 101.96 141.19C100.931 138.948 100.53 136.47 100.8 134.018C100.935 131.307 102.083 128.745 104.016 126.839C105.95 124.934 108.529 123.823 111.242 123.728C117.068 123.365 127.888 127.466 125.194 137.272Z" stroke="white" stroke-miterlimit="10"/>
<path opacity="0.3" d="M151.873 139.163C142.218 145.913 123.877 173.969 128.22 161.863C132.564 149.756 136.907 142.069 127.751 146.412C118.596 150.755 103.615 166.206 95.9725 166.675C88.8753 167.129 99.6952 154.13 105.249 145.655C102.606 143.226 101.019 139.858 100.83 136.273C97.4392 135.814 93.9929 135.978 90.6609 136.757C88.7845 137.317 93.6875 135.849 100.966 133.352C101.246 130.774 102.447 128.384 104.349 126.621C106.251 124.858 108.725 123.842 111.317 123.758C114.524 123.651 117.697 124.448 120.472 126.058C127.025 123.319 132.927 120.444 136.029 117.947C146.153 109.73 125.436 106.356 114.313 108.293C103.191 110.23 125.406 102.497 127.343 93.3263C129.28 84.1559 115.237 84.6401 96.941 94.8396C78.6455 105.039 79.5686 101.105 93.067 91.9493C106.565 82.794 97.8944 81.3563 91.5538 84.7007C91.5538 84.7007 64.0424 108.353 63.5582 118.477C63.0739 128.601 72.2444 124.757 84.744 112.696C97.2437 100.635 121.91 88.5595 117.083 96.7615C112.255 104.963 84.2598 119.461 94.3836 119.461C104.507 119.461 124.785 109.806 128.644 113.196C132.503 116.585 77.4954 127.178 70.7462 145.519C63.997 163.86 102.101 135.395 98.7267 143.597C95.3521 151.799 66.9328 170.049 79.9621 181.157C92.9914 192.264 118.581 149.787 122.924 155.582C127.267 161.378 107.958 185.5 121.955 178.751C135.953 172.002 160.075 136.757 160.075 143.522C160.075 150.286 120.987 178.327 129.189 183.578C137.391 188.829 167.323 150.286 168.761 140.147C170.199 130.008 161.528 132.399 151.873 139.163Z" stroke="white" stroke-miterlimit="10"/>
</g>
<g opacity="0.3">
<path opacity="0.3" d="M464.455 351.718C451.002 367.834 448.384 396.239 450.306 408.405C450.306 408.405 454.028 441.697 480.783 455.075C507.538 468.452 541.798 457.814 563.287 422.691C584.775 387.567 557.415 347.783 530.994 337.766C504.572 327.748 477.923 335.586 464.455 351.718ZM521.672 397.555C518.978 407.376 510.549 411.916 503.119 407.028C501.084 405.635 499.466 403.715 498.437 401.473C497.409 399.232 497.008 396.753 497.278 394.302C497.413 391.59 498.56 389.028 500.494 387.122C502.428 385.217 505.006 384.107 507.719 384.011C513.545 383.648 524.365 387.749 521.672 397.555Z" stroke="white" stroke-miterlimit="10"/>
<path opacity="0.3" d="M568.144 398.962C567.66 391.245 570.55 382.559 565.239 376.763C560.699 371.845 560.396 365.201 558.036 359.178C555.627 355.932 552.949 352.895 550.03 350.099C548.169 349.539 546.081 349.372 543.523 348.722C537.727 347.284 538.212 341.488 528.572 340.036C518.933 338.583 515.059 340.036 511.2 340.036C508.519 339.919 505.89 339.266 503.467 338.114C503.467 338.114 496.233 333.286 485.61 339.551C474.987 345.816 474.518 352.581 467.284 358.376C463.653 361.282 459.718 362.614 456.767 364.551C455.237 368.108 453.977 371.775 452.999 375.522C454.755 385.585 460.929 393.848 459.052 399.886C457.176 405.924 449.882 408.088 452.787 416.289C455.693 424.491 460.021 424.491 460.989 432.693C461.958 440.895 473.095 451.034 478.846 451.034C484.596 451.034 486.079 447.66 496.703 452.971C507.326 458.283 511.185 457.783 516.965 453.44C522.746 449.097 519.871 450.066 529.51 448.628C539.15 447.191 545.445 443.801 547.851 437.521C550.257 431.241 549.788 432.693 558.444 424.976C567.1 417.258 568.613 406.635 568.144 398.962ZM521.672 397.555C518.978 407.376 510.549 411.916 503.119 407.028C501.084 405.635 499.466 403.715 498.437 401.473C497.409 399.232 497.008 396.753 497.278 394.302C497.412 391.59 498.56 389.028 500.494 387.122C502.428 385.217 505.006 384.107 507.719 384.011C513.545 383.648 524.365 387.749 521.672 397.555Z" stroke="white" stroke-miterlimit="10"/>
<path opacity="0.3" d="M548.35 399.447C538.696 406.196 520.355 434.252 524.698 422.146C529.041 410.04 533.384 402.352 524.229 406.695C515.074 411.038 500.092 426.489 492.374 426.958C485.277 427.412 496.097 414.413 501.651 405.939C499.008 403.509 497.421 400.141 497.232 396.556C493.841 396.097 490.395 396.261 487.063 397.041C485.186 397.601 490.089 396.133 497.368 393.636C497.648 391.058 498.849 388.667 500.751 386.904C502.653 385.142 505.127 384.125 507.719 384.042C510.901 383.948 514.045 384.745 516.799 386.342C523.351 383.603 529.253 380.728 532.355 378.231C542.479 370.014 521.762 366.639 510.64 368.576C499.517 370.513 521.732 362.78 523.669 353.61C525.606 344.439 511.563 344.923 493.267 355.123C474.972 365.322 475.895 361.388 489.393 352.233C502.892 343.077 494.221 341.64 487.88 344.984C487.88 344.984 460.369 368.636 459.884 378.76C459.4 388.884 468.571 385.04 481.07 372.98C493.57 360.919 518.236 348.843 513.409 357.045C508.582 365.247 480.586 379.744 490.71 379.744C500.834 379.744 521.112 370.089 524.97 373.479C528.829 376.869 473.822 387.462 467.072 405.802C460.323 424.143 498.428 395.679 495.053 403.881C491.678 412.083 463.41 430.333 476.44 441.44C489.469 452.548 515.058 410.07 519.402 415.866C523.745 421.662 504.435 445.783 518.433 439.034C532.431 432.285 556.552 397.041 556.552 403.805C556.552 410.569 517.465 438.61 525.666 443.861C533.868 449.112 563.801 410.569 565.239 400.43C566.676 390.291 558.005 392.682 548.35 399.447Z" stroke="white" stroke-miterlimit="10"/>
</g>
<g opacity="0.3">
<path opacity="0.3" d="M488.743 218.989C497.444 238.116 521.914 252.765 533.702 256.306C533.702 256.306 565.284 267.368 588.967 249.057C612.65 230.747 617.871 195.245 595.52 160.652C573.168 126.058 525.455 133.504 504.98 152.98C484.506 172.455 480.042 199.8 488.743 218.989ZM554.858 187.21C562.545 193.883 562.984 203.462 555.357 208.048C553.217 209.279 550.783 209.905 548.315 209.86C545.847 209.815 543.437 209.099 541.344 207.79C538.962 206.489 537.153 204.343 536.274 201.775C535.394 199.207 535.508 196.402 536.593 193.914C538.787 188.511 547.17 180.536 554.858 187.21Z" stroke="white" stroke-miterlimit="10"/>
<path opacity="0.3" d="M506.161 155.598C503.134 165.086 501.757 167.704 496.854 172.44C491.951 177.177 489.378 184.879 489.953 188.996C490.652 193.86 490.87 198.782 490.604 203.689C490.493 207.053 491.167 210.395 492.573 213.453C493.978 216.51 496.076 219.198 498.7 221.304C503.03 224.447 506.748 228.355 509.671 232.835C513.969 238.752 512.562 240.084 518.963 243.307C525.364 246.53 537.501 252.992 537.501 252.992C537.501 252.992 551.347 259.151 557.551 256.578C563.756 254.006 571.171 244.972 575.983 242.959C580.795 240.946 583.065 246.213 589.451 236.815C595.837 227.418 597.714 220.305 601.557 216.643C605.401 212.981 606.415 199.997 601.103 194.443C595.792 188.89 593.174 184.002 592.372 174.771C591.57 165.54 588.997 160.001 579.176 156.612C569.355 153.222 562.061 144.914 558.384 141.751C554.706 138.588 544.764 139.36 538.56 142.614C532.355 145.867 526.665 140.616 520.113 143.522C518.01 144.445 516.133 145.035 514.453 145.716C512.678 146.725 510.998 147.829 509.414 149.03C507.883 150.968 506.775 153.205 506.161 155.598V155.598ZM537.395 189.162C541.48 189.949 543.705 182.489 550.878 182.337C558.051 182.186 553.904 186.166 554.858 187.21C556.526 188.641 557.938 190.345 559.034 192.249C560.265 193.814 561.086 195.66 561.425 197.621C561.668 201.374 561.955 203.78 564.255 206.898C566.555 210.015 561.441 210.242 556.992 211.165C552.542 212.088 552.194 211.725 548.714 214.358C545.233 216.991 540.224 212.436 540.224 212.436C540.224 212.436 537.198 211.347 534.247 206.141C531.296 200.935 534.398 200.088 531.765 195.851C529.132 191.614 533.324 188.375 537.395 189.162V189.162Z" stroke="white" stroke-miterlimit="10"/>
<path opacity="0.3" d="M542.842 160.712C542.845 161.414 542.64 162.101 542.252 162.685C541.864 163.27 541.311 163.726 540.663 163.996C540.016 164.266 539.302 164.337 538.614 164.201C537.926 164.065 537.293 163.728 536.797 163.231C536.301 162.735 535.964 162.103 535.827 161.415C535.691 160.726 535.763 160.013 536.033 159.366C536.302 158.718 536.759 158.165 537.343 157.777C537.928 157.389 538.615 157.184 539.316 157.187C540.251 157.187 541.148 157.558 541.809 158.219C542.471 158.881 542.842 159.777 542.842 160.712V160.712Z" stroke="white" stroke-miterlimit="10"/>
<path opacity="0.3" d="M518.1 170.821C518.936 170.821 519.614 170.144 519.614 169.308C519.614 168.472 518.936 167.795 518.1 167.795C517.264 167.795 516.587 168.472 516.587 169.308C516.587 170.144 517.264 170.821 518.1 170.821Z" stroke="white" stroke-miterlimit="10"/>
<path opacity="0.3" d="M529.208 151.875C529.208 152.324 529.074 152.763 528.825 153.136C528.576 153.509 528.221 153.8 527.806 153.972C527.392 154.144 526.935 154.189 526.495 154.101C526.055 154.014 525.65 153.797 525.333 153.48C525.015 153.163 524.799 152.758 524.711 152.318C524.624 151.877 524.669 151.421 524.841 151.006C525.012 150.591 525.303 150.237 525.677 149.988C526.05 149.738 526.489 149.605 526.938 149.605C527.54 149.605 528.117 149.844 528.543 150.27C528.968 150.696 529.208 151.273 529.208 151.875V151.875Z" stroke="white" stroke-miterlimit="10"/>
<path opacity="0.3" d="M512.032 191.023C514.264 191.023 516.072 189.214 516.072 186.983C516.072 184.751 514.264 182.943 512.032 182.943C509.801 182.943 507.992 184.751 507.992 186.983C507.992 189.214 509.801 191.023 512.032 191.023Z" stroke="white" stroke-miterlimit="10"/>
<path opacity="0.3" d="M563.06 174.105C563.06 174.656 562.896 175.194 562.59 175.652C562.284 176.11 561.849 176.467 561.341 176.677C560.832 176.888 560.272 176.943 559.732 176.836C559.192 176.728 558.696 176.463 558.306 176.074C557.917 175.684 557.652 175.188 557.544 174.648C557.437 174.108 557.492 173.548 557.703 173.039C557.913 172.531 558.27 172.096 558.728 171.79C559.186 171.484 559.724 171.321 560.275 171.321C561.014 171.321 561.722 171.614 562.244 172.136C562.766 172.658 563.06 173.367 563.06 174.105V174.105Z" stroke="white" stroke-miterlimit="10"/>
<path opacity="0.3" d="M564.573 157.429C564.576 157.882 564.444 158.326 564.194 158.704C563.944 159.082 563.588 159.377 563.169 159.552C562.751 159.727 562.291 159.773 561.846 159.686C561.401 159.598 560.993 159.38 560.672 159.06C560.352 158.739 560.134 158.33 560.046 157.886C559.958 157.441 560.005 156.98 560.18 156.562C560.355 156.144 560.65 155.787 561.028 155.538C561.406 155.288 561.85 155.156 562.303 155.159C562.904 155.163 563.479 155.403 563.904 155.828C564.329 156.253 564.569 156.828 564.573 157.429Z" stroke="white" stroke-miterlimit="10"/>
<path opacity="0.3" d="M583.262 176.617C583.262 177.266 583.069 177.901 582.709 178.441C582.348 178.981 581.835 179.402 581.235 179.651C580.635 179.899 579.975 179.964 579.338 179.838C578.701 179.711 578.116 179.398 577.656 178.939C577.197 178.48 576.884 177.895 576.758 177.258C576.631 176.621 576.696 175.96 576.944 175.36C577.193 174.76 577.614 174.247 578.154 173.887C578.694 173.526 579.329 173.333 579.978 173.333C580.849 173.333 581.684 173.679 582.3 174.295C582.916 174.911 583.262 175.746 583.262 176.617Z" stroke="white" stroke-miterlimit="10"/>
<path opacity="0.3" d="M587.302 204.416C587.302 204.967 587.139 205.505 586.833 205.963C586.527 206.421 586.092 206.778 585.584 206.988C585.075 207.199 584.515 207.254 583.975 207.147C583.435 207.039 582.938 206.774 582.549 206.385C582.16 205.995 581.894 205.499 581.787 204.959C581.68 204.419 581.735 203.859 581.945 203.35C582.156 202.841 582.513 202.407 582.971 202.101C583.429 201.795 583.967 201.631 584.518 201.631C584.884 201.629 585.247 201.7 585.586 201.839C585.925 201.978 586.232 202.183 586.491 202.442C586.75 202.701 586.955 203.009 587.095 203.348C587.234 203.687 587.304 204.05 587.302 204.416V204.416Z" stroke="white" stroke-miterlimit="10"/>
<path opacity="0.3" d="M570.127 232.956C570.127 233.555 569.949 234.14 569.616 234.638C569.284 235.135 568.811 235.523 568.258 235.752C567.705 235.981 567.097 236.041 566.51 235.925C565.922 235.808 565.383 235.52 564.96 235.096C564.537 234.673 564.248 234.134 564.132 233.547C564.015 232.96 564.075 232.351 564.304 231.798C564.533 231.245 564.921 230.772 565.419 230.44C565.916 230.107 566.501 229.93 567.1 229.93C567.903 229.93 568.672 230.249 569.24 230.816C569.808 231.384 570.127 232.154 570.127 232.956Z" stroke="white" stroke-miterlimit="10"/>
<path opacity="0.3" d="M539.316 237.496C539.316 238.394 539.05 239.272 538.551 240.018C538.052 240.765 537.343 241.347 536.514 241.69C535.684 242.034 534.771 242.124 533.891 241.949C533.01 241.773 532.201 241.341 531.566 240.706C530.931 240.071 530.499 239.262 530.324 238.382C530.149 237.501 530.239 236.588 530.582 235.759C530.926 234.929 531.508 234.22 532.254 233.721C533.001 233.222 533.879 232.956 534.777 232.956C535.981 232.956 537.135 233.434 537.987 234.286C538.838 235.137 539.316 236.292 539.316 237.496V237.496Z" stroke="white" stroke-miterlimit="10"/>
<path opacity="0.3" d="M520.053 209.909C520.053 210.358 519.919 210.797 519.67 211.17C519.421 211.543 519.066 211.834 518.651 212.006C518.237 212.178 517.78 212.223 517.34 212.135C516.899 212.048 516.495 211.831 516.178 211.514C515.86 211.197 515.644 210.792 515.556 210.352C515.469 209.911 515.514 209.455 515.685 209.04C515.857 208.626 516.148 208.271 516.522 208.022C516.895 207.772 517.334 207.639 517.783 207.639C518.385 207.639 518.962 207.878 519.388 208.304C519.813 208.73 520.053 209.307 520.053 209.909V209.909Z" stroke="white" stroke-miterlimit="10"/>
<path opacity="0.3" d="M542.343 221.334C542.343 221.736 542.224 222.129 542 222.462C541.777 222.796 541.459 223.056 541.088 223.209C540.716 223.362 540.308 223.401 539.914 223.322C539.52 223.242 539.159 223.048 538.876 222.763C538.593 222.478 538.401 222.115 538.324 221.72C538.248 221.326 538.29 220.918 538.446 220.548C538.602 220.177 538.864 219.862 539.2 219.641C539.535 219.42 539.929 219.303 540.33 219.306C540.596 219.306 540.859 219.359 541.104 219.461C541.349 219.563 541.572 219.713 541.759 219.901C541.946 220.09 542.094 220.313 542.194 220.559C542.294 220.805 542.345 221.069 542.343 221.334Z" stroke="white" stroke-miterlimit="10"/>
<path opacity="0.3" d="M502.438 199.316C502.438 199.666 502.334 200.009 502.14 200.3C501.945 200.591 501.669 200.818 501.345 200.952C501.022 201.086 500.666 201.121 500.322 201.053C499.979 200.984 499.663 200.816 499.416 200.568C499.168 200.32 498.999 200.005 498.931 199.661C498.863 199.318 498.898 198.962 499.032 198.639C499.166 198.315 499.393 198.038 499.684 197.844C499.975 197.649 500.317 197.546 500.668 197.546C500.9 197.546 501.13 197.591 501.345 197.68C501.56 197.769 501.755 197.9 501.919 198.064C502.084 198.229 502.214 198.424 502.303 198.639C502.392 198.853 502.438 199.084 502.438 199.316V199.316Z" stroke="white" stroke-miterlimit="10"/>
<path opacity="0.3" d="M516.587 153.645C516.587 153.945 516.498 154.237 516.332 154.486C516.166 154.735 515.929 154.929 515.653 155.044C515.376 155.158 515.072 155.188 514.779 155.13C514.485 155.071 514.215 154.927 514.004 154.716C513.792 154.504 513.648 154.234 513.59 153.941C513.531 153.647 513.561 153.343 513.676 153.066C513.79 152.79 513.984 152.553 514.233 152.387C514.482 152.221 514.775 152.132 515.074 152.132C515.475 152.132 515.86 152.292 516.144 152.575C516.428 152.859 516.587 153.244 516.587 153.645Z" stroke="white" stroke-miterlimit="10"/>
<path opacity="0.3" d="M535.276 174.105C535.272 174.439 535.136 174.759 534.899 174.994C534.661 175.229 534.34 175.361 534.005 175.361C533.672 175.361 533.352 175.229 533.117 174.993C532.881 174.757 532.749 174.438 532.749 174.105C532.749 173.77 532.881 173.449 533.116 173.211C533.351 172.973 533.67 172.838 534.005 172.834C534.341 172.838 534.662 172.973 534.899 173.21C535.137 173.448 535.272 173.769 535.276 174.105V174.105Z" stroke="white" stroke-miterlimit="10"/>
<path opacity="0.3" d="M572.139 191.75C572.139 192.101 572.035 192.443 571.84 192.735C571.645 193.026 571.367 193.253 571.043 193.387C570.718 193.52 570.362 193.555 570.018 193.485C569.674 193.415 569.359 193.245 569.112 192.996C568.865 192.747 568.697 192.43 568.631 192.086C568.564 191.741 568.601 191.385 568.737 191.062C568.874 190.738 569.103 190.463 569.396 190.27C569.689 190.077 570.033 189.976 570.384 189.979C570.616 189.979 570.845 190.025 571.059 190.114C571.273 190.203 571.467 190.334 571.631 190.499C571.794 190.663 571.923 190.859 572.01 191.073C572.097 191.288 572.141 191.518 572.139 191.75Z" stroke="white" stroke-miterlimit="10"/>
<path opacity="0.3" d="M588.816 220.32C588.816 220.919 588.638 221.504 588.306 222.002C587.973 222.5 587.5 222.887 586.947 223.117C586.394 223.346 585.786 223.406 585.199 223.289C584.612 223.172 584.072 222.884 583.649 222.46C583.226 222.037 582.938 221.498 582.821 220.911C582.704 220.324 582.764 219.715 582.993 219.162C583.222 218.609 583.61 218.136 584.108 217.804C584.605 217.471 585.191 217.294 585.789 217.294C586.592 217.294 587.362 217.613 587.929 218.18C588.497 218.748 588.816 219.518 588.816 220.32Z" stroke="white" stroke-miterlimit="10"/>
<path opacity="0.3" d="M525.924 198.105C527.462 198.105 528.708 196.859 528.708 195.321C528.708 193.783 527.462 192.537 525.924 192.537C524.386 192.537 523.139 193.783 523.139 195.321C523.139 196.859 524.386 198.105 525.924 198.105Z" stroke="white" stroke-miterlimit="10"/>
<path opacity="0.3" d="M516.072 220.32C516.075 220.723 515.959 221.117 515.737 221.453C515.515 221.788 515.199 222.051 514.828 222.206C514.456 222.361 514.048 222.403 513.653 222.325C513.258 222.247 512.895 222.054 512.611 221.769C512.326 221.485 512.133 221.122 512.055 220.727C511.977 220.333 512.019 219.924 512.174 219.552C512.329 219.181 512.592 218.865 512.928 218.643C513.263 218.421 513.657 218.305 514.06 218.308C514.594 218.308 515.105 218.52 515.483 218.897C515.86 219.275 516.072 219.787 516.072 220.32V220.32Z" stroke="white" stroke-miterlimit="10"/>
<path opacity="0.3" d="M504.92 182.443C504.92 182.943 504.771 183.432 504.494 183.847C504.216 184.263 503.821 184.587 503.36 184.778C502.898 184.969 502.39 185.019 501.899 184.922C501.409 184.824 500.959 184.583 500.605 184.23C500.252 183.877 500.011 183.426 499.914 182.936C499.816 182.446 499.866 181.938 500.058 181.476C500.249 181.014 500.573 180.619 500.988 180.342C501.404 180.064 501.893 179.916 502.392 179.916C503.063 179.916 503.705 180.182 504.179 180.656C504.653 181.13 504.92 181.773 504.92 182.443V182.443Z" stroke="white" stroke-miterlimit="10"/>
<path opacity="0.3" d="M550.424 150.104C550.424 150.404 550.335 150.696 550.169 150.945C550.002 151.194 549.766 151.388 549.49 151.502C549.213 151.617 548.909 151.647 548.615 151.589C548.322 151.53 548.052 151.386 547.84 151.174C547.629 150.963 547.485 150.693 547.426 150.4C547.368 150.106 547.398 149.802 547.512 149.525C547.627 149.249 547.821 149.012 548.07 148.846C548.319 148.68 548.611 148.591 548.911 148.591C549.312 148.591 549.697 148.75 549.981 149.034C550.264 149.318 550.424 149.703 550.424 150.104Z" stroke="white" stroke-miterlimit="10"/>
</g>
<g opacity="0.3">
<path opacity="0.3" d="M97.5917 465.895C88.512 484.826 92.9005 513.003 97.7278 524.322C97.7278 524.322 109.471 555.662 138.692 562.154C167.914 568.646 198.527 549.881 210.769 510.566C223.012 471.252 186.754 439.443 158.698 436.128C130.642 432.814 106.702 446.979 97.5917 465.895ZM164.282 496.372C164.07 506.541 157.003 513.018 148.604 510.097C146.288 509.243 144.248 507.774 142.702 505.85C141.157 503.926 140.163 501.617 139.827 499.172C139.3 496.516 139.784 493.759 141.184 491.441C142.583 489.124 144.798 487.412 147.394 486.642C152.993 484.856 164.433 486.188 164.282 496.372Z" stroke="white" stroke-miterlimit="10"/>
<path opacity="0.3" d="M157.366 438.731C148.18 442.514 145.26 443.15 138.48 442.363C131.701 441.576 124.134 444.588 121.35 447.66C118.059 451.309 114.42 454.628 110.485 457.572C107.829 459.637 105.692 462.294 104.245 465.331C102.797 468.368 102.079 471.701 102.146 475.065C102.502 480.41 101.877 485.774 100.3 490.894C98.5146 497.976 96.5927 497.749 98.2119 504.74C99.8311 511.732 102.646 525.17 102.646 525.17C102.646 525.17 106.792 539.742 112.739 542.86C118.687 545.977 130.369 545.886 134.939 548.353C139.509 550.82 136.982 555.919 148.286 554.754C159.59 553.589 166.264 550.517 171.53 551.137C176.796 551.758 187.404 544.222 188.282 536.565C189.16 528.907 191.309 523.777 197.816 517.255C204.323 510.733 206.986 505.149 203.248 495.54C199.511 485.93 201.266 474.914 201.342 470.056C201.417 465.198 194.471 458.086 187.979 455.392C181.487 452.699 181.926 444.966 175.465 441.773C173.407 440.759 171.757 439.7 170.153 438.837C168.263 438.158 166.338 437.577 164.387 437.097C161.959 437.154 159.569 437.71 157.366 438.731V438.731ZM151.6 484.205C153.613 487.837 160.771 484.78 165.492 490.258C170.214 495.736 164.448 494.995 164.281 496.432C164.258 498.629 163.853 500.805 163.086 502.864C162.659 504.77 161.77 506.542 160.498 508.024C157.774 510.627 156.11 512.382 155.187 516.15C154.264 519.919 150.813 516.15 147.257 513.29C143.701 510.43 143.762 509.976 139.494 508.993C135.227 508.009 135.529 501.245 135.529 501.245C135.529 501.245 134.425 498.218 136.543 492.619C138.662 487.02 141.355 488.806 142.869 484.114C144.382 479.423 149.603 480.573 151.6 484.205Z" stroke="white" stroke-miterlimit="10"/>
<path opacity="0.3" d="M176.932 470.192C176.395 470.642 175.736 470.922 175.039 470.996C174.342 471.071 173.638 470.937 173.018 470.612C172.397 470.286 171.887 469.784 171.552 469.168C171.216 468.553 171.072 467.852 171.135 467.154C171.199 466.456 171.468 465.792 171.909 465.248C172.35 464.703 172.943 464.301 173.612 464.093C174.281 463.886 174.997 463.881 175.669 464.081C176.341 464.28 176.939 464.674 177.386 465.214C177.685 465.57 177.91 465.981 178.048 466.425C178.187 466.868 178.237 467.335 178.194 467.797C178.152 468.26 178.019 468.71 177.802 469.121C177.586 469.532 177.29 469.896 176.932 470.192V470.192Z" stroke="white" stroke-miterlimit="10"/>
<path opacity="0.3" d="M155.459 457.829C155.307 457.957 155.132 458.054 154.942 458.114C154.753 458.175 154.553 458.197 154.355 458.18C154.157 458.163 153.964 458.108 153.787 458.016C153.611 457.925 153.454 457.799 153.326 457.647C153.067 457.338 152.941 456.939 152.977 456.537C153.012 456.136 153.206 455.765 153.515 455.506C153.824 455.247 154.223 455.122 154.625 455.157C155.026 455.192 155.397 455.386 155.656 455.695C155.783 455.848 155.879 456.025 155.939 456.215C155.998 456.405 156.019 456.605 156 456.803C155.982 457.001 155.925 457.194 155.832 457.37C155.739 457.546 155.613 457.702 155.459 457.829Z" stroke="white" stroke-miterlimit="10"/>
<path opacity="0.3" d="M175.026 454.046C174.679 454.337 174.254 454.519 173.804 454.568C173.355 454.618 172.9 454.532 172.499 454.323C172.098 454.114 171.767 453.79 171.55 453.393C171.333 452.996 171.239 452.544 171.279 452.093C171.319 451.642 171.493 451.214 171.777 450.861C172.061 450.509 172.444 450.25 172.876 450.115C173.308 449.981 173.77 449.977 174.204 450.106C174.638 450.235 175.024 450.489 175.313 450.837C175.699 451.302 175.885 451.9 175.831 452.501C175.777 453.102 175.488 453.657 175.026 454.046Z" stroke="white" stroke-miterlimit="10"/>
<path opacity="0.3" d="M139.615 466.439C139.001 466.951 138.25 467.27 137.455 467.355C136.66 467.439 135.859 467.287 135.151 466.916C134.443 466.545 133.861 465.972 133.479 465.27C133.096 464.569 132.93 463.769 133.002 462.973C133.074 462.177 133.381 461.421 133.883 460.799C134.385 460.177 135.06 459.718 135.823 459.48C136.586 459.242 137.402 459.236 138.169 459.461C138.935 459.687 139.618 460.136 140.13 460.749C140.816 461.572 141.147 462.634 141.05 463.701C140.954 464.768 140.438 465.753 139.615 466.439V466.439Z" stroke="white" stroke-miterlimit="10"/>
<path opacity="0.3" d="M179.566 494.269C179.142 494.621 178.624 494.839 178.076 494.896C177.528 494.954 176.975 494.847 176.488 494.591C176.001 494.334 175.601 493.938 175.338 493.454C175.076 492.97 174.963 492.419 175.013 491.87C175.064 491.322 175.277 490.801 175.624 490.373C175.971 489.945 176.437 489.63 176.963 489.467C177.489 489.304 178.052 489.301 178.58 489.458C179.108 489.615 179.577 489.925 179.929 490.349C180.4 490.917 180.627 491.649 180.559 492.384C180.49 493.119 180.133 493.797 179.566 494.269V494.269Z" stroke="white" stroke-miterlimit="10"/>
<path opacity="0.3" d="M193.367 484.75C193.022 485.038 192.6 485.218 192.153 485.266C191.707 485.314 191.256 485.229 190.858 485.021C190.46 484.813 190.132 484.491 189.917 484.097C189.702 483.703 189.609 483.253 189.649 482.806C189.689 482.358 189.861 481.933 190.144 481.584C190.426 481.234 190.805 480.976 191.234 480.842C191.663 480.709 192.122 480.705 192.553 480.832C192.983 480.96 193.367 481.212 193.654 481.557C193.847 481.785 193.992 482.049 194.081 482.333C194.171 482.617 194.204 482.917 194.177 483.214C194.15 483.51 194.065 483.799 193.926 484.063C193.787 484.327 193.597 484.56 193.367 484.75V484.75Z" stroke="white" stroke-miterlimit="10"/>
<path opacity="0.3" d="M190.597 511.399C190.099 511.815 189.487 512.075 188.841 512.144C188.195 512.213 187.542 512.088 186.967 511.786C186.391 511.484 185.918 511.018 185.608 510.447C185.297 509.876 185.163 509.225 185.222 508.578C185.282 507.931 185.532 507.316 185.941 506.811C186.351 506.306 186.901 505.934 187.522 505.741C188.143 505.549 188.807 505.546 189.43 505.731C190.053 505.917 190.607 506.283 191.021 506.783C191.298 507.114 191.506 507.495 191.634 507.907C191.762 508.318 191.808 508.75 191.769 509.179C191.729 509.608 191.606 510.025 191.405 510.406C191.204 510.787 190.929 511.124 190.597 511.399V511.399Z" stroke="white" stroke-miterlimit="10"/>
<path opacity="0.3" d="M171.848 532.237C171.425 532.591 170.906 532.811 170.358 532.87C169.809 532.929 169.255 532.823 168.767 532.567C168.278 532.31 167.877 531.915 167.614 531.43C167.35 530.945 167.237 530.393 167.288 529.843C167.339 529.294 167.553 528.772 167.901 528.344C168.249 527.916 168.716 527.601 169.244 527.44C169.771 527.278 170.335 527.276 170.863 527.435C171.391 527.594 171.861 527.906 172.211 528.332C172.444 528.612 172.619 528.936 172.727 529.284C172.835 529.631 172.873 529.997 172.839 530.36C172.806 530.723 172.701 531.075 172.531 531.397C172.36 531.719 172.128 532.004 171.848 532.237V532.237Z" stroke="white" stroke-miterlimit="10"/>
<path opacity="0.3" d="M138.934 537.382C138.474 537.764 137.91 538 137.315 538.062C136.72 538.124 136.12 538.008 135.591 537.729C135.062 537.45 134.627 537.02 134.342 536.494C134.057 535.968 133.934 535.37 133.989 534.774C134.044 534.178 134.274 533.612 134.651 533.147C135.027 532.682 135.533 532.339 136.104 532.162C136.676 531.984 137.287 531.98 137.86 532.149C138.434 532.319 138.945 532.655 139.328 533.114C139.583 533.42 139.775 533.773 139.893 534.153C140.011 534.533 140.053 534.933 140.016 535.33C139.98 535.726 139.865 536.111 139.68 536.463C139.494 536.816 139.241 537.128 138.934 537.382V537.382Z" stroke="white" stroke-miterlimit="10"/>
<path opacity="0.3" d="M115.705 516.635C115.015 517.208 114.169 517.563 113.277 517.655C112.384 517.748 111.484 517.574 110.69 517.156C109.897 516.737 109.245 516.092 108.817 515.304C108.389 514.515 108.205 513.617 108.287 512.723C108.37 511.829 108.715 510.98 109.28 510.283C109.845 509.585 110.603 509.071 111.46 508.805C112.317 508.538 113.234 508.532 114.095 508.786C114.955 509.04 115.721 509.544 116.296 510.234C116.678 510.692 116.966 511.222 117.143 511.792C117.32 512.362 117.383 512.962 117.329 513.557C117.274 514.151 117.102 514.729 116.824 515.257C116.545 515.786 116.165 516.254 115.705 516.635V516.635Z" stroke="white" stroke-miterlimit="10"/>
<path opacity="0.3" d="M124.558 484.266C124.213 484.552 123.791 484.73 123.345 484.776C122.899 484.823 122.45 484.737 122.053 484.528C121.656 484.32 121.33 483.998 121.115 483.605C120.901 483.211 120.808 482.763 120.848 482.316C120.888 481.87 121.059 481.445 121.34 481.096C121.621 480.747 121.999 480.488 122.427 480.354C122.854 480.219 123.312 480.214 123.743 480.339C124.173 480.465 124.557 480.715 124.845 481.058C125.227 481.524 125.411 482.121 125.357 482.72C125.303 483.32 125.016 483.875 124.558 484.266V484.266Z" stroke="white" stroke-miterlimit="10"/>
<path opacity="0.3" d="M130.066 508.614C129.76 508.868 129.386 509.025 128.991 509.066C128.595 509.107 128.197 509.03 127.845 508.845C127.493 508.66 127.204 508.375 127.015 508.026C126.825 507.676 126.742 507.279 126.778 506.883C126.814 506.487 126.966 506.111 127.216 505.801C127.465 505.492 127.8 505.263 128.18 505.144C128.559 505.025 128.965 505.021 129.346 505.132C129.728 505.243 130.068 505.465 130.324 505.769C130.665 506.182 130.829 506.712 130.781 507.245C130.733 507.778 130.476 508.27 130.066 508.614Z" stroke="white" stroke-miterlimit="10"/>
<path opacity="0.3" d="M121.38 463.897C121.111 464.121 120.782 464.26 120.433 464.296C120.085 464.333 119.734 464.266 119.425 464.103C119.115 463.94 118.86 463.689 118.693 463.381C118.526 463.074 118.453 462.724 118.485 462.375C118.517 462.027 118.651 461.695 118.871 461.423C119.091 461.151 119.387 460.95 119.721 460.845C120.055 460.741 120.412 460.738 120.748 460.837C121.084 460.936 121.383 461.132 121.607 461.4C121.756 461.579 121.869 461.785 121.938 462.008C122.008 462.23 122.033 462.464 122.012 462.696C121.991 462.928 121.924 463.153 121.816 463.359C121.707 463.566 121.559 463.748 121.38 463.897Z" stroke="white" stroke-miterlimit="10"/>
<path opacity="0.3" d="M165.553 445.481C165.4 445.608 165.223 445.704 165.033 445.763C164.843 445.822 164.643 445.843 164.445 445.825C164.247 445.807 164.054 445.749 163.878 445.657C163.702 445.564 163.546 445.437 163.419 445.284C163.228 445.054 163.11 444.772 163.079 444.474C163.048 444.177 163.106 443.877 163.246 443.612C163.385 443.348 163.6 443.13 163.863 442.988C164.126 442.845 164.425 442.784 164.723 442.811C165.021 442.839 165.304 442.954 165.536 443.142C165.769 443.33 165.94 443.583 166.029 443.869C166.118 444.154 166.12 444.46 166.035 444.747C165.951 445.034 165.783 445.289 165.553 445.481Z" stroke="white" stroke-miterlimit="10"/>
<path opacity="0.3" d="M161.8 472.931C161.608 473.089 161.374 473.187 161.127 473.213C160.88 473.238 160.631 473.189 160.412 473.073C160.193 472.957 160.013 472.778 159.895 472.56C159.777 472.341 159.726 472.093 159.749 471.845C159.773 471.598 159.869 471.363 160.025 471.171C160.182 470.978 160.392 470.836 160.629 470.763C160.866 470.69 161.12 470.688 161.358 470.759C161.596 470.83 161.808 470.97 161.966 471.161C162.074 471.287 162.155 471.433 162.205 471.592C162.255 471.75 162.272 471.916 162.257 472.081C162.241 472.246 162.193 472.406 162.114 472.552C162.036 472.698 161.929 472.827 161.8 472.931Z" stroke="white" stroke-miterlimit="10"/>
<path opacity="0.3" d="M171.848 512.564C171.579 512.788 171.249 512.927 170.901 512.963C170.553 513 170.202 512.932 169.892 512.77C169.582 512.607 169.328 512.356 169.161 512.048C168.994 511.741 168.921 511.391 168.953 511.042C168.985 510.694 169.119 510.362 169.339 510.09C169.559 509.818 169.854 509.617 170.188 509.512C170.522 509.408 170.88 509.405 171.216 509.504C171.551 509.602 171.85 509.799 172.075 510.067C172.373 510.43 172.516 510.895 172.473 511.362C172.431 511.829 172.206 512.261 171.848 512.564V512.564Z" stroke="white" stroke-miterlimit="10"/>
<path opacity="0.3" d="M160.604 543.647C160.145 544.03 159.582 544.269 158.987 544.333C158.393 544.397 157.792 544.284 157.262 544.006C156.731 543.729 156.295 543.301 156.008 542.776C155.721 542.251 155.596 541.653 155.649 541.057C155.702 540.461 155.93 539.894 156.305 539.428C156.68 538.961 157.185 538.617 157.755 538.437C158.326 538.257 158.937 538.251 159.512 538.419C160.086 538.587 160.598 538.921 160.982 539.379C161.238 539.684 161.431 540.036 161.551 540.416C161.67 540.796 161.713 541.195 161.678 541.591C161.643 541.988 161.53 542.373 161.346 542.726C161.162 543.079 160.909 543.391 160.604 543.647Z" stroke="white" stroke-miterlimit="10"/>
<path opacity="0.3" d="M141.31 481.481C140.888 481.835 140.37 482.056 139.822 482.115C139.275 482.175 138.722 482.071 138.233 481.816C137.745 481.561 137.343 481.167 137.079 480.684C136.814 480.201 136.699 479.65 136.748 479.101C136.796 478.552 137.007 478.03 137.352 477.601C137.698 477.172 138.163 476.855 138.688 476.69C139.214 476.526 139.777 476.52 140.305 476.676C140.834 476.831 141.305 477.139 141.658 477.562C142.131 478.128 142.36 478.859 142.295 479.594C142.229 480.329 141.875 481.007 141.31 481.481V481.481Z" stroke="white" stroke-miterlimit="10"/>
<path opacity="0.3" d="M114.01 487.792C113.704 488.045 113.33 488.202 112.935 488.243C112.539 488.284 112.141 488.208 111.789 488.022C111.437 487.837 111.148 487.552 110.959 487.203C110.769 486.854 110.686 486.456 110.722 486.06C110.758 485.664 110.91 485.288 111.16 484.979C111.409 484.669 111.744 484.44 112.124 484.321C112.503 484.202 112.909 484.198 113.29 484.309C113.672 484.421 114.012 484.642 114.268 484.947C114.438 485.15 114.567 485.385 114.647 485.638C114.727 485.892 114.755 486.158 114.731 486.423C114.707 486.687 114.631 486.944 114.508 487.179C114.384 487.414 114.215 487.622 114.01 487.792V487.792Z" stroke="white" stroke-miterlimit="10"/>
<path opacity="0.3" d="M135.999 455.06C135.615 455.381 135.145 455.581 134.648 455.635C134.151 455.689 133.649 455.594 133.206 455.362C132.763 455.131 132.398 454.773 132.158 454.334C131.918 453.895 131.814 453.395 131.859 452.897C131.903 452.399 132.094 451.926 132.408 451.536C132.722 451.147 133.144 450.86 133.621 450.71C134.099 450.561 134.61 450.557 135.089 450.698C135.569 450.839 135.996 451.119 136.316 451.503C136.745 452.017 136.952 452.68 136.893 453.347C136.833 454.014 136.512 454.63 135.999 455.06V455.06Z" stroke="white" stroke-miterlimit="10"/>
<path opacity="0.3" d="M189.932 469.209C189.779 469.336 189.602 469.432 189.412 469.491C189.222 469.55 189.022 469.57 188.824 469.552C188.626 469.534 188.433 469.477 188.257 469.384C188.081 469.291 187.925 469.165 187.798 469.012C187.671 468.859 187.575 468.682 187.516 468.492C187.457 468.302 187.436 468.102 187.454 467.904C187.473 467.706 187.53 467.514 187.622 467.338C187.715 467.161 187.842 467.005 187.995 466.878C188.304 466.621 188.702 466.498 189.102 466.535C189.502 466.572 189.872 466.766 190.128 467.075C190.385 467.384 190.509 467.782 190.472 468.183C190.435 468.583 190.241 468.952 189.932 469.209V469.209Z" stroke="white" stroke-miterlimit="10"/>
</g>
<g opacity="0.3">
<path opacity="0.3" d="M96.0029 272.317C76.1638 265.446 48.6676 273.073 37.9839 279.187C37.9839 279.187 8.20266 294.456 5.16098 324.222C2.1193 353.988 24.2434 382.256 64.7083 389.883C105.173 397.51 132.654 357.817 132.654 329.579C132.654 301.341 115.857 279.187 96.0029 272.317ZM73.4248 342.078C63.2859 343.032 56.0524 336.767 57.9894 328.081C58.5696 325.681 59.7913 323.483 61.5239 321.724C63.2565 319.965 65.4348 318.71 67.8257 318.093C70.4097 317.264 73.2105 317.434 75.6756 318.568C78.1408 319.703 80.0913 321.72 81.1425 324.222C83.5637 329.533 83.5637 341.11 73.4248 342.078V342.078Z" stroke="white" stroke-miterlimit="10"/>
<path opacity="0.3" d="M129.885 328.565C125.058 319.879 124.104 316.973 124.104 310.224C124.104 303.475 120.246 296.226 116.856 293.82C112.86 290.962 109.145 287.729 105.764 284.165C103.406 281.764 100.52 279.945 97.3362 278.855C94.1522 277.765 90.7576 277.433 87.4226 277.885C82.1607 278.858 76.7649 278.858 71.503 277.885C64.2544 276.917 64.2544 274.995 57.5052 277.401C50.756 279.807 37.7115 284.165 37.7115 284.165C37.7115 284.165 23.7137 289.946 21.3076 296.272C18.9015 302.597 20.3391 314.128 18.4173 318.971C16.4954 323.813 11.1687 321.861 13.5899 332.969C16.0112 344.076 19.8549 350.341 19.8549 355.668C19.8549 360.994 28.5411 370.634 36.2739 370.634C44.0068 370.634 49.3032 372.147 56.5367 377.867C63.7701 383.588 69.566 385.6 78.7364 380.773C87.9069 375.946 98.9992 376.369 103.902 375.855C108.805 375.34 115.01 367.653 116.931 360.888C118.853 354.124 126.586 353.655 129.038 346.891C129.809 344.727 130.672 342.971 131.338 341.276C131.797 339.319 132.15 337.339 132.397 335.344C132.044 332.934 131.188 330.624 129.885 328.565ZM84.048 328.081C80.6734 330.487 84.5323 337.251 79.7049 342.548C74.8776 347.844 74.8776 342.078 73.4248 342.078C71.2407 342.296 69.0355 342.143 66.9026 341.625C64.9213 341.441 63.0175 340.764 61.364 339.657C58.4737 337.251 56.5367 335.798 52.6778 335.314C48.819 334.83 52.1936 330.971 54.5997 327.112C57.0058 323.253 57.5052 323.253 57.9894 318.91C58.4737 314.567 65.2229 314.083 65.2229 314.083C65.2229 314.083 68.1132 312.57 73.9091 314.083C79.7049 315.596 78.2522 318.426 83.0795 319.395C87.9069 320.363 87.4226 325.659 84.048 328.081V328.081Z" stroke="white" stroke-miterlimit="10"/>
<path opacity="0.3" d="M58.5037 337.448C56.7674 336.267 54.7659 335.534 52.6776 335.314C51.5729 335.178 51.0735 334.754 50.9676 334.149C48.1832 335.814 45.2878 337.529 42.2814 339.294C34.4911 343.802 26.9723 348.764 19.7639 354.154C19.8233 354.626 19.8536 355.101 19.8546 355.577C20.2001 358.411 21.4406 361.062 23.3957 363.143C24.8031 362.084 26.3315 360.949 28.0566 359.738C33.8222 355.622 46.1251 346.331 58.5037 337.448Z" stroke="white" stroke-miterlimit="10"/>
<path opacity="0.3" d="M35.4717 316.398C51.5578 304.02 61.4546 295.984 77.5408 289.159C85.1071 285.996 93.3242 282.955 100.497 280.246C97.9426 278.868 95.1387 278.014 92.2498 277.734C90.2371 278.415 88.1942 279.141 86.1967 279.883C69.5507 286.072 55.2502 291.641 33.6104 310.814C25.3479 318.123 18.4776 324.615 13.0601 329.866C13.179 330.883 13.3507 331.894 13.5746 332.893C13.7562 333.71 13.9378 334.482 14.1345 335.254C20.665 328.339 27.8064 322.028 35.4717 316.398V316.398Z" stroke="white" stroke-miterlimit="10"/>
<path opacity="0.3" d="M79.0237 317.094C80.0515 318.328 81.493 319.146 83.0793 319.394C83.648 319.5 84.1951 319.7 84.6985 319.985L85.5913 319.485C94.3834 314.718 109.925 306.471 121.38 299.646C120.496 297.848 119.337 296.199 117.945 294.758C112.346 297.513 106.399 300.706 101.677 303.399C95.4578 306.955 88.1033 311.495 79.0237 317.094Z" stroke="white" stroke-miterlimit="10"/>
<path opacity="0.3" d="M58.3675 368.364C68.9604 358.467 87.4375 355.365 110.333 343.622C119.413 338.931 126.616 335.329 131.686 332.575C131.219 331.182 130.616 329.839 129.885 328.565L129.355 327.596C114.798 332.817 88.9054 344.591 71.9718 353.519C62.5233 358.674 53.6115 364.757 45.3685 371.678C47.6469 372.334 49.8257 373.296 51.8453 374.538L58.3675 368.364Z" stroke="white" stroke-miterlimit="10"/>
</g>
<g opacity="0.3">
<path opacity="0.3" d="M428.212 3.71019C408.373 -3.16008 380.831 4.48196 370.238 10.5805C370.238 10.5805 340.457 25.8494 337.4 55.6307C334.343 85.4119 356.498 113.65 396.963 121.292C437.428 128.934 464.909 89.2254 464.909 60.9725C464.909 32.7197 448.066 10.5805 428.212 3.71019ZM405.634 73.4722C395.495 74.4407 388.261 68.1606 390.198 59.4744C390.78 57.079 392 54.8862 393.73 53.13C395.46 51.3737 397.633 50.1198 400.02 49.5019C402.596 48.6676 405.392 48.8258 407.858 49.9456C410.325 51.0653 412.284 53.0658 413.352 55.555C415.773 60.9271 415.773 72.5037 405.634 73.4722Z" stroke="white" stroke-miterlimit="10"/>
<path opacity="0.3" d="M462.094 59.9586C457.267 51.2724 456.299 48.3821 456.299 41.6177C456.299 34.8534 452.44 27.6351 449.065 25.2138C445.062 22.3645 441.347 19.1309 437.973 15.5591C435.612 13.162 432.726 11.3477 429.542 10.2602C426.359 9.17278 422.966 8.84202 419.632 9.29419C414.365 10.2666 408.964 10.2666 403.697 9.29419C396.464 8.32569 396.464 6.3887 389.714 8.80994C382.965 11.2312 369.921 15.5591 369.921 15.5591C369.921 15.5591 355.923 21.355 353.517 27.6653C351.111 33.9757 352.548 45.522 350.627 50.3645C348.705 55.207 343.378 53.27 345.799 64.3623C348.22 75.4546 352.064 81.7347 352.064 87.0614C352.064 92.3881 360.75 102.028 368.468 102.028C376.186 102.028 381.513 103.541 388.746 109.261C395.979 114.981 401.775 116.979 410.946 112.151C420.116 107.324 431.208 107.808 436.036 107.339C440.863 106.87 447.143 99.1222 449.065 92.373C450.987 85.6238 458.72 85.1395 461.171 78.3752C461.943 76.2112 462.821 74.4407 463.487 72.7609C463.946 70.804 464.299 68.8238 464.546 66.8289C464.222 64.3917 463.387 62.0504 462.094 59.9586ZM416.257 59.4744C412.868 61.8956 416.726 68.6448 411.914 73.9564C407.102 79.268 407.087 73.4722 405.634 73.4722C403.446 73.7018 401.235 73.5533 399.097 73.0333C397.124 72.8329 395.229 72.1579 393.573 71.0661C390.668 68.6448 388.746 67.2072 384.887 66.723C381.028 66.2387 384.403 62.3799 386.885 58.5816C389.366 54.7832 389.79 54.7076 390.274 50.3645C390.759 46.0214 397.478 45.4917 397.478 45.4917C397.478 45.4917 400.368 43.9784 406.164 45.4917C411.96 47.005 410.507 49.8348 415.334 50.7882C420.162 51.7416 419.632 57.0683 416.257 59.4744V59.4744Z" stroke="white" stroke-miterlimit="10"/>
<path opacity="0.3" d="M390.698 68.8567C388.975 67.6606 386.974 66.926 384.887 66.723C383.782 66.5868 383.283 66.163 383.177 65.5577L374.491 70.6877C366.701 75.2023 359.182 80.1693 351.973 85.5632C352.033 86.035 352.063 86.5101 352.064 86.9857C352.409 89.8203 353.65 92.4708 355.605 94.5521C357.012 93.4777 358.541 92.3427 360.266 91.1321C366.031 87.0311 378.334 77.7396 390.698 68.8567Z" stroke="white" stroke-miterlimit="10"/>
<path opacity="0.3" d="M367.681 47.807C383.767 35.4284 393.664 27.3778 409.75 20.568C417.241 17.3902 425.534 14.3636 432.707 11.6397C430.149 10.2686 427.347 9.41493 424.459 9.12769C422.447 9.82379 420.404 10.5502 418.406 11.2765C401.76 17.4658 387.475 23.0347 365.82 42.223C357.572 49.5321 350.687 56.0241 345.285 61.2751C345.403 62.2923 345.575 63.3025 345.799 64.3017C345.966 65.1189 346.162 65.9058 346.344 66.6775C352.871 59.755 360.013 53.4389 367.681 47.807V47.807Z" stroke="white" stroke-miterlimit="10"/>
<path opacity="0.3" d="M411.233 48.5032C412.26 49.7345 413.703 50.5472 415.289 50.7882C415.855 50.9009 416.401 51.0999 416.908 51.3784L417.801 50.8941C426.593 46.1273 442.134 37.88 453.589 31.0551C452.701 29.2551 451.543 27.6016 450.154 26.1521C444.555 28.9214 438.608 32.1144 433.872 34.808C427.743 38.3642 420.313 42.904 411.233 48.5032Z" stroke="white" stroke-miterlimit="10"/>
<path opacity="0.3" d="M390.577 99.7729C401.094 89.8609 419.647 86.7738 442.543 75.0157C451.622 70.3397 458.825 66.7381 463.895 63.9688C463.423 62.5781 462.82 61.2354 462.094 59.9586L461.564 59.0052C447.007 64.226 421.099 76.0145 404.181 84.9125C394.73 90.0639 385.818 96.1473 377.578 103.072C379.849 103.74 382.022 104.707 384.039 105.947C386.097 104 388.277 101.942 390.577 99.7729Z" stroke="white" stroke-miterlimit="10"/>
</g>
<g opacity="0.3">
<path opacity="0.3" d="M156.776 235.332C156.776 236.146 156.535 236.942 156.082 237.619C155.63 238.296 154.987 238.823 154.235 239.135C153.483 239.446 152.655 239.528 151.857 239.369C151.058 239.21 150.325 238.818 149.749 238.243C149.174 237.667 148.782 236.934 148.623 236.135C148.464 235.337 148.546 234.509 148.857 233.757C149.169 233.005 149.696 232.362 150.373 231.91C151.05 231.457 151.846 231.216 152.66 231.216C153.752 231.216 154.799 231.65 155.57 232.422C156.342 233.193 156.776 234.24 156.776 235.332Z" stroke="white" stroke-linecap="round" stroke-linejoin="round"/>
<path opacity="0.3" d="M47.0184 207.548C47.0182 208.428 46.7582 209.288 46.2709 210.02C45.7837 210.753 45.0909 211.325 44.2796 211.665C43.4682 212.005 42.5746 212.098 41.7107 211.931C40.8469 211.765 40.0514 211.347 39.4242 210.731C38.797 210.114 38.3659 209.326 38.1852 208.465C38.0045 207.604 38.0822 206.709 38.4085 205.892C38.7348 205.075 39.2952 204.372 40.0193 203.873C40.7434 203.373 41.599 203.099 42.4785 203.084C43.0711 203.074 43.6598 203.182 44.2101 203.402C44.7605 203.622 45.2616 203.949 45.6842 204.365C46.1068 204.78 46.4424 205.276 46.6714 205.822C46.9005 206.369 47.0184 206.956 47.0184 207.548V207.548Z" stroke="white" stroke-linecap="round" stroke-linejoin="round"/>
<path opacity="0.3" d="M153.689 297.755C155.394 297.755 156.776 296.373 156.776 294.668C156.776 292.963 155.394 291.581 153.689 291.581C151.984 291.581 150.602 292.963 150.602 294.668C150.602 296.373 151.984 297.755 153.689 297.755Z" stroke="white" stroke-linecap="round" stroke-linejoin="round"/>
<path opacity="0.3" d="M59.3667 433.223C59.3697 434.38 59.0292 435.511 58.3885 436.474C57.7479 437.437 56.8357 438.188 55.7678 438.632C54.6998 439.076 53.5241 439.193 52.3896 438.968C51.2551 438.743 50.2129 438.186 49.3951 437.369C48.5772 436.551 48.0206 435.509 47.7957 434.374C47.5708 433.24 47.6878 432.064 48.1317 430.996C48.5757 429.928 49.3268 429.016 50.2897 428.375C51.2526 427.734 52.384 427.394 53.5406 427.397C55.0857 427.397 56.5676 428.011 57.6602 429.103C58.7528 430.196 59.3667 431.678 59.3667 433.223V433.223Z" stroke="white" stroke-linecap="round" stroke-linejoin="round"/>
<path opacity="0.3" d="M152.66 395.149C154.933 395.149 156.776 393.306 156.776 391.033C156.776 388.76 154.933 386.917 152.66 386.917C150.387 386.917 148.544 388.76 148.544 391.033C148.544 393.306 150.387 395.149 152.66 395.149Z" stroke="white" stroke-linecap="round" stroke-linejoin="round"/>
<path opacity="0.3" d="M523.745 295.697C523.745 296.511 523.504 297.307 523.052 297.983C522.599 298.66 521.956 299.188 521.204 299.499C520.452 299.811 519.625 299.893 518.826 299.734C518.028 299.575 517.294 299.183 516.719 298.607C516.143 298.032 515.751 297.298 515.592 296.5C515.433 295.701 515.515 294.874 515.826 294.121C516.138 293.369 516.665 292.727 517.342 292.274C518.019 291.822 518.815 291.581 519.629 291.581C520.721 291.581 521.768 292.014 522.54 292.786C523.312 293.558 523.745 294.605 523.745 295.697V295.697Z" stroke="white" stroke-linecap="round" stroke-linejoin="round"/>
<path opacity="0.3" d="M479.845 206.171C479.848 207.463 479.468 208.726 478.752 209.801C478.037 210.875 477.018 211.714 475.826 212.209C474.633 212.705 473.321 212.835 472.054 212.584C470.788 212.333 469.624 211.711 468.711 210.798C467.798 209.885 467.176 208.722 466.925 207.455C466.674 206.189 466.805 204.876 467.3 203.683C467.796 202.491 468.634 201.473 469.709 200.757C470.784 200.042 472.047 199.661 473.338 199.664C475.064 199.664 476.719 200.35 477.939 201.57C479.16 202.79 479.845 204.446 479.845 206.171V206.171Z" stroke="white" stroke-linecap="round" stroke-linejoin="round"/>
<path opacity="0.3" d="M505.919 107.733C508.568 107.733 510.716 105.585 510.716 102.936C510.716 100.286 508.568 98.1385 505.919 98.1385C503.269 98.1385 501.122 100.286 501.122 102.936C501.122 105.585 503.269 107.733 505.919 107.733Z" stroke="white" stroke-linecap="round" stroke-linejoin="round"/>
<path opacity="0.3" d="M593.719 104.313C596.753 104.313 599.212 101.853 599.212 98.8196C599.212 95.7858 596.753 93.3264 593.719 93.3264C590.685 93.3264 588.226 95.7858 588.226 98.8196C588.226 101.853 590.685 104.313 593.719 104.313Z" stroke="white" stroke-linecap="round" stroke-linejoin="round"/>
<path opacity="0.3" d="M538.848 43.9482C538.848 44.6276 538.646 45.2917 538.269 45.8567C537.891 46.4216 537.355 46.8619 536.727 47.1219C536.099 47.3818 535.409 47.4499 534.742 47.3173C534.076 47.1848 533.464 46.8576 532.984 46.3772C532.503 45.8968 532.176 45.2847 532.043 44.6184C531.911 43.952 531.979 43.2613 532.239 42.6336C532.499 42.0059 532.939 41.4695 533.504 41.092C534.069 40.7145 534.733 40.5131 535.413 40.5131C536.324 40.5131 537.197 40.875 537.842 41.5192C538.486 42.1634 538.848 43.0371 538.848 43.9482V43.9482Z" stroke="white" stroke-linecap="round" stroke-linejoin="round"/>
<path opacity="0.3" d="M241.141 21.3096C243.79 21.3096 245.938 19.1619 245.938 16.5125C245.938 13.8632 243.79 11.7155 241.141 11.7155C238.492 11.7155 236.344 13.8632 236.344 16.5125C236.344 19.1619 238.492 21.3096 241.141 21.3096Z" stroke="white" stroke-linecap="round" stroke-linejoin="round"/>
<path opacity="0.3" d="M99.3626 36.972C101.636 36.972 103.479 35.1291 103.479 32.8559C103.479 30.5826 101.636 28.7397 99.3626 28.7397C97.0893 28.7397 95.2465 30.5826 95.2465 32.8559C95.2465 35.1291 97.0893 36.972 99.3626 36.972Z" stroke="white" stroke-linecap="round" stroke-linejoin="round"/>
<path opacity="0.3" d="M583.429 523.762C583.432 525.188 583.012 526.582 582.222 527.768C581.433 528.955 580.309 529.88 578.993 530.428C577.677 530.975 576.228 531.12 574.83 530.844C573.432 530.568 572.147 529.883 571.138 528.876C570.129 527.869 569.441 526.586 569.162 525.188C568.883 523.791 569.025 522.341 569.569 521.024C570.114 519.707 571.037 518.581 572.222 517.789C573.407 516.997 574.8 516.574 576.226 516.574C578.134 516.574 579.963 517.331 581.314 518.679C582.664 520.026 583.425 521.854 583.429 523.762V523.762Z" stroke="white" stroke-linecap="round" stroke-linejoin="round"/>
<path opacity="0.3" d="M508.325 513.139C510.03 513.139 511.412 511.757 511.412 510.052C511.412 508.347 510.03 506.965 508.325 506.965C506.62 506.965 505.238 508.347 505.238 510.052C505.238 511.757 506.62 513.139 508.325 513.139Z" stroke="white" stroke-linecap="round" stroke-linejoin="round"/>
<path opacity="0.3" d="M40.3448 542.83C42.0497 542.83 43.4319 541.447 43.4319 539.742C43.4319 538.037 42.0497 536.655 40.3448 536.655C38.6398 536.655 37.2577 538.037 37.2577 539.742C37.2577 541.447 38.6398 542.83 40.3448 542.83Z" stroke="white" stroke-linecap="round" stroke-linejoin="round"/>
<path opacity="0.3" d="M612.923 345.075C612.923 345.889 612.681 346.685 612.229 347.362C611.777 348.039 611.134 348.566 610.382 348.878C609.63 349.189 608.802 349.271 608.004 349.112C607.205 348.953 606.472 348.561 605.896 347.985C605.32 347.41 604.928 346.676 604.77 345.878C604.611 345.079 604.692 344.252 605.004 343.5C605.315 342.748 605.843 342.105 606.52 341.652C607.197 341.2 607.992 340.959 608.807 340.959C609.898 340.959 610.945 341.392 611.717 342.164C612.489 342.936 612.923 343.983 612.923 345.075V345.075Z" stroke="white" stroke-linecap="round" stroke-linejoin="round"/>
<path opacity="0.3" d="M451.729 259.348C454.763 259.348 457.222 256.888 457.222 253.855C457.222 250.821 454.763 248.361 451.729 248.361C448.695 248.361 446.236 250.821 446.236 253.855C446.236 256.888 448.695 259.348 451.729 259.348Z" stroke="white" stroke-linecap="round" stroke-linejoin="round"/>
</g>
<path d="M1 580.555H612.363" stroke="#263238" stroke-linecap="round" stroke-linejoin="round"/>
<path d="M297.602 73.6084C297.602 73.6084 278.731 59.2171 265.823 66.1479C252.915 73.0787 263.341 82.5215 263.341 82.5215C263.341 82.5215 253.429 83.5052 254.912 86.4863C255.733 88.0727 256.397 89.735 256.895 91.4499C256.895 91.4499 232.092 95.9897 233.091 102.86C234.09 109.73 235.573 110.29 235.573 110.29C235.573 110.29 222.18 114.27 224.163 119.718C226.145 125.166 236.057 126.664 236.057 126.664C236.057 126.664 213.736 140.056 210.331 156.43C206.927 172.804 215.779 169.323 215.779 169.323C215.779 169.323 201.902 181.232 207.85 187.679C213.797 194.126 220.243 192.219 220.243 192.219C220.243 192.219 212.314 210.075 215.779 214.04C219.245 218.005 222.725 217.521 222.725 217.521C222.725 217.521 196.999 233.395 207.85 244.76C218.7 256.124 227.689 244.76 227.689 244.76C227.689 244.76 218.76 264.099 228.687 266.581C238.615 269.063 240.582 267.565 240.582 267.565C240.582 267.565 229.671 278.491 249.026 281.457C268.381 284.423 269.849 281.457 269.849 281.457C269.849 281.457 264.9 290.385 273.329 294.365C281.758 298.345 287.705 288.403 287.705 288.403C287.705 288.403 290.187 293.866 301.597 293.366C313.007 292.867 315.489 287.419 315.489 287.419C315.489 287.419 321.935 299.813 329.88 295.349C337.825 290.884 339.293 286.92 339.293 286.92C340.914 288.476 342.896 289.608 345.061 290.212C347.227 290.817 349.508 290.876 351.702 290.385L359.631 288.872C359.631 288.872 368.559 294.335 376.005 290.854C383.45 287.374 381.967 281.926 381.967 281.926C381.967 281.926 390.396 287.389 396.343 284.408C402.29 281.426 402.29 277.961 402.29 277.961C402.29 277.961 410.235 281.426 413.7 275.479C414.719 273.859 415.301 272.002 415.388 270.09C415.476 268.178 415.066 266.275 414.2 264.569C414.2 264.569 423.627 265.068 424.127 262.586C424.626 260.104 418.664 254.142 418.664 254.142C418.664 254.142 431.073 265.552 429.575 248.694C428.78 238.806 425.167 229.353 419.163 221.455C419.163 221.455 426.609 224.482 427.093 219.942C427.477 217.581 427.134 215.158 426.109 212.996C426.109 212.996 435.537 214.979 439.002 201.586C440.018 197.842 439.847 193.876 438.513 190.233C437.18 186.59 434.749 183.451 431.557 181.248C431.557 181.248 442.967 174.801 441.484 169.838C440.001 164.874 438.019 163.391 438.019 163.391C438.019 163.391 445.449 158.427 440.001 154.962C435.954 152.588 431.615 150.751 427.093 149.499C427.093 149.499 440.985 149 436.521 135.108C432.056 121.216 417.181 109.821 413.7 108.323C410.22 106.825 427.592 102.875 415.683 99.8939C403.773 96.9128 400.308 96.8674 400.308 96.8674C400.308 96.8674 410.734 87.9391 402.29 83.9743C393.846 80.0095 389.912 82.0373 389.912 82.0373C389.912 82.0373 392.938 74.592 383.465 74.0926C373.992 73.5932 368.575 77.5731 368.575 77.5731C368.575 77.5731 372.554 59.7165 364.11 55.7517C355.666 51.7869 341.729 69.1745 341.729 69.1745C341.729 69.1745 334.783 54.2838 330.319 58.748C325.855 63.2122 325.855 66.6927 325.855 66.6927C325.855 66.6927 307.998 48.836 301.552 58.2638C295.105 67.6915 297.602 73.6084 297.602 73.6084Z" fill="#263238" stroke="#263238" stroke-linecap="round" stroke-linejoin="round"/>
<path d="M452.97 419.755C452.97 419.755 468.617 473.854 472.643 483.312C476.668 492.77 475.155 501.971 457.51 507.01C439.865 512.049 428.243 500.458 424.717 485.824C421.191 471.191 404.545 426.307 404.545 426.307L452.97 419.755Z" fill="#C2C2C2" stroke="#263238" stroke-linecap="round" stroke-linejoin="round"/>
<path d="M452.97 419.755L404.545 426.307C404.545 426.307 406.86 432.557 409.948 441.168L458.009 437.067C455.119 427.215 452.97 419.755 452.97 419.755Z" fill="#263238" stroke="#263238" stroke-linecap="round" stroke-linejoin="round"/>
<path d="M196.712 419.755C196.712 419.755 167.702 497.689 170.109 507.146C172.515 516.604 189.66 527.697 208.818 523.656C227.976 519.616 234.044 486.339 235.058 483.312C236.072 480.286 251.19 424.794 251.19 424.794L196.712 419.755Z" fill="#C2C2C2" stroke="#263238" stroke-linecap="round" stroke-linejoin="round"/>
<path d="M251.19 424.794L196.712 419.755C196.712 419.755 193.564 428.199 189.433 439.881L242.322 457.239C246.605 441.622 251.19 424.794 251.19 424.794Z" fill="#263238" stroke="#263238" stroke-linecap="round" stroke-linejoin="round"/>
<path d="M297.602 242.263C297.602 242.263 298.101 277.477 294.575 288.387C291.049 299.298 279.231 303.732 279.231 303.732C279.231 303.732 229.625 292.821 219.713 300.705C209.802 308.59 201.357 345.846 199.859 351.794C198.361 357.741 173.074 428.184 173.074 428.184C173.074 428.184 193.912 433.147 208.788 437.112C223.663 441.077 242.08 444.058 242.08 444.058L248.526 504.075L223.224 580.465H429.03L396.282 495.146L403.228 434.615L473.142 424.31C473.142 424.31 442.876 346.422 434.447 327.581C426.018 308.741 418.664 296.332 403.743 296.816C388.822 297.301 376.504 303.278 370.012 305.26C366.667 306.433 363.126 306.947 359.585 306.774C356.46 303.957 353.962 300.513 352.255 296.668C350.547 292.822 349.668 288.661 349.674 284.453C349.674 270.062 349.174 257.214 349.174 257.214C340.025 259.525 330.425 259.358 321.361 256.731C312.297 254.103 304.096 249.109 297.602 242.263Z" fill="#DB3535" stroke="#263238" stroke-linecap="round" stroke-linejoin="round"/>
<path d="M386.885 408.148C386.885 408.148 402.018 376.369 419.42 356.697" stroke="#263238" stroke-linecap="round" stroke-linejoin="round"/>
<path d="M400.505 373.343C400.505 373.343 410.341 355.94 414.881 349.887" stroke="#263238" stroke-linecap="round" stroke-linejoin="round"/>
<path d="M231.774 361.237C231.774 361.237 252.204 397.555 254.474 408.905" stroke="#263238" stroke-linecap="round" stroke-linejoin="round"/>
<path d="M237.827 389.989C237.827 389.989 249.933 410.418 253.717 421.011" stroke="#263238" stroke-linecap="round" stroke-linejoin="round"/>
<path d="M372.766 473.809C361.386 485.582 344.165 502.955 333.239 511.822" stroke="#263238" stroke-linecap="round" stroke-linejoin="round"/>
<path d="M384.313 461.688C384.313 461.688 382.012 464.139 378.259 468.028" stroke="#263238" stroke-linecap="round" stroke-linejoin="round"/>
<path d="M309.133 518.012L303.912 521.281" stroke="#263238" stroke-linecap="round" stroke-linejoin="round"/>
<path d="M346.95 490.062C336.725 498.957 325.888 507.123 314.52 514.501" stroke="#263238" stroke-linecap="round" stroke-linejoin="round"/>
<path d="M330.894 364.263C365.896 360.086 408.071 334.996 430.876 319.848C423.763 305.427 416.469 296.393 403.743 296.816C388.852 297.316 376.504 303.278 370.012 305.26C366.667 306.433 363.126 306.947 359.585 306.774C356.46 303.957 353.962 300.513 352.255 296.668C350.547 292.822 349.668 288.661 349.673 284.453C349.673 270.062 349.174 257.214 349.174 257.214C340.025 259.525 330.425 259.358 321.361 256.731C312.297 254.103 304.096 249.109 297.602 242.263C297.602 242.263 298.101 277.477 294.575 288.387C291.049 299.298 279.231 303.732 279.231 303.732C279.231 303.732 229.625 292.821 219.713 300.705C216.581 303.202 213.66 308.605 210.952 315.006C234.044 331.622 291.246 369 330.894 364.263Z" fill="#C2C2C2" stroke="#263238" stroke-linecap="round" stroke-linejoin="round"/>
<path d="M295.604 249.481C295.604 249.481 319.65 279.747 328.246 280.972C336.841 282.198 351.717 260.922 351.717 260.922C351.717 260.922 317.94 270.092 295.604 249.481Z" fill="#263238" stroke="#263238" stroke-linecap="round" stroke-linejoin="round"/>
<path d="M271.785 225.39C271.785 225.39 272.784 230.853 276.325 232.835C279.866 234.818 285.738 232.835 285.738 232.835C285.738 232.835 294.182 250.192 306.076 258.561C317.971 266.929 325.915 273.951 338.823 270.47C351.732 266.99 363.127 249.632 369.089 240.704C373.558 233.897 376.753 226.334 378.517 218.383C379.515 213.919 379.515 190.115 377.003 175.225C374.491 160.334 360.13 140.51 351.202 133.564C342.274 126.618 333.345 123.637 318.47 132.051C303.594 140.465 290.187 154.372 281.758 177.192C273.329 200.012 271.785 211.997 271.785 225.39Z" fill="#C2C2C2" stroke="#263238" stroke-linecap="round" stroke-linejoin="round"/>
<path d="M320.906 189.177C320.906 189.177 313.461 182.731 304.033 189.677" stroke="#263238" stroke-width="2" stroke-linecap="round" stroke-linejoin="round"/>
<path d="M347.192 186.211C347.192 186.211 356.62 181.248 362.567 186.695" stroke="#263238" stroke-width="2" stroke-linecap="round" stroke-linejoin="round"/>
<path d="M322.889 166.357C322.889 166.357 309.98 159.971 299.115 174.801" stroke="#263238" stroke-width="2" stroke-linecap="round" stroke-linejoin="round"/>
<path d="M344.211 165.373C344.211 165.373 356.62 157.429 363.066 170.821" stroke="#263238" stroke-width="2" stroke-linecap="round" stroke-linejoin="round"/>
<path d="M347.192 193.157C347.192 193.157 348.176 199.604 339.747 203.069" stroke="#263238" stroke-linecap="round" stroke-linejoin="round"/>
<path d="M317.426 205.051C317.426 205.051 317.426 217.945 310.979 223.407" stroke="#263238" stroke-linecap="round" stroke-linejoin="round"/>
<path d="M317.426 212.936C322.838 215.69 328.732 217.371 334.783 217.884C345.209 218.883 350.657 215.417 354.138 210.953" stroke="#263238" stroke-linecap="round" stroke-linejoin="round"/>
<path d="M341.245 134.124C341.245 134.124 358.103 137.59 366.971 163.391C373.426 182.252 376.937 201.994 377.382 221.924C377.382 221.924 390.29 215.962 387.309 188.194C384.328 160.425 377.382 145.534 366.471 136.107C355.561 126.679 345.649 124.197 342.667 125.196C339.686 126.195 332.317 126.18 341.245 134.124Z" fill="white" stroke="#263238" stroke-linecap="round" stroke-linejoin="round"/>
<path d="M344.211 134.624C344.211 134.624 329.577 132.687 317.925 139.572C301.627 149.212 288.976 169.626 283.029 186.983C277.082 204.34 271.786 225.39 271.786 225.39C271.786 225.39 269.319 216.961 268.32 198.151C267.321 179.341 277.945 154.599 292.336 141.691C306.727 128.782 322.889 121.276 333.3 121.276C343.711 121.276 352.156 127.678 344.211 134.624Z" fill="white" stroke="#263238" stroke-linecap="round" stroke-linejoin="round"/>
<path d="M271.437 222.182C271.437 222.182 281.001 157.459 300.19 136.061" stroke="#263238" stroke-linecap="round" stroke-linejoin="round"/>
<path d="M373.266 145.065C373.266 145.065 384.918 187.876 377.397 221.924" stroke="#263238" stroke-linecap="round" stroke-linejoin="round"/>
<path d="M359.873 290.113C359.154 291.215 358.217 292.157 357.119 292.882C351.656 296.362 351.656 290.4 351.656 290.4C351.002 292.299 349.81 293.967 348.225 295.201C346.639 296.434 344.729 297.179 342.728 297.346C335.782 297.845 336.781 292.882 336.781 292.882C336.297 294.746 335.202 296.394 333.671 297.563C332.141 298.731 330.262 299.353 328.337 299.328C321.391 299.328 323.872 295.863 323.872 295.863C323.872 295.863 316.442 297.845 312.962 293.381C312.245 292.548 311.735 291.557 311.472 290.49C311.209 289.423 311.201 288.308 311.448 287.237C310.51 288.509 308.74 289.553 305.486 287.918C300.946 285.664 302.46 279.989 303.428 277.325C295.961 281.608 289.962 288.045 286.214 295.794C282.466 303.542 281.144 312.242 282.422 320.754C283.7 329.267 287.517 337.195 293.375 343.502C299.233 349.808 306.858 354.2 315.253 356.102C323.648 358.004 332.421 357.327 340.425 354.16C348.429 350.994 355.291 345.485 360.112 338.354C364.934 331.224 367.49 322.804 367.448 314.197C367.405 305.589 364.765 297.195 359.873 290.113ZM324.841 323.738C323.04 323.762 321.273 323.25 319.764 322.267C318.255 321.284 317.072 319.874 316.367 318.217C315.661 316.56 315.464 314.731 315.8 312.962C316.137 311.193 316.992 309.564 318.257 308.282C319.521 307 321.139 306.123 322.903 305.763C324.668 305.402 326.5 305.575 328.166 306.258C329.832 306.942 331.257 308.106 332.26 309.601C333.264 311.097 333.799 312.857 333.799 314.658C333.8 317.045 332.86 319.336 331.183 321.036C329.506 322.735 327.228 323.706 324.841 323.738Z" fill="white" stroke="#263238" stroke-linecap="round" stroke-linejoin="round"/>
<path d="M357.119 292.852C351.656 296.332 351.656 290.37 351.656 290.37C351.002 292.269 349.81 293.937 348.225 295.17C346.639 296.404 344.729 297.149 342.728 297.316C335.782 297.815 336.78 292.852 336.78 292.852C336.297 294.716 335.202 296.364 333.671 297.532C332.14 298.701 330.262 299.323 328.336 299.298C321.39 299.298 323.872 295.833 323.872 295.833C323.872 295.833 316.442 297.815 312.961 293.351C312.245 292.517 311.735 291.527 311.472 290.46C311.209 289.392 311.201 288.278 311.448 287.207C310.51 288.478 308.739 289.522 305.486 287.888C300.946 285.633 302.459 279.959 303.428 277.295C299.318 279.722 295.641 282.816 292.547 286.45C293.334 287.283 293.486 289.477 290.853 295.227C285.677 306.456 281.773 317.261 287.826 321.574C293.879 325.886 299.493 331.516 299.493 341.882C299.537 345.047 300.325 348.157 301.794 350.961C307.082 354.415 313.083 356.629 319.348 357.438C325.401 354.412 331.999 351.476 339.232 354.003C339.852 354.215 340.443 354.412 341.033 354.563C346.384 352.329 351.224 349.029 355.258 344.863C356.559 335.95 352.11 326.113 360.842 319.879C363.187 318.199 365.381 316.64 367.455 315.036V314.643C367.484 305.868 364.846 297.292 359.888 290.052C359.168 291.166 358.225 292.12 357.119 292.852ZM324.841 323.738C323.04 323.762 321.273 323.25 319.764 322.267C318.255 321.284 317.072 319.874 316.366 318.217C315.661 316.56 315.463 314.731 315.8 312.962C316.136 311.193 316.992 309.564 318.256 308.282C319.521 307 321.139 306.123 322.903 305.763C324.668 305.402 326.5 305.575 328.166 306.258C329.832 306.942 331.257 308.106 332.26 309.601C333.263 311.097 333.799 312.857 333.799 314.658C333.8 317.045 332.86 319.336 331.183 321.036C329.506 322.735 327.228 323.706 324.841 323.738Z" fill="#DB3535" stroke="#263238" stroke-linecap="round" stroke-linejoin="round"/>
<path d="M350.567 346.512C350.347 346.252 350.07 346.046 349.758 345.909C349.446 345.773 349.106 345.71 348.766 345.725C349.189 344.212 349.78 342.321 350.279 340.565C351.187 337.675 352.216 334.406 353.154 330.865C353.684 328.913 354.471 325.947 352.261 324.812C350.052 323.677 348.024 325.735 343.802 330.487C341.124 333.513 334.98 340.399 332.619 340.232C332.271 338.28 335.782 331.455 338.127 326.9C341.623 320.075 345.24 313.039 345.452 307.954C345.542 305.881 344.877 304.61 343.469 304.171C341.018 303.399 339.353 305.503 333.799 314.28C333.799 314.431 333.799 314.582 333.799 314.718C333.802 316.521 333.269 318.284 332.266 319.783C331.264 321.281 329.838 322.447 328.17 323.132C322.813 331.41 315.958 341.14 312.296 341.458H311.781C311.511 341.462 311.242 341.432 310.979 341.367C310.056 339.566 314.899 331.047 317.501 326.461C318.319 324.948 319.121 323.601 319.862 322.239C318.631 321.4 317.626 320.271 316.934 318.952C316.243 317.632 315.887 316.163 315.897 314.673C315.897 314.325 315.897 313.977 315.897 313.629C314.687 314.567 313.234 315.747 311.479 317.215C308.329 319.999 304.964 322.529 301.415 324.782C303.604 320.9 305.988 317.133 308.558 313.493C311.677 309.111 314.518 304.536 317.063 299.797C317.729 298.711 318.001 297.429 317.834 296.166C316.56 295.972 315.348 295.485 314.293 294.743C312.568 295.697 309.996 298.647 304.502 304.958C301.688 308.166 297.799 312.615 295.423 314.991C296.778 311.274 298.386 307.654 300.235 304.156C303.14 298.277 306.786 292.795 311.085 287.843C311.219 287.69 311.327 287.516 311.403 287.328C310.45 288.584 308.694 289.568 305.486 287.964L305.214 287.797C301.719 292.261 298.677 297.061 296.134 302.128C289.884 314.612 289.551 317.896 291.11 319.848C291.554 320.376 292.146 320.758 292.81 320.944C293.474 321.13 294.179 321.112 294.833 320.893C296.346 320.514 298.464 318.562 303.292 313.175C297.103 322.406 295.12 326.083 296.649 328.58C297.028 329.149 297.571 329.591 298.205 329.847C298.839 330.104 299.536 330.163 300.205 330.018C303.534 329.564 308.18 325.902 314.369 320.787L316.321 319.183C315.459 320.787 314.49 322.497 313.491 324.267C307.953 334.028 304.76 340.217 307.09 343.94C307.801 345.075 309.345 346.361 312.614 346.089C319.045 345.544 326.672 334.149 335.979 319.319C336.932 317.805 337.961 316.156 339.005 314.612C337.658 317.881 335.782 321.528 334.042 324.933C329.502 333.831 326.959 339.037 328.488 342.381C328.753 342.968 329.151 343.485 329.65 343.892C330.148 344.299 330.735 344.585 331.363 344.727C335.827 345.846 340.942 340.595 347.147 333.604L347.918 332.742C347.237 335.102 346.541 337.281 345.906 339.355C343.515 346.997 342.622 349.857 344.907 351.355C345.35 351.665 345.879 351.829 346.42 351.824H346.889C348.262 350.969 349.59 350.044 350.869 349.055C351.076 348.649 351.158 348.19 351.104 347.737C351.05 347.285 350.863 346.858 350.567 346.512Z" fill="white" stroke="#263238" stroke-linecap="round" stroke-linejoin="round"/>
<path d="M263.538 361.479C265.995 358.986 268.692 356.74 271.589 354.775C274.615 353.11 280.668 346.074 282.984 341.715C285.299 337.357 286.994 333.332 288.674 337.024C289.636 339.151 290.077 341.477 289.961 343.808C289.845 346.14 289.176 348.41 288.008 350.432C285.329 354.775 277.611 361.812 275.901 363.824C274.191 365.837 270.862 374.22 270.862 374.22C269.374 374.284 267.893 373.98 266.55 373.337C265.206 372.693 264.042 371.728 263.16 370.528C260.527 366.518 260.527 364.505 263.538 361.479Z" fill="#C2C2C2" stroke="#263238" stroke-linecap="round" stroke-linejoin="round"/>
<path d="M283.195 329.064C283.195 329.064 261.873 337.993 259.392 342.457C256.91 346.921 246.998 365.277 246.499 370.74C245.999 376.203 254.927 378.67 262.857 401.005C264.158 404.652 259.83 407.452 258.393 409.934C256.955 412.416 215.734 449.612 199.859 462.52C183.985 475.428 170.108 495.812 170.108 507.162C170.108 518.511 182.502 533.947 194.911 534.945C207.32 535.944 219.714 527.5 228.642 510.627C237.57 493.754 274.267 432.754 279.231 425.884C284.194 419.013 288.159 413.974 288.658 406.544C288.952 401.751 288.952 396.945 288.658 392.153C288.658 392.153 307.998 365.368 307.998 362.387C307.998 359.406 313.96 352.475 312.962 349.993C311.963 347.511 309.496 348.994 307.014 350.977C304.533 352.959 277.248 372.813 277.248 372.813C277.248 372.813 288.159 354.457 291.14 351.975C294.121 349.494 303.534 341.065 302.051 339.082C300.568 337.1 298.585 337.569 295.604 340.066C292.623 342.563 281.213 349.993 278.247 353.958C275.281 357.923 263.856 365.776 263.856 365.776C263.856 365.776 265.838 352.868 268.819 347.92C271.8 342.971 285.677 337.493 287.66 333.529C289.642 329.564 286.676 327.082 283.195 329.064Z" fill="#C2C2C2" stroke="#263238" stroke-linecap="round" stroke-linejoin="round"/>
<path d="M252.96 378.639C254.088 380.702 255.634 382.506 257.5 383.936C259.319 385.3 261.37 386.326 263.553 386.962C263.553 386.962 268.093 389.989 271.12 392.259C273.238 393.774 275.523 395.043 277.929 396.042" stroke="#263238" stroke-linecap="round" stroke-linejoin="round"/>
<path d="M307.65 361.237C307.65 361.237 286.676 379.229 282.711 382.695L307.65 361.237Z" fill="white"/>
<path d="M307.65 361.237C307.65 361.237 286.676 379.229 282.711 382.695" stroke="#263238" stroke-linecap="round" stroke-linejoin="round"/>
<path d="M398.325 345.983C398.325 345.983 388.413 336.903 383.465 333.453C378.517 330.003 368.892 324.994 366.259 326.159C363.626 327.324 364.746 329.079 366.562 330.532C368.378 331.985 372.615 334.618 377.926 338.098C383.238 341.579 398.038 348.01 398.038 348.01C398.038 348.01 400.958 349.13 398.325 345.983Z" fill="#C2C2C2" stroke="#263238" stroke-linecap="round" stroke-linejoin="round"/>
<path d="M359.646 343.456C359.646 343.456 357.18 338.492 360.645 337.993C362.452 337.67 364.301 337.67 366.108 337.993C366.108 337.993 365.382 333.211 366.88 331.728C368.378 330.245 372.085 331.304 375.051 334.285C378.017 337.266 402.805 345.937 403.304 351.884C403.804 357.832 376.065 411.901 376.065 411.901C376.065 411.901 421.206 450.595 435.083 459.524C448.96 468.452 474.262 480.362 476.743 492.816C479.225 505.27 474.262 516.635 461.868 519.601C449.474 522.567 446.493 523.581 431.602 511.671C416.712 499.762 369.558 441.728 361.175 427.336C352.791 412.945 353.23 413.46 354.229 403.033C355.228 392.607 360.675 372.283 360.675 372.283C357.732 367.83 355.084 363.19 352.746 358.392C349.719 351.945 350.264 348.964 352.746 347.481C354.766 346.459 356.946 345.789 359.192 345.498L359.646 343.456Z" fill="#C2C2C2" stroke="#263238" stroke-linecap="round" stroke-linejoin="round"/>
<path d="M359.101 400.99L368.514 375.688L355.106 345.937C355.106 345.937 355.606 342.911 359.57 343.456C363.535 344 379.667 362.235 382.148 364.717C384.63 367.199 383.389 376.687 379.909 384.617" fill="#C2C2C2"/>
<path d="M359.101 400.99L368.514 375.688L355.106 345.937C355.106 345.937 355.606 342.911 359.57 343.456C363.535 344 379.667 362.235 382.148 364.717C384.63 367.199 383.389 376.687 379.909 384.617" stroke="#263238" stroke-linecap="round" stroke-linejoin="round"/>
<path d="M366.047 337.993L391.879 352.444C395.965 354.745 398.008 357.559 396.222 363.431" stroke="#263238" stroke-linecap="round" stroke-linejoin="round"/>
<path d="M320.816 228.205C320.816 228.564 320.709 228.915 320.51 229.213C320.31 229.512 320.026 229.745 319.695 229.882C319.363 230.02 318.998 230.056 318.645 229.986C318.293 229.916 317.97 229.743 317.716 229.489C317.462 229.235 317.289 228.911 317.219 228.559C317.149 228.207 317.185 227.841 317.322 227.51C317.459 227.178 317.692 226.894 317.991 226.695C318.289 226.495 318.641 226.389 319 226.389C319.48 226.393 319.94 226.585 320.279 226.925C320.619 227.265 320.812 227.724 320.816 228.205Z" fill="#DB3535" stroke="#263238" stroke-linecap="round" stroke-linejoin="round"/>
<path d="M309.723 231.125C310.225 231.125 310.631 230.719 310.631 230.217C310.631 229.716 310.225 229.309 309.723 229.309C309.222 229.309 308.815 229.716 308.815 230.217C308.815 230.719 309.222 231.125 309.723 231.125Z" fill="#DB3535" stroke="#263238" stroke-linecap="round" stroke-linejoin="round"/>
<path d="M322.237 636.88C372.734 636.88 413.669 620.003 413.669 599.184C413.669 578.365 372.734 561.488 322.237 561.488C271.741 561.488 230.805 578.365 230.805 599.184C230.805 620.003 271.741 636.88 322.237 636.88Z" fill="#263238" stroke="#263238" stroke-linecap="round" stroke-linejoin="round"/>
<path d="M322.238 631.689C378.96 631.689 424.943 614.812 424.943 593.993C424.943 573.175 378.96 556.298 322.238 556.298C265.515 556.298 219.532 573.175 219.532 593.993C219.532 614.812 265.515 631.689 322.238 631.689Z" fill="white" stroke="#263238" stroke-linecap="round" stroke-linejoin="round"/>
<path d="M322.238 618.69C361.853 618.69 393.967 607.24 393.967 593.116C393.967 578.991 361.853 567.541 322.238 567.541C282.623 567.541 250.508 578.991 250.508 593.116C250.508 607.24 282.623 618.69 322.238 618.69Z" fill="white" stroke="#263238" stroke-linecap="round" stroke-linejoin="round"/>
<path d="M384.748 569.624C387.002 556.367 372.572 542.855 352.518 539.445C332.463 536.036 314.378 544.018 312.124 557.275C309.87 570.532 324.3 584.044 344.355 587.454C364.409 590.864 382.494 582.881 384.748 569.624Z" fill="white" stroke="#263238" stroke-linecap="round" stroke-linejoin="round"/>
<path d="M357.815 558.568C357.3 561.594 353.275 563.319 348.735 562.547C344.195 561.776 341.017 558.764 341.517 555.798C342.016 552.832 346.057 551.047 350.596 551.803C355.136 552.56 358.314 555.602 357.815 558.568Z" fill="white" stroke="#263238" stroke-linecap="round" stroke-linejoin="round"/>
<path d="M290.686 607.764C311.371 607.764 328.139 597.418 328.139 584.656C328.139 571.894 311.371 561.549 290.686 561.549C270.001 561.549 253.232 571.894 253.232 584.656C253.232 597.418 270.001 607.764 290.686 607.764Z" fill="white" stroke="#263238" stroke-linecap="round" stroke-linejoin="round"/>
<path d="M295.029 586.2C318.263 586.2 337.098 574.431 337.098 559.914C337.098 545.397 318.263 533.629 295.029 533.629C271.795 533.629 252.96 545.397 252.96 559.914C252.96 574.431 271.795 586.2 295.029 586.2Z" fill="#263238" stroke="#263238" stroke-linecap="round" stroke-linejoin="round"/>
<path d="M269.227 558.265L275.144 557.826" stroke="white" stroke-linecap="round" stroke-linejoin="round"/>
<path d="M266.382 551.682L270.317 553.876" stroke="white" stroke-linecap="round" stroke-linejoin="round"/>
<path d="M277.99 547.975L274.04 549.503" stroke="white" stroke-linecap="round" stroke-linejoin="round"/>
<path d="M267.911 544.025L273.162 544.252" stroke="white" stroke-linecap="round" stroke-linejoin="round"/>
<path d="M290.898 541.407L288.93 543.147" stroke="white" stroke-linecap="round" stroke-linejoin="round"/>
<path d="M279.73 541.619L284.996 544.464" stroke="white" stroke-linecap="round" stroke-linejoin="round"/>
<path d="M300.976 541.407L303.821 543.813" stroke="white" stroke-linecap="round" stroke-linejoin="round"/>
<path d="M313.884 545.341L308.421 546.658" stroke="white" stroke-linecap="round" stroke-linejoin="round"/>
<path d="M319.135 552.121L323.524 552.787" stroke="white" stroke-linecap="round" stroke-linejoin="round"/>
<path d="M319.362 544.252L325.264 547.748" stroke="white" stroke-linecap="round" stroke-linejoin="round"/>
<path d="M313.007 538.335L308.421 538.547" stroke="white" stroke-linecap="round" stroke-linejoin="round"/>
<path d="M290.459 536.58H295.71" stroke="white" stroke-linecap="round" stroke-linejoin="round"/>
<path d="M334.026 556.51L328.336 558.038" stroke="white" stroke-linecap="round" stroke-linejoin="round"/>
<path d="M329.864 549.503L331.62 553.438" stroke="white" stroke-linecap="round" stroke-linejoin="round"/>
<path d="M323.963 559.793L319.801 563.516" stroke="white" stroke-linecap="round" stroke-linejoin="round"/>
<path d="M298.782 563.516L308.421 564.833" stroke="white" stroke-linecap="round" stroke-linejoin="round"/>
<path d="M310.6 558.477L315.413 557.387" stroke="white" stroke-linecap="round" stroke-linejoin="round"/>
<path d="M279.291 558.689L286.085 562.199" stroke="white" stroke-linecap="round" stroke-linejoin="round"/>
<path d="M294.62 567.239L287.614 568.328" stroke="white" stroke-linecap="round" stroke-linejoin="round"/>
<path d="M303.155 570.084L305.349 572.702" stroke="white" stroke-linecap="round" stroke-linejoin="round"/>
<path d="M318.273 566.8L313.672 569.418" stroke="white" stroke-linecap="round" stroke-linejoin="round"/>
<path d="M258.06 555.405L259.149 558.265" stroke="white" stroke-linecap="round" stroke-linejoin="round"/>
<path d="M330.303 563.955L331.847 565.695" stroke="white" stroke-linecap="round" stroke-linejoin="round"/>
<path d="M303.17 554.058C303.17 556.298 299.538 558.114 295.044 558.114C290.549 558.114 286.933 556.298 286.933 554.058C286.933 551.818 290.565 550.002 295.044 550.002C299.523 550.002 303.17 551.818 303.17 554.058Z" fill="white" stroke="#263238" stroke-linecap="round" stroke-linejoin="round"/>
<path d="M295.029 586.2C314.232 586.2 330.409 578.164 335.449 567.178C334.175 567.271 332.948 567.699 331.892 568.419C328.139 571.234 327.822 574.669 324.704 573.095C321.587 571.521 319.393 571.234 315.034 574.033C310.676 576.833 307.226 580.283 300.673 576.53C294.121 572.777 287.251 574.033 281.621 577.166C275.992 580.298 271.634 570.916 271.028 565.604C270.423 560.293 263.855 565.302 258.226 563.743C255.593 563.001 254.065 560.202 253.172 557.433C253.046 558.254 252.98 559.083 252.975 559.914C252.96 574.427 271.876 586.2 295.029 586.2Z" fill="white" stroke="#263238" stroke-linecap="round" stroke-linejoin="round"/>
<path d="M347.812 617.434C370.227 617.434 388.398 605.693 388.398 591.209C388.398 576.725 370.227 564.984 347.812 564.984C325.397 564.984 307.226 576.725 307.226 591.209C307.226 605.693 325.397 617.434 347.812 617.434Z" fill="white" stroke="#263238" stroke-linecap="round" stroke-linejoin="round"/>
<path d="M347.812 564.984C325.4 564.984 307.226 576.727 307.226 591.209C307.28 595.237 308.628 599.142 311.069 602.347C312.763 602.874 314.508 603.219 316.275 603.376C322.828 604.011 325.022 597.444 332.513 601.862C340.003 606.281 342.818 610.942 349.991 606.553C357.164 602.165 360.917 599.365 366.531 602.18C372.145 604.995 373.719 602.801 376.216 599.063C378.713 595.325 378.713 594.689 383.086 594.689C387.217 594.689 386.884 590.77 387.898 587.123C384.857 574.608 368.074 564.984 347.812 564.984Z" fill="#DB3535" stroke="#263238" stroke-linecap="round" stroke-linejoin="round"/>
<path d="M307.226 591.254C307.226 591.875 307.226 592.495 307.332 593.101C315.17 580.026 327.201 571.188 335.494 566.27C333.859 566.603 332.285 566.997 330.742 567.466C321.445 573.436 313.455 581.23 307.256 590.377C307.241 590.619 307.226 590.906 307.226 591.254Z" fill="white" stroke="#263238" stroke-width="0.5" stroke-linecap="round" stroke-linejoin="round"/>
<path d="M328.169 600.334C335.585 579.663 352.382 570.749 363.504 567.042C362.627 566.8 361.734 566.588 360.811 566.391C349.386 570.659 333.572 580.086 326.535 600.41C327.075 600.323 327.624 600.298 328.169 600.334Z" fill="white" stroke="#263238" stroke-width="0.5" stroke-linecap="round" stroke-linejoin="round"/>
<path d="M350.929 565.075C349.9 565.075 348.856 564.984 347.812 564.984H346.798C326.989 573.065 316.124 588.53 310.298 601.196C310.54 601.58 310.797 601.958 311.069 602.331L311.387 602.422C317.35 589.196 328.956 572.611 350.929 565.075Z" fill="white" stroke="#263238" stroke-width="0.5" stroke-linecap="round" stroke-linejoin="round"/>
<path d="M387.49 585.822C387.339 585.358 387.172 584.888 386.991 584.414C377.533 587.638 369.936 594.16 364.08 601.242C364.597 601.361 365.103 601.523 365.593 601.726C371.268 595.007 378.531 588.878 387.49 585.822Z" fill="white" stroke="#263238" stroke-width="0.5" stroke-linecap="round" stroke-linejoin="round"/>
<path d="M377.124 573.095C376.564 572.717 375.989 572.369 375.399 572.005C358.541 576.697 345.497 587.516 336.432 604.344L337.688 605.207C346.798 588.228 359.994 577.468 377.124 573.095Z" fill="white" stroke="#263238" stroke-width="0.5" stroke-linecap="round" stroke-linejoin="round"/>
<path d="M382.602 577.756C382.239 577.362 381.891 576.969 381.497 576.591C368.503 582.231 357.944 592.317 351.716 605.04C351.625 605.237 351.549 605.419 351.459 605.6L353.895 604.087C360.159 592.275 370.295 582.978 382.602 577.756Z" fill="white" stroke="#263238" stroke-width="0.5" stroke-linecap="round" stroke-linejoin="round"/>
<path d="M356.241 583.098C356.241 584.808 352.397 586.215 347.645 586.215C342.894 586.215 339.065 584.808 339.065 583.098C339.065 581.388 342.909 579.965 347.645 579.965C352.382 579.965 356.241 581.373 356.241 583.098Z" fill="white" stroke="#263238" stroke-linecap="round" stroke-linejoin="round"/>
</svg>
